G04 ---------------------------- Layer name :BOTTOM LAYER*
G04 EasyEDA v5.5.15, Tue, 26 Jun 2018 10:07:45 GMT*
G04 6b00658ecf034e76a6cd097d3bdf46c6*
G04 Gerber Generator version 0.2*
G04 Scale: 100 percent, Rotated: No, Reflected: No *
G04 Dimensions in inches *
G04 leading zeros omitted , absolute positions ,2 integer and 4 decimal *
%FSLAX24Y24*%
%MOIN*%
G90*
G70D02*

%ADD10C,0.010000*%
%ADD12C,0.020000*%
%ADD15C,0.024400*%
%ADD20R,0.025000X0.050000*%
%ADD25C,0.074000*%
%ADD26R,0.062000X0.062000*%
%ADD27C,0.098000*%
%ADD28C,0.170000*%
%ADD29R,0.039370X0.043307*%
%ADD30R,0.040000X0.040000*%

%LPD*%
G36*
G01X100Y100D02*
G01X100Y2217D01*
G01X109Y2204D01*
G01X140Y2166D01*
G01X175Y2132D01*
G01X213Y2102D01*
G01X255Y2075D01*
G01X298Y2053D01*
G01X343Y2035D01*
G01X390Y2022D01*
G01X439Y2013D01*
G01X487Y2010D01*
G01X536Y2011D01*
G01X585Y2017D01*
G01X632Y2028D01*
G01X679Y2043D01*
G01X723Y2063D01*
G01X765Y2088D01*
G01X805Y2116D01*
G01X842Y2149D01*
G01X875Y2185D01*
G01X904Y2223D01*
G01X930Y2265D01*
G01X951Y2309D01*
G01X968Y2355D01*
G01X980Y2402D01*
G01X987Y2451D01*
G01X990Y2500D01*
G01X987Y2548D01*
G01X980Y2597D01*
G01X968Y2644D01*
G01X951Y2690D01*
G01X930Y2734D01*
G01X904Y2776D01*
G01X875Y2814D01*
G01X842Y2850D01*
G01X805Y2883D01*
G01X765Y2911D01*
G01X723Y2936D01*
G01X679Y2956D01*
G01X632Y2971D01*
G01X585Y2982D01*
G01X536Y2988D01*
G01X487Y2989D01*
G01X439Y2986D01*
G01X390Y2977D01*
G01X343Y2964D01*
G01X298Y2946D01*
G01X255Y2924D01*
G01X213Y2897D01*
G01X175Y2867D01*
G01X140Y2833D01*
G01X109Y2795D01*
G01X100Y2782D01*
G01X100Y3217D01*
G01X109Y3204D01*
G01X140Y3166D01*
G01X175Y3132D01*
G01X213Y3102D01*
G01X255Y3075D01*
G01X298Y3053D01*
G01X343Y3035D01*
G01X390Y3022D01*
G01X439Y3013D01*
G01X487Y3010D01*
G01X536Y3011D01*
G01X585Y3017D01*
G01X632Y3028D01*
G01X679Y3043D01*
G01X723Y3063D01*
G01X765Y3088D01*
G01X805Y3116D01*
G01X842Y3149D01*
G01X875Y3185D01*
G01X904Y3223D01*
G01X930Y3265D01*
G01X951Y3309D01*
G01X968Y3355D01*
G01X980Y3402D01*
G01X987Y3451D01*
G01X990Y3500D01*
G01X987Y3548D01*
G01X980Y3597D01*
G01X968Y3644D01*
G01X951Y3690D01*
G01X930Y3734D01*
G01X904Y3776D01*
G01X875Y3814D01*
G01X842Y3850D01*
G01X805Y3883D01*
G01X765Y3911D01*
G01X723Y3936D01*
G01X679Y3956D01*
G01X632Y3971D01*
G01X585Y3982D01*
G01X536Y3988D01*
G01X487Y3989D01*
G01X439Y3986D01*
G01X390Y3977D01*
G01X343Y3964D01*
G01X298Y3946D01*
G01X255Y3924D01*
G01X213Y3897D01*
G01X175Y3867D01*
G01X140Y3833D01*
G01X109Y3795D01*
G01X100Y3782D01*
G01X100Y5217D01*
G01X109Y5204D01*
G01X140Y5166D01*
G01X175Y5132D01*
G01X213Y5102D01*
G01X255Y5075D01*
G01X298Y5053D01*
G01X343Y5035D01*
G01X390Y5022D01*
G01X439Y5013D01*
G01X487Y5010D01*
G01X536Y5011D01*
G01X585Y5017D01*
G01X632Y5028D01*
G01X679Y5043D01*
G01X723Y5063D01*
G01X765Y5088D01*
G01X805Y5116D01*
G01X842Y5149D01*
G01X875Y5185D01*
G01X904Y5223D01*
G01X930Y5265D01*
G01X951Y5309D01*
G01X968Y5355D01*
G01X980Y5402D01*
G01X987Y5451D01*
G01X990Y5500D01*
G01X987Y5548D01*
G01X980Y5597D01*
G01X968Y5644D01*
G01X951Y5690D01*
G01X930Y5734D01*
G01X904Y5776D01*
G01X875Y5814D01*
G01X842Y5850D01*
G01X805Y5883D01*
G01X765Y5911D01*
G01X723Y5936D01*
G01X679Y5956D01*
G01X632Y5971D01*
G01X585Y5982D01*
G01X536Y5988D01*
G01X487Y5989D01*
G01X439Y5986D01*
G01X390Y5977D01*
G01X343Y5964D01*
G01X298Y5946D01*
G01X255Y5924D01*
G01X213Y5897D01*
G01X175Y5867D01*
G01X140Y5833D01*
G01X109Y5795D01*
G01X100Y5782D01*
G01X100Y7217D01*
G01X109Y7204D01*
G01X140Y7166D01*
G01X175Y7132D01*
G01X213Y7102D01*
G01X255Y7075D01*
G01X298Y7053D01*
G01X343Y7035D01*
G01X390Y7022D01*
G01X439Y7013D01*
G01X487Y7010D01*
G01X536Y7011D01*
G01X585Y7017D01*
G01X632Y7028D01*
G01X679Y7043D01*
G01X723Y7063D01*
G01X765Y7088D01*
G01X805Y7116D01*
G01X842Y7149D01*
G01X875Y7185D01*
G01X904Y7223D01*
G01X930Y7265D01*
G01X951Y7309D01*
G01X958Y7330D01*
G01X1500Y7330D01*
G01X1505Y7330D01*
G01X1511Y7330D01*
G01X1516Y7330D01*
G01X1522Y7331D01*
G01X1527Y7332D01*
G01X1533Y7333D01*
G01X1538Y7334D01*
G01X1544Y7335D01*
G01X1549Y7337D01*
G01X1554Y7339D01*
G01X1559Y7340D01*
G01X1565Y7342D01*
G01X1570Y7345D01*
G01X1575Y7347D01*
G01X1580Y7350D01*
G01X1584Y7352D01*
G01X1589Y7355D01*
G01X1594Y7358D01*
G01X1599Y7361D01*
G01X1603Y7365D01*
G01X1607Y7368D01*
G01X1612Y7372D01*
G01X1616Y7375D01*
G01X1620Y7379D01*
G01X2020Y7779D01*
G01X2024Y7783D01*
G01X2027Y7787D01*
G01X2031Y7792D01*
G01X2034Y7796D01*
G01X2038Y7800D01*
G01X2041Y7805D01*
G01X2044Y7810D01*
G01X2047Y7815D01*
G01X2049Y7819D01*
G01X2052Y7824D01*
G01X2054Y7829D01*
G01X2057Y7834D01*
G01X2059Y7840D01*
G01X2060Y7845D01*
G01X2062Y7850D01*
G01X2064Y7855D01*
G01X2065Y7861D01*
G01X2066Y7866D01*
G01X2067Y7872D01*
G01X2068Y7877D01*
G01X2069Y7883D01*
G01X2069Y7888D01*
G01X2069Y7894D01*
G01X2069Y7900D01*
G01X2069Y8227D01*
G01X2085Y8244D01*
G01X2099Y8263D01*
G01X2112Y8284D01*
G01X2123Y8305D01*
G01X2131Y8328D01*
G01X2137Y8352D01*
G01X2140Y8375D01*
G01X2142Y8400D01*
G01X2140Y8424D01*
G01X2137Y8447D01*
G01X2131Y8471D01*
G01X2123Y8494D01*
G01X2112Y8515D01*
G01X2099Y8536D01*
G01X2085Y8555D01*
G01X2068Y8573D01*
G01X2050Y8589D01*
G01X2031Y8603D01*
G01X2010Y8615D01*
G01X1988Y8625D01*
G01X1965Y8632D01*
G01X1942Y8638D01*
G01X1918Y8641D01*
G01X1893Y8641D01*
G01X1869Y8640D01*
G01X1846Y8635D01*
G01X1822Y8629D01*
G01X1800Y8620D01*
G01X1778Y8609D01*
G01X1758Y8596D01*
G01X1739Y8581D01*
G01X1722Y8564D01*
G01X1707Y8546D01*
G01X1693Y8526D01*
G01X1681Y8505D01*
G01X1672Y8482D01*
G01X1665Y8459D01*
G01X1660Y8436D01*
G01X1658Y8412D01*
G01X1658Y8387D01*
G01X1660Y8363D01*
G01X1665Y8340D01*
G01X1672Y8317D01*
G01X1681Y8294D01*
G01X1693Y8273D01*
G01X1707Y8253D01*
G01X1722Y8235D01*
G01X1730Y8228D01*
G01X1730Y7970D01*
G01X1429Y7669D01*
G01X958Y7669D01*
G01X951Y7690D01*
G01X930Y7734D01*
G01X904Y7776D01*
G01X875Y7814D01*
G01X842Y7850D01*
G01X805Y7883D01*
G01X765Y7911D01*
G01X723Y7936D01*
G01X679Y7956D01*
G01X632Y7971D01*
G01X585Y7982D01*
G01X536Y7988D01*
G01X487Y7989D01*
G01X439Y7986D01*
G01X390Y7977D01*
G01X343Y7964D01*
G01X298Y7946D01*
G01X255Y7924D01*
G01X213Y7897D01*
G01X175Y7867D01*
G01X140Y7833D01*
G01X109Y7795D01*
G01X100Y7782D01*
G01X100Y13200D01*
G01X3000Y13200D01*
G01X3000Y14200D01*
G01X100Y14200D01*
G01X100Y14900D01*
G01X11900Y14900D01*
G01X11900Y7782D01*
G01X11875Y7814D01*
G01X11842Y7850D01*
G01X11805Y7883D01*
G01X11765Y7911D01*
G01X11723Y7936D01*
G01X11679Y7956D01*
G01X11632Y7971D01*
G01X11585Y7982D01*
G01X11536Y7988D01*
G01X11487Y7989D01*
G01X11439Y7986D01*
G01X11390Y7977D01*
G01X11343Y7964D01*
G01X11298Y7946D01*
G01X11295Y7945D01*
G01X11169Y8070D01*
G01X11169Y9200D01*
G01X11169Y9205D01*
G01X11169Y9211D01*
G01X11169Y9216D01*
G01X11168Y9222D01*
G01X11167Y9227D01*
G01X11166Y9233D01*
G01X11165Y9238D01*
G01X11164Y9244D01*
G01X11162Y9249D01*
G01X11160Y9254D01*
G01X11159Y9259D01*
G01X11157Y9265D01*
G01X11154Y9270D01*
G01X11152Y9275D01*
G01X11149Y9280D01*
G01X11147Y9284D01*
G01X11144Y9289D01*
G01X11141Y9294D01*
G01X11138Y9299D01*
G01X11134Y9303D01*
G01X11131Y9307D01*
G01X11127Y9312D01*
G01X11124Y9316D01*
G01X11120Y9320D01*
G01X10620Y9820D01*
G01X10616Y9824D01*
G01X10612Y9827D01*
G01X10607Y9831D01*
G01X10603Y9834D01*
G01X10599Y9838D01*
G01X10594Y9841D01*
G01X10589Y9844D01*
G01X10585Y9847D01*
G01X10580Y9849D01*
G01X10575Y9852D01*
G01X10570Y9854D01*
G01X10565Y9857D01*
G01X10559Y9859D01*
G01X10554Y9860D01*
G01X10549Y9862D01*
G01X10543Y9864D01*
G01X10538Y9865D01*
G01X10533Y9866D01*
G01X10527Y9867D01*
G01X10522Y9868D01*
G01X10516Y9869D01*
G01X10511Y9869D01*
G01X10505Y9869D01*
G01X10500Y9869D01*
G01X9470Y9869D01*
G01X9469Y9870D01*
G01X9469Y10300D01*
G01X9469Y10305D01*
G01X9469Y10311D01*
G01X9469Y10316D01*
G01X9468Y10322D01*
G01X9467Y10327D01*
G01X9466Y10333D01*
G01X9465Y10338D01*
G01X9464Y10344D01*
G01X9462Y10349D01*
G01X9460Y10354D01*
G01X9459Y10359D01*
G01X9457Y10365D01*
G01X9454Y10370D01*
G01X9452Y10375D01*
G01X9449Y10380D01*
G01X9447Y10384D01*
G01X9444Y10389D01*
G01X9441Y10394D01*
G01X9438Y10399D01*
G01X9434Y10403D01*
G01X9431Y10407D01*
G01X9427Y10412D01*
G01X9424Y10416D01*
G01X9420Y10420D01*
G01X9269Y10570D01*
G01X9269Y11300D01*
G01X9269Y11305D01*
G01X9269Y11311D01*
G01X9269Y11316D01*
G01X9268Y11322D01*
G01X9267Y11327D01*
G01X9266Y11333D01*
G01X9265Y11338D01*
G01X9264Y11344D01*
G01X9262Y11349D01*
G01X9260Y11354D01*
G01X9259Y11359D01*
G01X9257Y11365D01*
G01X9254Y11370D01*
G01X9252Y11375D01*
G01X9249Y11380D01*
G01X9247Y11384D01*
G01X9244Y11389D01*
G01X9241Y11394D01*
G01X9238Y11399D01*
G01X9234Y11403D01*
G01X9231Y11407D01*
G01X9227Y11412D01*
G01X9224Y11416D01*
G01X9220Y11420D01*
G01X9069Y11570D01*
G01X9069Y12300D01*
G01X9069Y12305D01*
G01X9069Y12311D01*
G01X9069Y12316D01*
G01X9068Y12322D01*
G01X9067Y12327D01*
G01X9066Y12333D01*
G01X9065Y12338D01*
G01X9064Y12344D01*
G01X9062Y12349D01*
G01X9060Y12354D01*
G01X9059Y12359D01*
G01X9057Y12365D01*
G01X9054Y12370D01*
G01X9052Y12375D01*
G01X9049Y12380D01*
G01X9047Y12384D01*
G01X9044Y12389D01*
G01X9041Y12394D01*
G01X9038Y12399D01*
G01X9034Y12403D01*
G01X9031Y12407D01*
G01X9027Y12412D01*
G01X9024Y12416D01*
G01X9020Y12420D01*
G01X8920Y12520D01*
G01X8916Y12524D01*
G01X8912Y12527D01*
G01X8907Y12531D01*
G01X8903Y12534D01*
G01X8899Y12538D01*
G01X8894Y12541D01*
G01X8889Y12544D01*
G01X8884Y12547D01*
G01X8880Y12549D01*
G01X8875Y12552D01*
G01X8870Y12554D01*
G01X8865Y12557D01*
G01X8859Y12559D01*
G01X8854Y12560D01*
G01X8849Y12562D01*
G01X8844Y12563D01*
G01X8844Y12650D01*
G01X8844Y12654D01*
G01X8844Y12658D01*
G01X8844Y12663D01*
G01X8843Y12667D01*
G01X8842Y12672D01*
G01X8841Y12676D01*
G01X8840Y12681D01*
G01X8839Y12685D01*
G01X8838Y12689D01*
G01X8836Y12693D01*
G01X8834Y12697D01*
G01X8833Y12702D01*
G01X8831Y12706D01*
G01X8828Y12709D01*
G01X8826Y12713D01*
G01X8824Y12717D01*
G01X8821Y12721D01*
G01X8818Y12724D01*
G01X8815Y12728D01*
G01X8812Y12731D01*
G01X8809Y12734D01*
G01X8806Y12737D01*
G01X8803Y12740D01*
G01X8799Y12743D01*
G01X8796Y12746D01*
G01X8792Y12749D01*
G01X8788Y12751D01*
G01X8784Y12753D01*
G01X8781Y12756D01*
G01X8777Y12758D01*
G01X8772Y12759D01*
G01X8768Y12761D01*
G01X8764Y12763D01*
G01X8760Y12764D01*
G01X8756Y12765D01*
G01X8751Y12766D01*
G01X8747Y12767D01*
G01X8742Y12768D01*
G01X8738Y12769D01*
G01X8733Y12769D01*
G01X8729Y12769D01*
G01X8725Y12769D01*
G01X8720Y12769D01*
G01X8720Y12770D01*
G01X8520Y12970D01*
G01X8516Y12974D01*
G01X8512Y12977D01*
G01X8507Y12981D01*
G01X8503Y12984D01*
G01X8499Y12988D01*
G01X8494Y12991D01*
G01X8489Y12994D01*
G01X8484Y12997D01*
G01X8480Y12999D01*
G01X8475Y13002D01*
G01X8470Y13004D01*
G01X8465Y13007D01*
G01X8459Y13009D01*
G01X8454Y13010D01*
G01X8449Y13012D01*
G01X8444Y13014D01*
G01X8438Y13015D01*
G01X8433Y13016D01*
G01X8427Y13017D01*
G01X8422Y13018D01*
G01X8416Y13019D01*
G01X8411Y13019D01*
G01X8405Y13019D01*
G01X8400Y13019D01*
G01X8121Y13019D01*
G01X8118Y13023D01*
G01X8100Y13039D01*
G01X8081Y13053D01*
G01X8060Y13065D01*
G01X8038Y13075D01*
G01X8015Y13082D01*
G01X7992Y13088D01*
G01X7968Y13091D01*
G01X7943Y13091D01*
G01X7919Y13090D01*
G01X7896Y13085D01*
G01X7872Y13079D01*
G01X7850Y13070D01*
G01X7828Y13059D01*
G01X7808Y13046D01*
G01X7789Y13031D01*
G01X7772Y13014D01*
G01X7757Y12996D01*
G01X7743Y12976D01*
G01X7731Y12955D01*
G01X7722Y12932D01*
G01X7715Y12909D01*
G01X7710Y12886D01*
G01X7708Y12862D01*
G01X7708Y12837D01*
G01X7710Y12813D01*
G01X7715Y12790D01*
G01X7722Y12767D01*
G01X7731Y12744D01*
G01X7743Y12723D01*
G01X7757Y12703D01*
G01X7772Y12685D01*
G01X7789Y12668D01*
G01X7808Y12653D01*
G01X7828Y12640D01*
G01X7850Y12629D01*
G01X7872Y12620D01*
G01X7896Y12614D01*
G01X7919Y12609D01*
G01X7943Y12608D01*
G01X7968Y12608D01*
G01X7992Y12611D01*
G01X8015Y12617D01*
G01X8038Y12624D01*
G01X8060Y12634D01*
G01X8081Y12646D01*
G01X8100Y12660D01*
G01X8118Y12676D01*
G01X8121Y12680D01*
G01X8329Y12680D01*
G01X8355Y12654D01*
G01X8355Y12654D01*
G01X8355Y12650D01*
G01X8355Y12150D01*
G01X8355Y12145D01*
G01X8355Y12141D01*
G01X8355Y12136D01*
G01X8356Y12132D01*
G01X8357Y12127D01*
G01X8358Y12123D01*
G01X8359Y12118D01*
G01X8360Y12114D01*
G01X8361Y12110D01*
G01X8363Y12106D01*
G01X8365Y12102D01*
G01X8366Y12097D01*
G01X8368Y12093D01*
G01X8371Y12090D01*
G01X8373Y12086D01*
G01X8375Y12082D01*
G01X8378Y12078D01*
G01X8381Y12075D01*
G01X8384Y12071D01*
G01X8387Y12068D01*
G01X8390Y12065D01*
G01X8393Y12062D01*
G01X8396Y12059D01*
G01X8400Y12056D01*
G01X8403Y12053D01*
G01X8407Y12050D01*
G01X8411Y12048D01*
G01X8415Y12046D01*
G01X8418Y12043D01*
G01X8422Y12041D01*
G01X8427Y12040D01*
G01X8431Y12038D01*
G01X8435Y12036D01*
G01X8439Y12035D01*
G01X8443Y12034D01*
G01X8448Y12033D01*
G01X8452Y12032D01*
G01X8457Y12031D01*
G01X8461Y12030D01*
G01X8466Y12030D01*
G01X8470Y12030D01*
G01X8475Y12030D01*
G01X8725Y12030D01*
G01X8729Y12030D01*
G01X8730Y12030D01*
G01X8730Y11669D01*
G01X8729Y11669D01*
G01X8725Y11669D01*
G01X8720Y11669D01*
G01X8720Y11670D01*
G01X8520Y11870D01*
G01X8516Y11874D01*
G01X8512Y11877D01*
G01X8507Y11881D01*
G01X8503Y11884D01*
G01X8499Y11888D01*
G01X8494Y11891D01*
G01X8489Y11894D01*
G01X8484Y11897D01*
G01X8480Y11899D01*
G01X8475Y11902D01*
G01X8470Y11904D01*
G01X8465Y11907D01*
G01X8459Y11909D01*
G01X8454Y11910D01*
G01X8449Y11912D01*
G01X8444Y11914D01*
G01X8438Y11915D01*
G01X8433Y11916D01*
G01X8427Y11917D01*
G01X8422Y11918D01*
G01X8416Y11919D01*
G01X8411Y11919D01*
G01X8405Y11919D01*
G01X8400Y11919D01*
G01X8171Y11919D01*
G01X8168Y11923D01*
G01X8150Y11939D01*
G01X8131Y11953D01*
G01X8110Y11965D01*
G01X8088Y11975D01*
G01X8065Y11982D01*
G01X8042Y11988D01*
G01X8018Y11991D01*
G01X7993Y11991D01*
G01X7969Y11990D01*
G01X7946Y11985D01*
G01X7922Y11979D01*
G01X7900Y11970D01*
G01X7878Y11959D01*
G01X7858Y11946D01*
G01X7839Y11931D01*
G01X7822Y11914D01*
G01X7807Y11896D01*
G01X7793Y11876D01*
G01X7781Y11855D01*
G01X7772Y11832D01*
G01X7765Y11809D01*
G01X7760Y11786D01*
G01X7758Y11762D01*
G01X7758Y11737D01*
G01X7760Y11713D01*
G01X7765Y11690D01*
G01X7772Y11667D01*
G01X7781Y11644D01*
G01X7793Y11623D01*
G01X7807Y11603D01*
G01X7822Y11585D01*
G01X7839Y11568D01*
G01X7858Y11553D01*
G01X7878Y11540D01*
G01X7900Y11529D01*
G01X7922Y11520D01*
G01X7946Y11514D01*
G01X7969Y11509D01*
G01X7993Y11508D01*
G01X8018Y11508D01*
G01X8042Y11511D01*
G01X8065Y11517D01*
G01X8088Y11524D01*
G01X8110Y11534D01*
G01X8131Y11546D01*
G01X8150Y11560D01*
G01X8168Y11576D01*
G01X8171Y11580D01*
G01X8329Y11580D01*
G01X8355Y11554D01*
G01X8355Y11554D01*
G01X8355Y11550D01*
G01X8355Y11050D01*
G01X8355Y11045D01*
G01X8355Y11041D01*
G01X8355Y11036D01*
G01X8356Y11032D01*
G01X8357Y11027D01*
G01X8358Y11023D01*
G01X8359Y11018D01*
G01X8360Y11014D01*
G01X8361Y11010D01*
G01X8363Y11006D01*
G01X8365Y11002D01*
G01X8366Y10997D01*
G01X8368Y10993D01*
G01X8371Y10990D01*
G01X8373Y10986D01*
G01X8375Y10982D01*
G01X8378Y10978D01*
G01X8381Y10975D01*
G01X8384Y10971D01*
G01X8387Y10968D01*
G01X8390Y10965D01*
G01X8393Y10962D01*
G01X8396Y10959D01*
G01X8400Y10956D01*
G01X8403Y10953D01*
G01X8407Y10950D01*
G01X8411Y10948D01*
G01X8415Y10946D01*
G01X8418Y10943D01*
G01X8422Y10941D01*
G01X8427Y10940D01*
G01X8431Y10938D01*
G01X8435Y10936D01*
G01X8439Y10935D01*
G01X8443Y10934D01*
G01X8448Y10933D01*
G01X8452Y10932D01*
G01X8457Y10931D01*
G01X8461Y10930D01*
G01X8466Y10930D01*
G01X8470Y10930D01*
G01X8475Y10930D01*
G01X8725Y10930D01*
G01X8729Y10930D01*
G01X8730Y10930D01*
G01X8730Y10569D01*
G01X8729Y10569D01*
G01X8725Y10569D01*
G01X8669Y10569D01*
G01X8669Y10650D01*
G01X8669Y10655D01*
G01X8669Y10660D01*
G01X8669Y10665D01*
G01X8668Y10671D01*
G01X8667Y10676D01*
G01X8666Y10681D01*
G01X8665Y10687D01*
G01X8664Y10692D01*
G01X8663Y10697D01*
G01X8661Y10702D01*
G01X8659Y10707D01*
G01X8658Y10712D01*
G01X8656Y10717D01*
G01X8653Y10722D01*
G01X8651Y10727D01*
G01X8648Y10731D01*
G01X8646Y10736D01*
G01X8643Y10741D01*
G01X8640Y10745D01*
G01X8637Y10749D01*
G01X8634Y10754D01*
G01X8630Y10758D01*
G01X8627Y10762D01*
G01X8623Y10766D01*
G01X8620Y10770D01*
G01X8616Y10773D01*
G01X8612Y10777D01*
G01X8608Y10780D01*
G01X8604Y10784D01*
G01X8599Y10787D01*
G01X8595Y10790D01*
G01X8591Y10793D01*
G01X8586Y10796D01*
G01X8581Y10798D01*
G01X8577Y10801D01*
G01X8572Y10803D01*
G01X8567Y10806D01*
G01X8562Y10808D01*
G01X8557Y10809D01*
G01X8552Y10811D01*
G01X8547Y10813D01*
G01X8542Y10814D01*
G01X8537Y10815D01*
G01X8531Y10816D01*
G01X8526Y10817D01*
G01X8521Y10818D01*
G01X8515Y10819D01*
G01X8510Y10819D01*
G01X8505Y10819D01*
G01X8500Y10819D01*
G01X8171Y10819D01*
G01X8168Y10823D01*
G01X8150Y10839D01*
G01X8131Y10853D01*
G01X8110Y10865D01*
G01X8088Y10875D01*
G01X8065Y10882D01*
G01X8042Y10888D01*
G01X8018Y10891D01*
G01X7993Y10891D01*
G01X7969Y10890D01*
G01X7946Y10885D01*
G01X7922Y10879D01*
G01X7900Y10870D01*
G01X7878Y10859D01*
G01X7858Y10846D01*
G01X7839Y10831D01*
G01X7822Y10814D01*
G01X7807Y10796D01*
G01X7793Y10776D01*
G01X7781Y10755D01*
G01X7772Y10732D01*
G01X7765Y10709D01*
G01X7760Y10686D01*
G01X7758Y10662D01*
G01X7758Y10637D01*
G01X7760Y10613D01*
G01X7765Y10590D01*
G01X7772Y10567D01*
G01X7781Y10544D01*
G01X7793Y10523D01*
G01X7807Y10503D01*
G01X7822Y10485D01*
G01X7839Y10468D01*
G01X7858Y10453D01*
G01X7878Y10440D01*
G01X7900Y10429D01*
G01X7922Y10420D01*
G01X7946Y10414D01*
G01X7969Y10409D01*
G01X7993Y10408D01*
G01X8018Y10408D01*
G01X8042Y10411D01*
G01X8065Y10417D01*
G01X8088Y10424D01*
G01X8110Y10434D01*
G01X8131Y10446D01*
G01X8150Y10460D01*
G01X8168Y10476D01*
G01X8171Y10480D01*
G01X8330Y10480D01*
G01X8330Y10300D01*
G01X8330Y10294D01*
G01X8330Y10288D01*
G01X8330Y10283D01*
G01X8331Y10277D01*
G01X8332Y10272D01*
G01X8333Y10266D01*
G01X8334Y10261D01*
G01X8335Y10255D01*
G01X8337Y10250D01*
G01X8339Y10245D01*
G01X8340Y10240D01*
G01X8342Y10234D01*
G01X8345Y10229D01*
G01X8347Y10224D01*
G01X8350Y10219D01*
G01X8352Y10215D01*
G01X8355Y10211D01*
G01X8355Y9950D01*
G01X8355Y9945D01*
G01X8355Y9941D01*
G01X8355Y9936D01*
G01X8356Y9932D01*
G01X8357Y9927D01*
G01X8358Y9923D01*
G01X8359Y9918D01*
G01X8360Y9914D01*
G01X8361Y9910D01*
G01X8363Y9906D01*
G01X8365Y9902D01*
G01X8366Y9897D01*
G01X8368Y9893D01*
G01X8371Y9890D01*
G01X8373Y9886D01*
G01X8375Y9882D01*
G01X8378Y9878D01*
G01X8381Y9875D01*
G01X8384Y9871D01*
G01X8387Y9868D01*
G01X8390Y9865D01*
G01X8393Y9862D01*
G01X8396Y9859D01*
G01X8400Y9856D01*
G01X8403Y9853D01*
G01X8407Y9850D01*
G01X8411Y9848D01*
G01X8415Y9846D01*
G01X8418Y9843D01*
G01X8422Y9841D01*
G01X8427Y9840D01*
G01X8431Y9838D01*
G01X8435Y9836D01*
G01X8439Y9835D01*
G01X8443Y9834D01*
G01X8448Y9833D01*
G01X8452Y9832D01*
G01X8457Y9831D01*
G01X8461Y9830D01*
G01X8466Y9830D01*
G01X8470Y9830D01*
G01X8475Y9830D01*
G01X8725Y9830D01*
G01X8729Y9830D01*
G01X8730Y9830D01*
G01X8730Y9600D01*
G01X8730Y9594D01*
G01X8730Y9588D01*
G01X8730Y9583D01*
G01X8731Y9577D01*
G01X8732Y9572D01*
G01X8733Y9566D01*
G01X8734Y9561D01*
G01X8735Y9555D01*
G01X8737Y9550D01*
G01X8739Y9545D01*
G01X8740Y9540D01*
G01X8742Y9534D01*
G01X8745Y9529D01*
G01X8747Y9524D01*
G01X8750Y9519D01*
G01X8752Y9515D01*
G01X8755Y9510D01*
G01X8758Y9505D01*
G01X8761Y9500D01*
G01X8765Y9496D01*
G01X8768Y9492D01*
G01X8772Y9487D01*
G01X8775Y9483D01*
G01X8779Y9479D01*
G01X8989Y9269D01*
G01X8844Y9269D01*
G01X8844Y9350D01*
G01X8844Y9354D01*
G01X8844Y9358D01*
G01X8844Y9363D01*
G01X8843Y9367D01*
G01X8842Y9372D01*
G01X8841Y9376D01*
G01X8840Y9381D01*
G01X8839Y9385D01*
G01X8838Y9389D01*
G01X8836Y9393D01*
G01X8834Y9397D01*
G01X8833Y9402D01*
G01X8831Y9406D01*
G01X8828Y9409D01*
G01X8826Y9413D01*
G01X8824Y9417D01*
G01X8821Y9421D01*
G01X8818Y9424D01*
G01X8815Y9428D01*
G01X8812Y9431D01*
G01X8809Y9434D01*
G01X8806Y9437D01*
G01X8803Y9440D01*
G01X8799Y9443D01*
G01X8796Y9446D01*
G01X8792Y9449D01*
G01X8788Y9451D01*
G01X8784Y9453D01*
G01X8781Y9456D01*
G01X8777Y9458D01*
G01X8772Y9459D01*
G01X8768Y9461D01*
G01X8764Y9463D01*
G01X8760Y9464D01*
G01X8756Y9465D01*
G01X8751Y9466D01*
G01X8747Y9467D01*
G01X8742Y9468D01*
G01X8738Y9469D01*
G01X8733Y9469D01*
G01X8729Y9469D01*
G01X8725Y9469D01*
G01X8669Y9469D01*
G01X8669Y9550D01*
G01X8669Y9555D01*
G01X8669Y9560D01*
G01X8669Y9565D01*
G01X8668Y9571D01*
G01X8667Y9576D01*
G01X8666Y9581D01*
G01X8665Y9587D01*
G01X8664Y9592D01*
G01X8663Y9597D01*
G01X8661Y9602D01*
G01X8659Y9607D01*
G01X8658Y9612D01*
G01X8656Y9617D01*
G01X8653Y9622D01*
G01X8651Y9627D01*
G01X8648Y9631D01*
G01X8646Y9636D01*
G01X8643Y9641D01*
G01X8640Y9645D01*
G01X8637Y9649D01*
G01X8634Y9654D01*
G01X8630Y9658D01*
G01X8627Y9662D01*
G01X8623Y9666D01*
G01X8620Y9670D01*
G01X8616Y9673D01*
G01X8612Y9677D01*
G01X8608Y9680D01*
G01X8604Y9684D01*
G01X8599Y9687D01*
G01X8595Y9690D01*
G01X8591Y9693D01*
G01X8586Y9696D01*
G01X8581Y9698D01*
G01X8577Y9701D01*
G01X8572Y9703D01*
G01X8567Y9706D01*
G01X8562Y9708D01*
G01X8557Y9709D01*
G01X8552Y9711D01*
G01X8547Y9713D01*
G01X8542Y9714D01*
G01X8537Y9715D01*
G01X8531Y9716D01*
G01X8526Y9717D01*
G01X8521Y9718D01*
G01X8515Y9719D01*
G01X8510Y9719D01*
G01X8505Y9719D01*
G01X8500Y9719D01*
G01X8171Y9719D01*
G01X8168Y9723D01*
G01X8150Y9739D01*
G01X8131Y9753D01*
G01X8110Y9765D01*
G01X8088Y9775D01*
G01X8065Y9782D01*
G01X8042Y9788D01*
G01X8018Y9791D01*
G01X7993Y9791D01*
G01X7969Y9790D01*
G01X7946Y9785D01*
G01X7922Y9779D01*
G01X7900Y9770D01*
G01X7878Y9759D01*
G01X7858Y9746D01*
G01X7839Y9731D01*
G01X7822Y9714D01*
G01X7807Y9696D01*
G01X7793Y9676D01*
G01X7781Y9655D01*
G01X7772Y9632D01*
G01X7765Y9609D01*
G01X7760Y9586D01*
G01X7758Y9562D01*
G01X7758Y9537D01*
G01X7760Y9513D01*
G01X7765Y9490D01*
G01X7772Y9467D01*
G01X7781Y9444D01*
G01X7793Y9423D01*
G01X7807Y9403D01*
G01X7822Y9385D01*
G01X7839Y9368D01*
G01X7858Y9353D01*
G01X7878Y9340D01*
G01X7900Y9329D01*
G01X7922Y9320D01*
G01X7946Y9314D01*
G01X7969Y9309D01*
G01X7993Y9308D01*
G01X8018Y9308D01*
G01X8042Y9311D01*
G01X8065Y9317D01*
G01X8088Y9324D01*
G01X8110Y9334D01*
G01X8131Y9346D01*
G01X8150Y9360D01*
G01X8168Y9376D01*
G01X8171Y9380D01*
G01X8330Y9380D01*
G01X8330Y9050D01*
G01X8330Y9041D01*
G01X8330Y9033D01*
G01X8331Y9024D01*
G01X8333Y9016D01*
G01X8335Y9008D01*
G01X8337Y8999D01*
G01X8340Y8991D01*
G01X8343Y8983D01*
G01X8346Y8976D01*
G01X8350Y8968D01*
G01X8354Y8961D01*
G01X8355Y8961D01*
G01X8355Y8850D01*
G01X8355Y8845D01*
G01X8355Y8841D01*
G01X8355Y8836D01*
G01X8356Y8832D01*
G01X8357Y8827D01*
G01X8358Y8823D01*
G01X8359Y8818D01*
G01X8360Y8814D01*
G01X8361Y8810D01*
G01X8363Y8806D01*
G01X8365Y8802D01*
G01X8366Y8797D01*
G01X8368Y8793D01*
G01X8371Y8790D01*
G01X8373Y8786D01*
G01X8375Y8782D01*
G01X8378Y8778D01*
G01X8381Y8775D01*
G01X8384Y8771D01*
G01X8387Y8768D01*
G01X8390Y8765D01*
G01X8393Y8762D01*
G01X8396Y8759D01*
G01X8400Y8756D01*
G01X8403Y8753D01*
G01X8407Y8750D01*
G01X8411Y8748D01*
G01X8415Y8746D01*
G01X8418Y8743D01*
G01X8422Y8741D01*
G01X8427Y8740D01*
G01X8431Y8738D01*
G01X8435Y8736D01*
G01X8439Y8735D01*
G01X8443Y8734D01*
G01X8448Y8733D01*
G01X8452Y8732D01*
G01X8457Y8731D01*
G01X8461Y8730D01*
G01X8466Y8730D01*
G01X8470Y8730D01*
G01X8475Y8730D01*
G01X8725Y8730D01*
G01X8729Y8730D01*
G01X8733Y8730D01*
G01X8738Y8730D01*
G01X8742Y8731D01*
G01X8747Y8732D01*
G01X8751Y8733D01*
G01X8756Y8734D01*
G01X8760Y8735D01*
G01X8764Y8736D01*
G01X8768Y8738D01*
G01X8772Y8740D01*
G01X8777Y8741D01*
G01X8781Y8743D01*
G01X8784Y8746D01*
G01X8788Y8748D01*
G01X8792Y8750D01*
G01X8796Y8753D01*
G01X8799Y8756D01*
G01X8803Y8759D01*
G01X8806Y8762D01*
G01X8809Y8765D01*
G01X8812Y8768D01*
G01X8815Y8771D01*
G01X8818Y8775D01*
G01X8821Y8778D01*
G01X8824Y8782D01*
G01X8826Y8786D01*
G01X8828Y8790D01*
G01X8831Y8793D01*
G01X8833Y8797D01*
G01X8834Y8802D01*
G01X8836Y8806D01*
G01X8838Y8810D01*
G01X8839Y8814D01*
G01X8840Y8818D01*
G01X8841Y8823D01*
G01X8842Y8827D01*
G01X8843Y8832D01*
G01X8844Y8836D01*
G01X8844Y8841D01*
G01X8844Y8845D01*
G01X8844Y8850D01*
G01X8844Y8930D01*
G01X10129Y8930D01*
G01X10230Y8829D01*
G01X10230Y8054D01*
G01X10210Y8065D01*
G01X10188Y8075D01*
G01X10165Y8082D01*
G01X10142Y8088D01*
G01X10118Y8091D01*
G01X10093Y8091D01*
G01X10069Y8090D01*
G01X10046Y8085D01*
G01X10022Y8079D01*
G01X10000Y8070D01*
G01X9978Y8059D01*
G01X9958Y8046D01*
G01X9939Y8031D01*
G01X9922Y8014D01*
G01X9919Y8011D01*
G01X9919Y8100D01*
G01X9919Y8106D01*
G01X9919Y8112D01*
G01X9919Y8118D01*
G01X9918Y8124D01*
G01X9917Y8130D01*
G01X9916Y8136D01*
G01X9915Y8142D01*
G01X9914Y8148D01*
G01X9913Y8154D01*
G01X9911Y8160D01*
G01X9909Y8166D01*
G01X9907Y8172D01*
G01X9905Y8178D01*
G01X9903Y8184D01*
G01X9900Y8189D01*
G01X9898Y8195D01*
G01X9895Y8200D01*
G01X9892Y8206D01*
G01X9889Y8211D01*
G01X9886Y8217D01*
G01X9882Y8222D01*
G01X9879Y8227D01*
G01X9875Y8232D01*
G01X9872Y8237D01*
G01X9868Y8241D01*
G01X9864Y8246D01*
G01X9859Y8251D01*
G01X9855Y8255D01*
G01X9655Y8455D01*
G01X9651Y8459D01*
G01X9646Y8464D01*
G01X9641Y8468D01*
G01X9637Y8471D01*
G01X9632Y8475D01*
G01X9627Y8479D01*
G01X9622Y8482D01*
G01X9617Y8486D01*
G01X9611Y8489D01*
G01X9606Y8492D01*
G01X9600Y8495D01*
G01X9595Y8498D01*
G01X9589Y8500D01*
G01X9584Y8503D01*
G01X9578Y8505D01*
G01X9572Y8507D01*
G01X9566Y8509D01*
G01X9560Y8511D01*
G01X9554Y8513D01*
G01X9548Y8514D01*
G01X9542Y8515D01*
G01X9536Y8516D01*
G01X9530Y8517D01*
G01X9524Y8518D01*
G01X9518Y8519D01*
G01X9512Y8519D01*
G01X9506Y8519D01*
G01X9500Y8519D01*
G01X7691Y8519D01*
G01X7374Y8836D01*
G01X7374Y8841D01*
G01X7374Y8845D01*
G01X7375Y8850D01*
G01X7375Y9350D01*
G01X7374Y9354D01*
G01X7374Y9358D01*
G01X7374Y9363D01*
G01X7373Y9367D01*
G01X7372Y9372D01*
G01X7371Y9376D01*
G01X7370Y9381D01*
G01X7369Y9385D01*
G01X7368Y9389D01*
G01X7366Y9393D01*
G01X7364Y9397D01*
G01X7363Y9402D01*
G01X7361Y9406D01*
G01X7358Y9409D01*
G01X7356Y9413D01*
G01X7354Y9417D01*
G01X7351Y9421D01*
G01X7350Y9423D01*
G01X7350Y9876D01*
G01X7351Y9878D01*
G01X7354Y9882D01*
G01X7356Y9886D01*
G01X7358Y9890D01*
G01X7361Y9893D01*
G01X7363Y9897D01*
G01X7364Y9902D01*
G01X7366Y9906D01*
G01X7368Y9910D01*
G01X7369Y9914D01*
G01X7370Y9918D01*
G01X7371Y9923D01*
G01X7372Y9927D01*
G01X7373Y9932D01*
G01X7374Y9936D01*
G01X7374Y9941D01*
G01X7374Y9945D01*
G01X7375Y9950D01*
G01X7375Y10450D01*
G01X7374Y10454D01*
G01X7374Y10458D01*
G01X7374Y10463D01*
G01X7373Y10467D01*
G01X7372Y10472D01*
G01X7371Y10476D01*
G01X7370Y10481D01*
G01X7369Y10485D01*
G01X7368Y10489D01*
G01X7366Y10493D01*
G01X7364Y10497D01*
G01X7363Y10502D01*
G01X7361Y10506D01*
G01X7358Y10509D01*
G01X7356Y10513D01*
G01X7354Y10517D01*
G01X7351Y10521D01*
G01X7350Y10523D01*
G01X7350Y10976D01*
G01X7351Y10978D01*
G01X7354Y10982D01*
G01X7356Y10986D01*
G01X7358Y10990D01*
G01X7361Y10993D01*
G01X7363Y10997D01*
G01X7364Y11002D01*
G01X7366Y11006D01*
G01X7368Y11010D01*
G01X7369Y11014D01*
G01X7370Y11018D01*
G01X7371Y11023D01*
G01X7372Y11027D01*
G01X7373Y11032D01*
G01X7374Y11036D01*
G01X7374Y11041D01*
G01X7374Y11045D01*
G01X7375Y11050D01*
G01X7375Y11550D01*
G01X7374Y11554D01*
G01X7374Y11558D01*
G01X7374Y11563D01*
G01X7373Y11567D01*
G01X7372Y11572D01*
G01X7371Y11576D01*
G01X7370Y11581D01*
G01X7369Y11585D01*
G01X7368Y11589D01*
G01X7366Y11593D01*
G01X7364Y11597D01*
G01X7363Y11602D01*
G01X7361Y11606D01*
G01X7358Y11609D01*
G01X7356Y11613D01*
G01X7354Y11617D01*
G01X7351Y11621D01*
G01X7348Y11624D01*
G01X7345Y11628D01*
G01X7342Y11631D01*
G01X7339Y11634D01*
G01X7336Y11637D01*
G01X7333Y11640D01*
G01X7332Y11641D01*
G01X7332Y12094D01*
G01X7334Y12096D01*
G01X7337Y12100D01*
G01X7339Y12104D01*
G01X7341Y12107D01*
G01X7344Y12111D01*
G01X7346Y12115D01*
G01X7347Y12120D01*
G01X7349Y12124D01*
G01X7351Y12128D01*
G01X7352Y12132D01*
G01X7353Y12136D01*
G01X7354Y12141D01*
G01X7355Y12145D01*
G01X7356Y12150D01*
G01X7357Y12154D01*
G01X7357Y12159D01*
G01X7357Y12163D01*
G01X7357Y12167D01*
G01X7357Y12667D01*
G01X7357Y12672D01*
G01X7357Y12676D01*
G01X7357Y12681D01*
G01X7356Y12685D01*
G01X7355Y12690D01*
G01X7354Y12694D01*
G01X7353Y12699D01*
G01X7352Y12703D01*
G01X7351Y12707D01*
G01X7349Y12711D01*
G01X7347Y12715D01*
G01X7346Y12720D01*
G01X7344Y12724D01*
G01X7341Y12728D01*
G01X7339Y12731D01*
G01X7337Y12735D01*
G01X7334Y12739D01*
G01X7332Y12741D01*
G01X7332Y14280D01*
G01X8399Y14280D01*
G01X8400Y14279D01*
G01X8422Y14270D01*
G01X8446Y14264D01*
G01X8469Y14259D01*
G01X8493Y14258D01*
G01X8518Y14258D01*
G01X8542Y14261D01*
G01X8565Y14267D01*
G01X8588Y14274D01*
G01X8610Y14284D01*
G01X8631Y14296D01*
G01X8650Y14310D01*
G01X8668Y14326D01*
G01X8685Y14344D01*
G01X8699Y14363D01*
G01X8712Y14384D01*
G01X8723Y14405D01*
G01X8731Y14428D01*
G01X8737Y14452D01*
G01X8740Y14475D01*
G01X8742Y14500D01*
G01X8740Y14524D01*
G01X8737Y14547D01*
G01X8731Y14571D01*
G01X8723Y14594D01*
G01X8712Y14615D01*
G01X8699Y14636D01*
G01X8685Y14655D01*
G01X8668Y14673D01*
G01X8650Y14689D01*
G01X8631Y14703D01*
G01X8610Y14715D01*
G01X8588Y14725D01*
G01X8565Y14732D01*
G01X8542Y14738D01*
G01X8518Y14741D01*
G01X8493Y14741D01*
G01X8469Y14740D01*
G01X8446Y14735D01*
G01X8422Y14729D01*
G01X8400Y14720D01*
G01X8399Y14719D01*
G01X4950Y14719D01*
G01X4943Y14719D01*
G01X4937Y14719D01*
G01X4931Y14719D01*
G01X4925Y14718D01*
G01X4919Y14717D01*
G01X4913Y14716D01*
G01X4907Y14715D01*
G01X4901Y14714D01*
G01X4895Y14713D01*
G01X4889Y14711D01*
G01X4883Y14709D01*
G01X4877Y14707D01*
G01X4871Y14705D01*
G01X4865Y14703D01*
G01X4860Y14700D01*
G01X4854Y14698D01*
G01X4849Y14695D01*
G01X4843Y14692D01*
G01X4838Y14689D01*
G01X4832Y14686D01*
G01X4827Y14682D01*
G01X4822Y14679D01*
G01X4817Y14675D01*
G01X4812Y14671D01*
G01X4808Y14668D01*
G01X4803Y14664D01*
G01X4798Y14659D01*
G01X4794Y14655D01*
G01X4680Y14541D01*
G01X4676Y14537D01*
G01X4671Y14532D01*
G01X4667Y14527D01*
G01X4663Y14523D01*
G01X4660Y14518D01*
G01X4656Y14513D01*
G01X4653Y14508D01*
G01X4649Y14503D01*
G01X4646Y14497D01*
G01X4643Y14492D01*
G01X4640Y14486D01*
G01X4637Y14481D01*
G01X4635Y14475D01*
G01X4632Y14470D01*
G01X4630Y14464D01*
G01X4628Y14458D01*
G01X4626Y14452D01*
G01X4624Y14446D01*
G01X4622Y14440D01*
G01X4621Y14434D01*
G01X4620Y14428D01*
G01X4619Y14422D01*
G01X4618Y14416D01*
G01X4617Y14410D01*
G01X4616Y14404D01*
G01X4616Y14398D01*
G01X4616Y14392D01*
G01X4615Y14386D01*
G01X4615Y14334D01*
G01X4612Y14333D01*
G01X4607Y14332D01*
G01X4603Y14331D01*
G01X4599Y14329D01*
G01X4595Y14328D01*
G01X4591Y14326D01*
G01X4586Y14324D01*
G01X4582Y14322D01*
G01X4578Y14320D01*
G01X4575Y14318D01*
G01X4571Y14315D01*
G01X4567Y14313D01*
G01X4564Y14310D01*
G01X4560Y14307D01*
G01X4557Y14304D01*
G01X4554Y14301D01*
G01X4551Y14298D01*
G01X4548Y14294D01*
G01X4545Y14291D01*
G01X4542Y14287D01*
G01X4539Y14284D01*
G01X4537Y14280D01*
G01X4535Y14276D01*
G01X4532Y14272D01*
G01X4530Y14268D01*
G01X4529Y14264D01*
G01X4527Y14260D01*
G01X4525Y14256D01*
G01X4524Y14251D01*
G01X4523Y14247D01*
G01X4522Y14243D01*
G01X4521Y14238D01*
G01X4520Y14238D01*
G01X4520Y14238D01*
G01X4519Y14243D01*
G01X4518Y14247D01*
G01X4517Y14251D01*
G01X4516Y14256D01*
G01X4514Y14260D01*
G01X4512Y14264D01*
G01X4511Y14268D01*
G01X4508Y14272D01*
G01X4506Y14276D01*
G01X4504Y14280D01*
G01X4502Y14284D01*
G01X4499Y14287D01*
G01X4496Y14291D01*
G01X4493Y14294D01*
G01X4490Y14298D01*
G01X4487Y14301D01*
G01X4484Y14304D01*
G01X4481Y14307D01*
G01X4477Y14310D01*
G01X4474Y14313D01*
G01X4470Y14315D01*
G01X4466Y14318D01*
G01X4462Y14320D01*
G01X4458Y14322D01*
G01X4454Y14324D01*
G01X4450Y14326D01*
G01X4446Y14328D01*
G01X4442Y14329D01*
G01X4438Y14331D01*
G01X4433Y14332D01*
G01X4429Y14333D01*
G01X4425Y14334D01*
G01X4420Y14335D01*
G01X4416Y14335D01*
G01X4411Y14336D01*
G01X4407Y14336D01*
G01X4402Y14336D01*
G01X4009Y14336D01*
G01X4004Y14336D01*
G01X4000Y14336D01*
G01X3995Y14335D01*
G01X3991Y14335D01*
G01X3986Y14334D01*
G01X3982Y14333D01*
G01X3978Y14332D01*
G01X3973Y14331D01*
G01X3969Y14329D01*
G01X3965Y14328D01*
G01X3961Y14326D01*
G01X3957Y14324D01*
G01X3953Y14322D01*
G01X3949Y14320D01*
G01X3945Y14318D01*
G01X3941Y14315D01*
G01X3937Y14313D01*
G01X3934Y14310D01*
G01X3930Y14307D01*
G01X3927Y14304D01*
G01X3924Y14301D01*
G01X3921Y14298D01*
G01X3918Y14294D01*
G01X3915Y14291D01*
G01X3912Y14287D01*
G01X3910Y14284D01*
G01X3907Y14280D01*
G01X3905Y14276D01*
G01X3903Y14272D01*
G01X3901Y14268D01*
G01X3899Y14264D01*
G01X3897Y14260D01*
G01X3895Y14256D01*
G01X3894Y14251D01*
G01X3893Y14247D01*
G01X3892Y14243D01*
G01X3891Y14238D01*
G01X3890Y14234D01*
G01X3889Y14230D01*
G01X3889Y14225D01*
G01X3889Y14221D01*
G01X3889Y14216D01*
G01X3889Y13783D01*
G01X3889Y13779D01*
G01X3889Y13774D01*
G01X3889Y13770D01*
G01X3890Y13765D01*
G01X3891Y13761D01*
G01X3892Y13756D01*
G01X3893Y13752D01*
G01X3894Y13748D01*
G01X3895Y13743D01*
G01X3897Y13739D01*
G01X3899Y13735D01*
G01X3901Y13731D01*
G01X3903Y13727D01*
G01X3905Y13723D01*
G01X3907Y13719D01*
G01X3910Y13715D01*
G01X3912Y13712D01*
G01X3915Y13708D01*
G01X3918Y13705D01*
G01X3921Y13701D01*
G01X3924Y13698D01*
G01X3927Y13695D01*
G01X3930Y13692D01*
G01X3934Y13689D01*
G01X3937Y13687D01*
G01X3941Y13684D01*
G01X3945Y13681D01*
G01X3949Y13679D01*
G01X3953Y13677D01*
G01X3957Y13675D01*
G01X3961Y13673D01*
G01X3965Y13671D01*
G01X3969Y13670D01*
G01X3973Y13668D01*
G01X3978Y13667D01*
G01X3982Y13666D01*
G01X3986Y13665D01*
G01X3991Y13664D01*
G01X3995Y13664D01*
G01X4000Y13663D01*
G01X4004Y13663D01*
G01X4009Y13663D01*
G01X4009Y13663D01*
G01X4009Y12969D01*
G01X3999Y12986D01*
G01X3985Y13005D01*
G01X3968Y13023D01*
G01X3950Y13039D01*
G01X3931Y13053D01*
G01X3910Y13065D01*
G01X3888Y13075D01*
G01X3865Y13082D01*
G01X3842Y13088D01*
G01X3818Y13091D01*
G01X3793Y13091D01*
G01X3769Y13090D01*
G01X3746Y13085D01*
G01X3722Y13079D01*
G01X3700Y13070D01*
G01X3678Y13059D01*
G01X3658Y13046D01*
G01X3639Y13031D01*
G01X3622Y13014D01*
G01X3607Y12996D01*
G01X3593Y12976D01*
G01X3581Y12955D01*
G01X3572Y12932D01*
G01X3565Y12909D01*
G01X3560Y12886D01*
G01X3558Y12862D01*
G01X3558Y12837D01*
G01X3560Y12813D01*
G01X3565Y12790D01*
G01X3572Y12767D01*
G01X3581Y12744D01*
G01X3588Y12733D01*
G01X3587Y12731D01*
G01X3584Y12728D01*
G01X3581Y12724D01*
G01X3578Y12721D01*
G01X3575Y12717D01*
G01X3573Y12713D01*
G01X3571Y12709D01*
G01X3568Y12706D01*
G01X3566Y12702D01*
G01X3565Y12697D01*
G01X3563Y12693D01*
G01X3561Y12689D01*
G01X3560Y12685D01*
G01X3559Y12681D01*
G01X3558Y12676D01*
G01X3557Y12672D01*
G01X3556Y12667D01*
G01X3555Y12663D01*
G01X3555Y12658D01*
G01X3555Y12654D01*
G01X3555Y12650D01*
G01X3555Y12150D01*
G01X3555Y12145D01*
G01X3555Y12141D01*
G01X3555Y12136D01*
G01X3556Y12132D01*
G01X3557Y12127D01*
G01X3558Y12123D01*
G01X3559Y12118D01*
G01X3560Y12114D01*
G01X3561Y12110D01*
G01X3563Y12106D01*
G01X3565Y12102D01*
G01X3566Y12097D01*
G01X3568Y12093D01*
G01X3571Y12090D01*
G01X3573Y12086D01*
G01X3575Y12082D01*
G01X3578Y12078D01*
G01X3581Y12075D01*
G01X3584Y12071D01*
G01X3587Y12068D01*
G01X3590Y12065D01*
G01X3593Y12062D01*
G01X3596Y12059D01*
G01X3600Y12056D01*
G01X3603Y12053D01*
G01X3607Y12050D01*
G01X3611Y12048D01*
G01X3615Y12046D01*
G01X3618Y12043D01*
G01X3622Y12041D01*
G01X3627Y12040D01*
G01X3631Y12038D01*
G01X3635Y12036D01*
G01X3639Y12035D01*
G01X3643Y12034D01*
G01X3648Y12033D01*
G01X3652Y12032D01*
G01X3657Y12031D01*
G01X3661Y12030D01*
G01X3666Y12030D01*
G01X3670Y12030D01*
G01X3675Y12030D01*
G01X3925Y12030D01*
G01X3929Y12030D01*
G01X3933Y12030D01*
G01X3938Y12030D01*
G01X3942Y12031D01*
G01X3947Y12032D01*
G01X3951Y12033D01*
G01X3956Y12034D01*
G01X3960Y12035D01*
G01X3964Y12036D01*
G01X3968Y12038D01*
G01X3972Y12040D01*
G01X3977Y12041D01*
G01X3981Y12043D01*
G01X3984Y12046D01*
G01X3988Y12048D01*
G01X3990Y12049D01*
G01X3991Y12048D01*
G01X3994Y12046D01*
G01X3998Y12043D01*
G01X4002Y12041D01*
G01X4007Y12040D01*
G01X4009Y12038D01*
G01X4009Y11869D01*
G01X3999Y11886D01*
G01X3985Y11905D01*
G01X3968Y11923D01*
G01X3950Y11939D01*
G01X3931Y11953D01*
G01X3910Y11965D01*
G01X3888Y11975D01*
G01X3865Y11982D01*
G01X3842Y11988D01*
G01X3818Y11991D01*
G01X3793Y11991D01*
G01X3769Y11990D01*
G01X3746Y11985D01*
G01X3722Y11979D01*
G01X3700Y11970D01*
G01X3678Y11959D01*
G01X3658Y11946D01*
G01X3639Y11931D01*
G01X3622Y11914D01*
G01X3607Y11896D01*
G01X3593Y11876D01*
G01X3581Y11855D01*
G01X3572Y11832D01*
G01X3565Y11809D01*
G01X3560Y11786D01*
G01X3558Y11762D01*
G01X3558Y11737D01*
G01X3560Y11713D01*
G01X3565Y11690D01*
G01X3572Y11667D01*
G01X3581Y11644D01*
G01X3588Y11633D01*
G01X3587Y11631D01*
G01X3584Y11628D01*
G01X3581Y11624D01*
G01X3578Y11621D01*
G01X3575Y11617D01*
G01X3573Y11613D01*
G01X3571Y11609D01*
G01X3568Y11606D01*
G01X3566Y11602D01*
G01X3565Y11597D01*
G01X3563Y11593D01*
G01X3561Y11589D01*
G01X3560Y11585D01*
G01X3559Y11581D01*
G01X3558Y11576D01*
G01X3557Y11572D01*
G01X3556Y11567D01*
G01X3555Y11563D01*
G01X3555Y11558D01*
G01X3555Y11554D01*
G01X3555Y11550D01*
G01X3555Y11050D01*
G01X3555Y11045D01*
G01X3555Y11041D01*
G01X3555Y11036D01*
G01X3556Y11032D01*
G01X3557Y11027D01*
G01X3558Y11023D01*
G01X3559Y11018D01*
G01X3560Y11014D01*
G01X3561Y11010D01*
G01X3563Y11006D01*
G01X3565Y11002D01*
G01X3566Y10997D01*
G01X3568Y10993D01*
G01X3571Y10990D01*
G01X3573Y10986D01*
G01X3575Y10982D01*
G01X3578Y10978D01*
G01X3581Y10975D01*
G01X3584Y10971D01*
G01X3587Y10968D01*
G01X3590Y10965D01*
G01X3593Y10962D01*
G01X3596Y10959D01*
G01X3600Y10956D01*
G01X3603Y10953D01*
G01X3607Y10950D01*
G01X3611Y10948D01*
G01X3615Y10946D01*
G01X3618Y10943D01*
G01X3622Y10941D01*
G01X3627Y10940D01*
G01X3631Y10938D01*
G01X3635Y10936D01*
G01X3639Y10935D01*
G01X3643Y10934D01*
G01X3648Y10933D01*
G01X3652Y10932D01*
G01X3657Y10931D01*
G01X3661Y10930D01*
G01X3666Y10930D01*
G01X3670Y10930D01*
G01X3675Y10930D01*
G01X3925Y10930D01*
G01X3929Y10930D01*
G01X3933Y10930D01*
G01X3938Y10930D01*
G01X3942Y10931D01*
G01X3947Y10932D01*
G01X3951Y10933D01*
G01X3956Y10934D01*
G01X3960Y10935D01*
G01X3964Y10936D01*
G01X3968Y10938D01*
G01X3972Y10940D01*
G01X3977Y10941D01*
G01X3981Y10943D01*
G01X3984Y10946D01*
G01X3988Y10948D01*
G01X3990Y10949D01*
G01X3991Y10948D01*
G01X3994Y10946D01*
G01X3998Y10943D01*
G01X4002Y10941D01*
G01X4007Y10940D01*
G01X4009Y10938D01*
G01X4009Y10769D01*
G01X3999Y10786D01*
G01X3985Y10805D01*
G01X3968Y10823D01*
G01X3950Y10839D01*
G01X3931Y10853D01*
G01X3910Y10865D01*
G01X3888Y10875D01*
G01X3865Y10882D01*
G01X3842Y10888D01*
G01X3818Y10891D01*
G01X3793Y10891D01*
G01X3769Y10890D01*
G01X3746Y10885D01*
G01X3722Y10879D01*
G01X3700Y10870D01*
G01X3678Y10859D01*
G01X3658Y10846D01*
G01X3639Y10831D01*
G01X3622Y10814D01*
G01X3607Y10796D01*
G01X3593Y10776D01*
G01X3581Y10755D01*
G01X3572Y10732D01*
G01X3565Y10709D01*
G01X3560Y10686D01*
G01X3558Y10662D01*
G01X3558Y10637D01*
G01X3560Y10613D01*
G01X3565Y10590D01*
G01X3572Y10567D01*
G01X3581Y10544D01*
G01X3588Y10533D01*
G01X3587Y10531D01*
G01X3584Y10528D01*
G01X3581Y10524D01*
G01X3578Y10521D01*
G01X3575Y10517D01*
G01X3573Y10513D01*
G01X3571Y10509D01*
G01X3568Y10506D01*
G01X3566Y10502D01*
G01X3565Y10497D01*
G01X3563Y10493D01*
G01X3561Y10489D01*
G01X3560Y10485D01*
G01X3559Y10481D01*
G01X3558Y10476D01*
G01X3557Y10472D01*
G01X3556Y10467D01*
G01X3555Y10463D01*
G01X3555Y10458D01*
G01X3555Y10454D01*
G01X3555Y10450D01*
G01X3555Y9950D01*
G01X3555Y9945D01*
G01X3555Y9941D01*
G01X3555Y9936D01*
G01X3556Y9932D01*
G01X3557Y9927D01*
G01X3558Y9923D01*
G01X3559Y9918D01*
G01X3560Y9914D01*
G01X3561Y9910D01*
G01X3563Y9906D01*
G01X3565Y9902D01*
G01X3566Y9897D01*
G01X3568Y9893D01*
G01X3571Y9890D01*
G01X3573Y9886D01*
G01X3575Y9882D01*
G01X3578Y9878D01*
G01X3581Y9875D01*
G01X3584Y9871D01*
G01X3587Y9868D01*
G01X3590Y9865D01*
G01X3593Y9862D01*
G01X3596Y9859D01*
G01X3600Y9856D01*
G01X3603Y9853D01*
G01X3607Y9850D01*
G01X3611Y9848D01*
G01X3615Y9846D01*
G01X3618Y9843D01*
G01X3622Y9841D01*
G01X3627Y9840D01*
G01X3631Y9838D01*
G01X3635Y9836D01*
G01X3639Y9835D01*
G01X3643Y9834D01*
G01X3648Y9833D01*
G01X3652Y9832D01*
G01X3657Y9831D01*
G01X3661Y9830D01*
G01X3666Y9830D01*
G01X3670Y9830D01*
G01X3675Y9830D01*
G01X3925Y9830D01*
G01X3929Y9830D01*
G01X3933Y9830D01*
G01X3938Y9830D01*
G01X3942Y9831D01*
G01X3947Y9832D01*
G01X3951Y9833D01*
G01X3956Y9834D01*
G01X3960Y9835D01*
G01X3964Y9836D01*
G01X3968Y9838D01*
G01X3972Y9840D01*
G01X3977Y9841D01*
G01X3981Y9843D01*
G01X3984Y9846D01*
G01X3988Y9848D01*
G01X3990Y9849D01*
G01X3991Y9848D01*
G01X3994Y9846D01*
G01X3998Y9843D01*
G01X4002Y9841D01*
G01X4007Y9840D01*
G01X4009Y9838D01*
G01X4009Y9669D01*
G01X3999Y9686D01*
G01X3985Y9705D01*
G01X3968Y9723D01*
G01X3950Y9739D01*
G01X3931Y9753D01*
G01X3910Y9765D01*
G01X3888Y9775D01*
G01X3865Y9782D01*
G01X3842Y9788D01*
G01X3818Y9791D01*
G01X3793Y9791D01*
G01X3769Y9790D01*
G01X3746Y9785D01*
G01X3722Y9779D01*
G01X3700Y9770D01*
G01X3678Y9759D01*
G01X3658Y9746D01*
G01X3639Y9731D01*
G01X3622Y9714D01*
G01X3607Y9696D01*
G01X3593Y9676D01*
G01X3581Y9655D01*
G01X3572Y9632D01*
G01X3565Y9609D01*
G01X3560Y9586D01*
G01X3558Y9562D01*
G01X3558Y9537D01*
G01X3560Y9513D01*
G01X3565Y9490D01*
G01X3572Y9467D01*
G01X3581Y9444D01*
G01X3588Y9433D01*
G01X3587Y9431D01*
G01X3584Y9428D01*
G01X3581Y9424D01*
G01X3578Y9421D01*
G01X3575Y9417D01*
G01X3573Y9413D01*
G01X3571Y9409D01*
G01X3568Y9406D01*
G01X3566Y9402D01*
G01X3565Y9397D01*
G01X3563Y9393D01*
G01X3561Y9389D01*
G01X3560Y9385D01*
G01X3559Y9381D01*
G01X3558Y9376D01*
G01X3557Y9372D01*
G01X3556Y9367D01*
G01X3555Y9363D01*
G01X3555Y9358D01*
G01X3555Y9354D01*
G01X3555Y9350D01*
G01X3555Y8850D01*
G01X3555Y8845D01*
G01X3555Y8841D01*
G01X3555Y8836D01*
G01X3556Y8832D01*
G01X3557Y8827D01*
G01X3558Y8823D01*
G01X3559Y8818D01*
G01X3560Y8814D01*
G01X3561Y8810D01*
G01X3563Y8806D01*
G01X3565Y8802D01*
G01X3566Y8797D01*
G01X3568Y8793D01*
G01X3571Y8790D01*
G01X3573Y8786D01*
G01X3575Y8782D01*
G01X3578Y8778D01*
G01X3581Y8775D01*
G01X3584Y8771D01*
G01X3587Y8768D01*
G01X3590Y8765D01*
G01X3593Y8762D01*
G01X3596Y8759D01*
G01X3600Y8756D01*
G01X3603Y8753D01*
G01X3607Y8750D01*
G01X3611Y8748D01*
G01X3615Y8746D01*
G01X3618Y8743D01*
G01X3622Y8741D01*
G01X3627Y8740D01*
G01X3631Y8738D01*
G01X3635Y8736D01*
G01X3639Y8735D01*
G01X3643Y8734D01*
G01X3648Y8733D01*
G01X3652Y8732D01*
G01X3657Y8731D01*
G01X3661Y8730D01*
G01X3666Y8730D01*
G01X3670Y8730D01*
G01X3675Y8730D01*
G01X3925Y8730D01*
G01X3929Y8730D01*
G01X3933Y8730D01*
G01X3938Y8730D01*
G01X3942Y8731D01*
G01X3947Y8732D01*
G01X3951Y8733D01*
G01X3956Y8734D01*
G01X3960Y8735D01*
G01X3964Y8736D01*
G01X3968Y8738D01*
G01X3972Y8740D01*
G01X3977Y8741D01*
G01X3981Y8743D01*
G01X3984Y8746D01*
G01X3988Y8748D01*
G01X3990Y8749D01*
G01X3991Y8748D01*
G01X3994Y8746D01*
G01X3998Y8743D01*
G01X4002Y8741D01*
G01X4007Y8740D01*
G01X4011Y8738D01*
G01X4015Y8736D01*
G01X4019Y8735D01*
G01X4023Y8734D01*
G01X4028Y8733D01*
G01X4030Y8732D01*
G01X4030Y7570D01*
G01X3901Y7441D01*
G01X3893Y7441D01*
G01X3869Y7440D01*
G01X3846Y7435D01*
G01X3822Y7429D01*
G01X3800Y7420D01*
G01X3778Y7409D01*
G01X3758Y7396D01*
G01X3739Y7381D01*
G01X3722Y7364D01*
G01X3707Y7346D01*
G01X3693Y7326D01*
G01X3681Y7305D01*
G01X3672Y7282D01*
G01X3665Y7259D01*
G01X3660Y7236D01*
G01X3658Y7212D01*
G01X3658Y7187D01*
G01X3660Y7163D01*
G01X3665Y7140D01*
G01X3672Y7117D01*
G01X3677Y7105D01*
G01X3660Y7115D01*
G01X3638Y7125D01*
G01X3615Y7132D01*
G01X3592Y7138D01*
G01X3568Y7141D01*
G01X3543Y7141D01*
G01X3519Y7140D01*
G01X3496Y7135D01*
G01X3472Y7129D01*
G01X3450Y7120D01*
G01X3428Y7109D01*
G01X3408Y7096D01*
G01X3389Y7081D01*
G01X3372Y7064D01*
G01X3357Y7046D01*
G01X3343Y7026D01*
G01X3331Y7005D01*
G01X3322Y6982D01*
G01X3315Y6959D01*
G01X3310Y6936D01*
G01X3308Y6912D01*
G01X3308Y6887D01*
G01X3310Y6863D01*
G01X3315Y6840D01*
G01X3322Y6817D01*
G01X3331Y6794D01*
G01X3343Y6773D01*
G01X3357Y6753D01*
G01X3372Y6735D01*
G01X3389Y6718D01*
G01X3408Y6703D01*
G01X3428Y6690D01*
G01X3450Y6679D01*
G01X3472Y6670D01*
G01X3496Y6664D01*
G01X3519Y6659D01*
G01X3543Y6658D01*
G01X3568Y6658D01*
G01X3592Y6661D01*
G01X3615Y6667D01*
G01X3638Y6674D01*
G01X3660Y6684D01*
G01X3681Y6696D01*
G01X3700Y6710D01*
G01X3718Y6726D01*
G01X3721Y6730D01*
G01X4000Y6730D01*
G01X4005Y6730D01*
G01X4011Y6730D01*
G01X4016Y6730D01*
G01X4022Y6731D01*
G01X4027Y6732D01*
G01X4033Y6733D01*
G01X4038Y6734D01*
G01X4044Y6735D01*
G01X4049Y6737D01*
G01X4054Y6739D01*
G01X4059Y6740D01*
G01X4065Y6742D01*
G01X4070Y6745D01*
G01X4075Y6747D01*
G01X4080Y6750D01*
G01X4084Y6752D01*
G01X4089Y6755D01*
G01X4094Y6758D01*
G01X4099Y6761D01*
G01X4103Y6765D01*
G01X4107Y6768D01*
G01X4112Y6772D01*
G01X4116Y6775D01*
G01X4120Y6779D01*
G01X4520Y7179D01*
G01X4524Y7183D01*
G01X4527Y7187D01*
G01X4531Y7192D01*
G01X4534Y7196D01*
G01X4538Y7200D01*
G01X4541Y7205D01*
G01X4544Y7210D01*
G01X4547Y7215D01*
G01X4549Y7219D01*
G01X4552Y7224D01*
G01X4554Y7229D01*
G01X4557Y7234D01*
G01X4559Y7240D01*
G01X4560Y7245D01*
G01X4562Y7250D01*
G01X4564Y7255D01*
G01X4565Y7261D01*
G01X4566Y7266D01*
G01X4567Y7272D01*
G01X4568Y7277D01*
G01X4569Y7283D01*
G01X4569Y7288D01*
G01X4569Y7294D01*
G01X4569Y7300D01*
G01X4569Y8429D01*
G01X4570Y8430D01*
G01X5550Y8430D01*
G01X5555Y8430D01*
G01X5561Y8430D01*
G01X5566Y8430D01*
G01X5572Y8431D01*
G01X5577Y8432D01*
G01X5583Y8433D01*
G01X5588Y8434D01*
G01X5594Y8435D01*
G01X5599Y8437D01*
G01X5604Y8439D01*
G01X5609Y8440D01*
G01X5615Y8442D01*
G01X5620Y8445D01*
G01X5625Y8447D01*
G01X5630Y8450D01*
G01X5634Y8452D01*
G01X5639Y8455D01*
G01X5644Y8458D01*
G01X5649Y8461D01*
G01X5653Y8465D01*
G01X5657Y8468D01*
G01X5662Y8472D01*
G01X5666Y8475D01*
G01X5670Y8479D01*
G01X5770Y8579D01*
G01X5774Y8583D01*
G01X5777Y8587D01*
G01X5781Y8592D01*
G01X5784Y8596D01*
G01X5788Y8600D01*
G01X5791Y8605D01*
G01X5794Y8610D01*
G01X5797Y8615D01*
G01X5799Y8619D01*
G01X5802Y8624D01*
G01X5804Y8629D01*
G01X5807Y8634D01*
G01X5809Y8640D01*
G01X5810Y8645D01*
G01X5812Y8650D01*
G01X5814Y8655D01*
G01X5815Y8661D01*
G01X5816Y8666D01*
G01X5817Y8672D01*
G01X5818Y8677D01*
G01X5819Y8683D01*
G01X5819Y8688D01*
G01X5819Y8694D01*
G01X5819Y8700D01*
G01X5819Y8749D01*
G01X5822Y8750D01*
G01X5826Y8753D01*
G01X5829Y8756D01*
G01X5833Y8759D01*
G01X5836Y8762D01*
G01X5839Y8765D01*
G01X5842Y8768D01*
G01X5845Y8771D01*
G01X5848Y8775D01*
G01X5851Y8778D01*
G01X5854Y8782D01*
G01X5856Y8786D01*
G01X5858Y8790D01*
G01X5861Y8793D01*
G01X5863Y8797D01*
G01X5864Y8802D01*
G01X5866Y8806D01*
G01X5868Y8810D01*
G01X5869Y8814D01*
G01X5870Y8818D01*
G01X5871Y8823D01*
G01X5872Y8827D01*
G01X5873Y8832D01*
G01X5874Y8836D01*
G01X5874Y8841D01*
G01X5874Y8845D01*
G01X5875Y8850D01*
G01X5875Y9350D01*
G01X5874Y9354D01*
G01X5874Y9358D01*
G01X5874Y9363D01*
G01X5873Y9367D01*
G01X5872Y9372D01*
G01X5871Y9376D01*
G01X5870Y9381D01*
G01X5869Y9385D01*
G01X5868Y9389D01*
G01X5866Y9393D01*
G01X5864Y9397D01*
G01X5863Y9402D01*
G01X5861Y9406D01*
G01X5858Y9409D01*
G01X5856Y9413D01*
G01X5854Y9417D01*
G01X5851Y9421D01*
G01X5848Y9424D01*
G01X5845Y9428D01*
G01X5842Y9431D01*
G01X5839Y9434D01*
G01X5836Y9437D01*
G01X5833Y9440D01*
G01X5829Y9443D01*
G01X5826Y9446D01*
G01X5822Y9449D01*
G01X5818Y9451D01*
G01X5815Y9453D01*
G01X5811Y9456D01*
G01X5807Y9458D01*
G01X5802Y9459D01*
G01X5800Y9461D01*
G01X5800Y9838D01*
G01X5802Y9840D01*
G01X5807Y9841D01*
G01X5811Y9843D01*
G01X5815Y9846D01*
G01X5818Y9848D01*
G01X5822Y9850D01*
G01X5826Y9853D01*
G01X5829Y9856D01*
G01X5833Y9859D01*
G01X5836Y9862D01*
G01X5839Y9865D01*
G01X5842Y9868D01*
G01X5845Y9871D01*
G01X5848Y9875D01*
G01X5851Y9878D01*
G01X5854Y9882D01*
G01X5856Y9886D01*
G01X5858Y9890D01*
G01X5861Y9893D01*
G01X5863Y9897D01*
G01X5864Y9902D01*
G01X5866Y9906D01*
G01X5868Y9910D01*
G01X5869Y9914D01*
G01X5870Y9918D01*
G01X5871Y9923D01*
G01X5872Y9927D01*
G01X5873Y9932D01*
G01X5874Y9936D01*
G01X5874Y9941D01*
G01X5874Y9945D01*
G01X5875Y9950D01*
G01X5875Y10450D01*
G01X5874Y10454D01*
G01X5874Y10458D01*
G01X5874Y10463D01*
G01X5873Y10467D01*
G01X5872Y10472D01*
G01X5871Y10476D01*
G01X5870Y10481D01*
G01X5869Y10485D01*
G01X5868Y10489D01*
G01X5866Y10493D01*
G01X5864Y10497D01*
G01X5863Y10502D01*
G01X5861Y10506D01*
G01X5858Y10509D01*
G01X5856Y10513D01*
G01X5854Y10517D01*
G01X5851Y10521D01*
G01X5848Y10524D01*
G01X5845Y10528D01*
G01X5842Y10531D01*
G01X5839Y10534D01*
G01X5836Y10537D01*
G01X5833Y10540D01*
G01X5829Y10543D01*
G01X5826Y10546D01*
G01X5822Y10549D01*
G01X5818Y10551D01*
G01X5815Y10553D01*
G01X5811Y10556D01*
G01X5807Y10558D01*
G01X5802Y10559D01*
G01X5800Y10561D01*
G01X5800Y10938D01*
G01X5802Y10940D01*
G01X5807Y10941D01*
G01X5811Y10943D01*
G01X5815Y10946D01*
G01X5818Y10948D01*
G01X5822Y10950D01*
G01X5826Y10953D01*
G01X5829Y10956D01*
G01X5833Y10959D01*
G01X5836Y10962D01*
G01X5839Y10965D01*
G01X5842Y10968D01*
G01X5845Y10971D01*
G01X5848Y10975D01*
G01X5851Y10978D01*
G01X5854Y10982D01*
G01X5856Y10986D01*
G01X5858Y10990D01*
G01X5861Y10993D01*
G01X5863Y10997D01*
G01X5864Y11002D01*
G01X5866Y11006D01*
G01X5868Y11010D01*
G01X5869Y11014D01*
G01X5870Y11018D01*
G01X5871Y11023D01*
G01X5872Y11027D01*
G01X5873Y11032D01*
G01X5874Y11036D01*
G01X5874Y11041D01*
G01X5874Y11045D01*
G01X5875Y11050D01*
G01X5875Y11550D01*
G01X5874Y11554D01*
G01X5874Y11558D01*
G01X5874Y11563D01*
G01X5873Y11567D01*
G01X5872Y11572D01*
G01X5871Y11576D01*
G01X5870Y11581D01*
G01X5869Y11585D01*
G01X5868Y11589D01*
G01X5866Y11593D01*
G01X5864Y11597D01*
G01X5863Y11602D01*
G01X5861Y11606D01*
G01X5858Y11609D01*
G01X5856Y11613D01*
G01X5854Y11617D01*
G01X5851Y11621D01*
G01X5848Y11624D01*
G01X5845Y11628D01*
G01X5842Y11631D01*
G01X5839Y11634D01*
G01X5836Y11637D01*
G01X5833Y11640D01*
G01X5829Y11643D01*
G01X5826Y11646D01*
G01X5822Y11649D01*
G01X5818Y11651D01*
G01X5815Y11653D01*
G01X5815Y12056D01*
G01X5817Y12058D01*
G01X5822Y12059D01*
G01X5826Y12061D01*
G01X5830Y12064D01*
G01X5833Y12066D01*
G01X5837Y12068D01*
G01X5841Y12071D01*
G01X5844Y12074D01*
G01X5848Y12077D01*
G01X5851Y12080D01*
G01X5854Y12083D01*
G01X5857Y12086D01*
G01X5860Y12089D01*
G01X5863Y12093D01*
G01X5866Y12096D01*
G01X5869Y12100D01*
G01X5871Y12104D01*
G01X5873Y12107D01*
G01X5876Y12111D01*
G01X5878Y12115D01*
G01X5879Y12120D01*
G01X5881Y12124D01*
G01X5883Y12128D01*
G01X5884Y12132D01*
G01X5885Y12136D01*
G01X5886Y12141D01*
G01X5887Y12145D01*
G01X5888Y12150D01*
G01X5889Y12154D01*
G01X5889Y12159D01*
G01X5889Y12163D01*
G01X5890Y12167D01*
G01X5890Y12667D01*
G01X5889Y12672D01*
G01X5889Y12676D01*
G01X5889Y12681D01*
G01X5888Y12685D01*
G01X5887Y12690D01*
G01X5886Y12694D01*
G01X5885Y12699D01*
G01X5884Y12703D01*
G01X5883Y12707D01*
G01X5881Y12711D01*
G01X5879Y12715D01*
G01X5878Y12720D01*
G01X5876Y12724D01*
G01X5873Y12728D01*
G01X5871Y12731D01*
G01X5869Y12735D01*
G01X5866Y12739D01*
G01X5863Y12742D01*
G01X5860Y12746D01*
G01X5857Y12749D01*
G01X5854Y12752D01*
G01X5851Y12755D01*
G01X5848Y12758D01*
G01X5844Y12761D01*
G01X5841Y12764D01*
G01X5837Y12767D01*
G01X5833Y12769D01*
G01X5830Y12771D01*
G01X5826Y12774D01*
G01X5822Y12776D01*
G01X5817Y12777D01*
G01X5815Y12779D01*
G01X5815Y13663D01*
G01X5852Y13663D01*
G01X5857Y13663D01*
G01X5861Y13663D01*
G01X5866Y13664D01*
G01X5870Y13664D01*
G01X5875Y13665D01*
G01X5879Y13666D01*
G01X5883Y13667D01*
G01X5888Y13668D01*
G01X5892Y13670D01*
G01X5896Y13671D01*
G01X5900Y13673D01*
G01X5904Y13675D01*
G01X5908Y13677D01*
G01X5912Y13679D01*
G01X5916Y13681D01*
G01X5920Y13684D01*
G01X5924Y13687D01*
G01X5927Y13689D01*
G01X5931Y13692D01*
G01X5934Y13695D01*
G01X5937Y13698D01*
G01X5940Y13701D01*
G01X5943Y13705D01*
G01X5946Y13708D01*
G01X5949Y13712D01*
G01X5952Y13715D01*
G01X5954Y13719D01*
G01X5956Y13723D01*
G01X5958Y13727D01*
G01X5961Y13731D01*
G01X5962Y13735D01*
G01X5964Y13739D01*
G01X5966Y13743D01*
G01X5967Y13748D01*
G01X5968Y13752D01*
G01X5969Y13756D01*
G01X5970Y13761D01*
G01X5970Y13762D01*
G01X5971Y13761D01*
G01X5972Y13756D01*
G01X5973Y13752D01*
G01X5974Y13748D01*
G01X5975Y13743D01*
G01X5977Y13739D01*
G01X5979Y13735D01*
G01X5980Y13731D01*
G01X5982Y13727D01*
G01X5985Y13723D01*
G01X5987Y13719D01*
G01X5989Y13715D01*
G01X5992Y13712D01*
G01X5995Y13708D01*
G01X5998Y13705D01*
G01X6001Y13701D01*
G01X6004Y13698D01*
G01X6007Y13695D01*
G01X6010Y13692D01*
G01X6014Y13689D01*
G01X6017Y13687D01*
G01X6021Y13684D01*
G01X6025Y13681D01*
G01X6028Y13679D01*
G01X6032Y13677D01*
G01X6036Y13675D01*
G01X6041Y13673D01*
G01X6045Y13671D01*
G01X6049Y13670D01*
G01X6053Y13668D01*
G01X6057Y13667D01*
G01X6062Y13666D01*
G01X6066Y13665D01*
G01X6071Y13664D01*
G01X6075Y13664D01*
G01X6080Y13663D01*
G01X6084Y13663D01*
G01X6088Y13663D01*
G01X6482Y13663D01*
G01X6487Y13663D01*
G01X6491Y13663D01*
G01X6496Y13664D01*
G01X6500Y13664D01*
G01X6505Y13665D01*
G01X6509Y13666D01*
G01X6513Y13667D01*
G01X6518Y13668D01*
G01X6522Y13670D01*
G01X6526Y13671D01*
G01X6530Y13673D01*
G01X6534Y13675D01*
G01X6538Y13677D01*
G01X6542Y13679D01*
G01X6546Y13681D01*
G01X6550Y13684D01*
G01X6553Y13687D01*
G01X6557Y13689D01*
G01X6560Y13692D01*
G01X6564Y13695D01*
G01X6567Y13698D01*
G01X6570Y13701D01*
G01X6573Y13705D01*
G01X6576Y13708D01*
G01X6579Y13712D01*
G01X6581Y13715D01*
G01X6584Y13719D01*
G01X6586Y13723D01*
G01X6588Y13727D01*
G01X6590Y13731D01*
G01X6592Y13735D01*
G01X6594Y13739D01*
G01X6595Y13743D01*
G01X6597Y13748D01*
G01X6598Y13752D01*
G01X6599Y13756D01*
G01X6600Y13761D01*
G01X6601Y13765D01*
G01X6601Y13770D01*
G01X6602Y13774D01*
G01X6602Y13779D01*
G01X6602Y13783D01*
G01X6602Y14216D01*
G01X6602Y14221D01*
G01X6602Y14225D01*
G01X6601Y14230D01*
G01X6601Y14234D01*
G01X6600Y14238D01*
G01X6599Y14243D01*
G01X6598Y14247D01*
G01X6597Y14251D01*
G01X6595Y14256D01*
G01X6594Y14260D01*
G01X6592Y14264D01*
G01X6590Y14268D01*
G01X6588Y14272D01*
G01X6586Y14276D01*
G01X6584Y14280D01*
G01X6892Y14280D01*
G01X6892Y13044D01*
G01X6881Y13053D01*
G01X6860Y13065D01*
G01X6838Y13075D01*
G01X6815Y13082D01*
G01X6792Y13088D01*
G01X6768Y13091D01*
G01X6743Y13091D01*
G01X6719Y13090D01*
G01X6696Y13085D01*
G01X6672Y13079D01*
G01X6650Y13070D01*
G01X6628Y13059D01*
G01X6608Y13046D01*
G01X6589Y13031D01*
G01X6572Y13014D01*
G01X6557Y12996D01*
G01X6543Y12976D01*
G01X6531Y12955D01*
G01X6522Y12932D01*
G01X6515Y12909D01*
G01X6510Y12886D01*
G01X6508Y12862D01*
G01X6508Y12837D01*
G01X6510Y12813D01*
G01X6515Y12790D01*
G01X6522Y12767D01*
G01X6527Y12756D01*
G01X6526Y12755D01*
G01X6523Y12752D01*
G01X6520Y12749D01*
G01X6517Y12746D01*
G01X6514Y12742D01*
G01X6511Y12739D01*
G01X6508Y12735D01*
G01X6506Y12731D01*
G01X6504Y12728D01*
G01X6501Y12724D01*
G01X6499Y12720D01*
G01X6498Y12715D01*
G01X6496Y12711D01*
G01X6494Y12707D01*
G01X6493Y12703D01*
G01X6492Y12699D01*
G01X6491Y12694D01*
G01X6490Y12690D01*
G01X6489Y12685D01*
G01X6488Y12681D01*
G01X6488Y12676D01*
G01X6488Y12672D01*
G01X6488Y12667D01*
G01X6488Y12167D01*
G01X6488Y12163D01*
G01X6488Y12159D01*
G01X6488Y12154D01*
G01X6489Y12150D01*
G01X6490Y12145D01*
G01X6491Y12141D01*
G01X6492Y12136D01*
G01X6493Y12132D01*
G01X6494Y12128D01*
G01X6496Y12124D01*
G01X6498Y12120D01*
G01X6499Y12115D01*
G01X6501Y12111D01*
G01X6504Y12107D01*
G01X6506Y12104D01*
G01X6508Y12100D01*
G01X6511Y12096D01*
G01X6514Y12093D01*
G01X6517Y12089D01*
G01X6520Y12086D01*
G01X6523Y12083D01*
G01X6526Y12080D01*
G01X6529Y12077D01*
G01X6533Y12074D01*
G01X6536Y12071D01*
G01X6540Y12068D01*
G01X6544Y12066D01*
G01X6548Y12064D01*
G01X6551Y12061D01*
G01X6555Y12059D01*
G01X6560Y12058D01*
G01X6564Y12056D01*
G01X6568Y12054D01*
G01X6572Y12053D01*
G01X6576Y12052D01*
G01X6581Y12051D01*
G01X6585Y12050D01*
G01X6590Y12049D01*
G01X6594Y12048D01*
G01X6599Y12048D01*
G01X6603Y12048D01*
G01X6607Y12048D01*
G01X6857Y12048D01*
G01X6862Y12048D01*
G01X6866Y12048D01*
G01X6871Y12048D01*
G01X6875Y12049D01*
G01X6880Y12050D01*
G01X6884Y12051D01*
G01X6889Y12052D01*
G01X6892Y12053D01*
G01X6892Y11944D01*
G01X6881Y11953D01*
G01X6860Y11965D01*
G01X6838Y11975D01*
G01X6815Y11982D01*
G01X6792Y11988D01*
G01X6768Y11991D01*
G01X6743Y11991D01*
G01X6719Y11990D01*
G01X6696Y11985D01*
G01X6672Y11979D01*
G01X6650Y11970D01*
G01X6628Y11959D01*
G01X6608Y11946D01*
G01X6589Y11931D01*
G01X6572Y11914D01*
G01X6557Y11896D01*
G01X6543Y11876D01*
G01X6531Y11855D01*
G01X6522Y11832D01*
G01X6515Y11809D01*
G01X6510Y11786D01*
G01X6508Y11762D01*
G01X6508Y11737D01*
G01X6510Y11713D01*
G01X6515Y11690D01*
G01X6522Y11667D01*
G01X6531Y11644D01*
G01X6538Y11633D01*
G01X6537Y11631D01*
G01X6534Y11628D01*
G01X6531Y11624D01*
G01X6528Y11621D01*
G01X6525Y11617D01*
G01X6523Y11613D01*
G01X6521Y11609D01*
G01X6518Y11606D01*
G01X6516Y11602D01*
G01X6515Y11597D01*
G01X6513Y11593D01*
G01X6511Y11589D01*
G01X6510Y11585D01*
G01X6509Y11581D01*
G01X6508Y11576D01*
G01X6507Y11572D01*
G01X6506Y11567D01*
G01X6505Y11563D01*
G01X6505Y11558D01*
G01X6505Y11554D01*
G01X6505Y11550D01*
G01X6505Y11050D01*
G01X6505Y11045D01*
G01X6505Y11041D01*
G01X6505Y11036D01*
G01X6506Y11032D01*
G01X6507Y11027D01*
G01X6508Y11023D01*
G01X6509Y11018D01*
G01X6510Y11014D01*
G01X6511Y11010D01*
G01X6513Y11006D01*
G01X6515Y11002D01*
G01X6516Y10997D01*
G01X6518Y10993D01*
G01X6521Y10990D01*
G01X6523Y10986D01*
G01X6525Y10982D01*
G01X6528Y10978D01*
G01X6531Y10975D01*
G01X6534Y10971D01*
G01X6537Y10968D01*
G01X6540Y10965D01*
G01X6543Y10962D01*
G01X6546Y10959D01*
G01X6550Y10956D01*
G01X6553Y10953D01*
G01X6557Y10950D01*
G01X6561Y10948D01*
G01X6565Y10946D01*
G01X6568Y10943D01*
G01X6572Y10941D01*
G01X6577Y10940D01*
G01X6581Y10938D01*
G01X6585Y10936D01*
G01X6589Y10935D01*
G01X6593Y10934D01*
G01X6598Y10933D01*
G01X6602Y10932D01*
G01X6607Y10931D01*
G01X6611Y10930D01*
G01X6616Y10930D01*
G01X6620Y10930D01*
G01X6625Y10930D01*
G01X6875Y10930D01*
G01X6879Y10930D01*
G01X6883Y10930D01*
G01X6888Y10930D01*
G01X6892Y10931D01*
G01X6897Y10932D01*
G01X6901Y10933D01*
G01X6906Y10934D01*
G01X6909Y10935D01*
G01X6909Y10831D01*
G01X6900Y10839D01*
G01X6881Y10853D01*
G01X6860Y10865D01*
G01X6838Y10875D01*
G01X6815Y10882D01*
G01X6792Y10888D01*
G01X6768Y10891D01*
G01X6743Y10891D01*
G01X6719Y10890D01*
G01X6696Y10885D01*
G01X6672Y10879D01*
G01X6650Y10870D01*
G01X6628Y10859D01*
G01X6608Y10846D01*
G01X6589Y10831D01*
G01X6572Y10814D01*
G01X6557Y10796D01*
G01X6543Y10776D01*
G01X6531Y10755D01*
G01X6522Y10732D01*
G01X6515Y10709D01*
G01X6510Y10686D01*
G01X6508Y10662D01*
G01X6508Y10637D01*
G01X6510Y10613D01*
G01X6515Y10590D01*
G01X6522Y10567D01*
G01X6531Y10544D01*
G01X6538Y10533D01*
G01X6537Y10531D01*
G01X6534Y10528D01*
G01X6531Y10524D01*
G01X6528Y10521D01*
G01X6525Y10517D01*
G01X6523Y10513D01*
G01X6521Y10509D01*
G01X6518Y10506D01*
G01X6516Y10502D01*
G01X6515Y10497D01*
G01X6513Y10493D01*
G01X6511Y10489D01*
G01X6510Y10485D01*
G01X6509Y10481D01*
G01X6508Y10476D01*
G01X6507Y10472D01*
G01X6506Y10467D01*
G01X6505Y10463D01*
G01X6505Y10458D01*
G01X6505Y10454D01*
G01X6505Y10450D01*
G01X6505Y9950D01*
G01X6505Y9945D01*
G01X6505Y9941D01*
G01X6505Y9936D01*
G01X6506Y9932D01*
G01X6507Y9927D01*
G01X6508Y9923D01*
G01X6509Y9918D01*
G01X6510Y9914D01*
G01X6511Y9910D01*
G01X6513Y9906D01*
G01X6515Y9902D01*
G01X6516Y9897D01*
G01X6518Y9893D01*
G01X6521Y9890D01*
G01X6523Y9886D01*
G01X6525Y9882D01*
G01X6528Y9878D01*
G01X6531Y9875D01*
G01X6534Y9871D01*
G01X6537Y9868D01*
G01X6540Y9865D01*
G01X6543Y9862D01*
G01X6546Y9859D01*
G01X6550Y9856D01*
G01X6553Y9853D01*
G01X6557Y9850D01*
G01X6561Y9848D01*
G01X6565Y9846D01*
G01X6568Y9843D01*
G01X6572Y9841D01*
G01X6577Y9840D01*
G01X6581Y9838D01*
G01X6585Y9836D01*
G01X6589Y9835D01*
G01X6593Y9834D01*
G01X6598Y9833D01*
G01X6602Y9832D01*
G01X6607Y9831D01*
G01X6611Y9830D01*
G01X6616Y9830D01*
G01X6620Y9830D01*
G01X6625Y9830D01*
G01X6875Y9830D01*
G01X6879Y9830D01*
G01X6883Y9830D01*
G01X6888Y9830D01*
G01X6892Y9831D01*
G01X6897Y9832D01*
G01X6901Y9833D01*
G01X6906Y9834D01*
G01X6909Y9835D01*
G01X6909Y9731D01*
G01X6900Y9739D01*
G01X6881Y9753D01*
G01X6860Y9765D01*
G01X6838Y9775D01*
G01X6815Y9782D01*
G01X6792Y9788D01*
G01X6768Y9791D01*
G01X6743Y9791D01*
G01X6719Y9790D01*
G01X6696Y9785D01*
G01X6672Y9779D01*
G01X6650Y9770D01*
G01X6628Y9759D01*
G01X6608Y9746D01*
G01X6589Y9731D01*
G01X6572Y9714D01*
G01X6557Y9696D01*
G01X6543Y9676D01*
G01X6531Y9655D01*
G01X6522Y9632D01*
G01X6515Y9609D01*
G01X6510Y9586D01*
G01X6508Y9562D01*
G01X6508Y9537D01*
G01X6510Y9513D01*
G01X6515Y9490D01*
G01X6522Y9467D01*
G01X6531Y9444D01*
G01X6538Y9433D01*
G01X6537Y9431D01*
G01X6534Y9428D01*
G01X6531Y9424D01*
G01X6528Y9421D01*
G01X6525Y9417D01*
G01X6523Y9413D01*
G01X6521Y9409D01*
G01X6518Y9406D01*
G01X6516Y9402D01*
G01X6515Y9397D01*
G01X6513Y9393D01*
G01X6511Y9389D01*
G01X6510Y9385D01*
G01X6509Y9381D01*
G01X6508Y9376D01*
G01X6507Y9372D01*
G01X6506Y9367D01*
G01X6505Y9363D01*
G01X6505Y9358D01*
G01X6505Y9354D01*
G01X6505Y9350D01*
G01X6505Y8850D01*
G01X6505Y8845D01*
G01X6505Y8841D01*
G01X6505Y8836D01*
G01X6506Y8832D01*
G01X6507Y8827D01*
G01X6508Y8823D01*
G01X6509Y8818D01*
G01X6510Y8814D01*
G01X6511Y8810D01*
G01X6513Y8806D01*
G01X6515Y8802D01*
G01X6516Y8797D01*
G01X6518Y8793D01*
G01X6521Y8790D01*
G01X6523Y8786D01*
G01X6525Y8782D01*
G01X6528Y8778D01*
G01X6531Y8775D01*
G01X6534Y8771D01*
G01X6537Y8768D01*
G01X6540Y8765D01*
G01X6543Y8762D01*
G01X6546Y8759D01*
G01X6550Y8756D01*
G01X6553Y8753D01*
G01X6557Y8750D01*
G01X6561Y8748D01*
G01X6565Y8746D01*
G01X6568Y8743D01*
G01X6572Y8741D01*
G01X6577Y8740D01*
G01X6581Y8738D01*
G01X6585Y8736D01*
G01X6589Y8735D01*
G01X6593Y8734D01*
G01X6598Y8733D01*
G01X6602Y8732D01*
G01X6607Y8731D01*
G01X6611Y8730D01*
G01X6616Y8730D01*
G01X6620Y8730D01*
G01X6625Y8730D01*
G01X6875Y8730D01*
G01X6879Y8730D01*
G01X6883Y8730D01*
G01X6888Y8730D01*
G01X6892Y8731D01*
G01X6897Y8732D01*
G01X6901Y8733D01*
G01X6906Y8734D01*
G01X6910Y8735D01*
G01X6912Y8736D01*
G01X6913Y8733D01*
G01X6914Y8727D01*
G01X6915Y8721D01*
G01X6916Y8715D01*
G01X6918Y8709D01*
G01X6920Y8703D01*
G01X6922Y8697D01*
G01X6924Y8691D01*
G01X6926Y8685D01*
G01X6929Y8680D01*
G01X6931Y8674D01*
G01X6934Y8669D01*
G01X6937Y8663D01*
G01X6940Y8658D01*
G01X6943Y8652D01*
G01X6947Y8647D01*
G01X6950Y8642D01*
G01X6954Y8637D01*
G01X6957Y8632D01*
G01X6961Y8628D01*
G01X6965Y8623D01*
G01X6970Y8618D01*
G01X6974Y8614D01*
G01X7444Y8144D01*
G01X7448Y8140D01*
G01X7453Y8135D01*
G01X7458Y8131D01*
G01X7462Y8128D01*
G01X7467Y8124D01*
G01X7472Y8120D01*
G01X7477Y8117D01*
G01X7482Y8113D01*
G01X7488Y8110D01*
G01X7493Y8107D01*
G01X7499Y8104D01*
G01X7504Y8101D01*
G01X7510Y8099D01*
G01X7515Y8096D01*
G01X7521Y8094D01*
G01X7527Y8092D01*
G01X7533Y8090D01*
G01X7539Y8088D01*
G01X7545Y8086D01*
G01X7551Y8085D01*
G01X7557Y8084D01*
G01X7563Y8083D01*
G01X7569Y8082D01*
G01X7575Y8081D01*
G01X7581Y8080D01*
G01X7587Y8080D01*
G01X7593Y8080D01*
G01X7600Y8080D01*
G01X9408Y8080D01*
G01X9480Y8008D01*
G01X9480Y7800D01*
G01X9472Y7782D01*
G01X9465Y7759D01*
G01X9460Y7736D01*
G01X9458Y7712D01*
G01X9458Y7687D01*
G01X9460Y7663D01*
G01X9465Y7640D01*
G01X9472Y7617D01*
G01X9481Y7594D01*
G01X9493Y7573D01*
G01X9507Y7553D01*
G01X9522Y7535D01*
G01X9539Y7518D01*
G01X9558Y7503D01*
G01X9578Y7490D01*
G01X9600Y7479D01*
G01X9622Y7470D01*
G01X9646Y7464D01*
G01X9669Y7459D01*
G01X9693Y7458D01*
G01X9718Y7458D01*
G01X9742Y7461D01*
G01X9765Y7467D01*
G01X9788Y7474D01*
G01X9810Y7484D01*
G01X9831Y7496D01*
G01X9850Y7510D01*
G01X9868Y7526D01*
G01X9885Y7544D01*
G01X9899Y7563D01*
G01X9912Y7584D01*
G01X9922Y7605D01*
G01X9931Y7628D01*
G01X9937Y7651D01*
G01X9937Y7650D01*
G01X9937Y7649D01*
G01X9938Y7646D01*
G01X9939Y7643D01*
G01X9939Y7642D01*
G01X9940Y7641D01*
G01X9941Y7638D01*
G01X9942Y7635D01*
G01X9942Y7634D01*
G01X9943Y7633D01*
G01X9944Y7631D01*
G01X9945Y7628D01*
G01X9946Y7627D01*
G01X9946Y7626D01*
G01X9948Y7623D01*
G01X9949Y7620D01*
G01X9950Y7619D01*
G01X9950Y7618D01*
G01X9952Y7616D01*
G01X9953Y7613D01*
G01X9954Y7612D01*
G01X9954Y7611D01*
G01X9956Y7608D01*
G01X9958Y7605D01*
G01X9959Y7605D01*
G01X9959Y7604D01*
G01X9961Y7601D01*
G01X9963Y7599D01*
G01X9963Y7598D01*
G01X9964Y7597D01*
G01X9966Y7594D01*
G01X9968Y7592D01*
G01X9969Y7591D01*
G01X9969Y7590D01*
G01X9971Y7588D01*
G01X9973Y7585D01*
G01X9974Y7585D01*
G01X9975Y7584D01*
G01X9977Y7582D01*
G01X9979Y7579D01*
G01X10230Y7329D01*
G01X10230Y5170D01*
G01X8579Y3520D01*
G01X8575Y3516D01*
G01X8572Y3512D01*
G01X8568Y3507D01*
G01X8565Y3503D01*
G01X8561Y3499D01*
G01X8558Y3494D01*
G01X8555Y3489D01*
G01X8552Y3484D01*
G01X8550Y3480D01*
G01X8547Y3475D01*
G01X8545Y3470D01*
G01X8542Y3465D01*
G01X8540Y3459D01*
G01X8539Y3454D01*
G01X8537Y3449D01*
G01X8535Y3444D01*
G01X8534Y3438D01*
G01X8533Y3433D01*
G01X8532Y3427D01*
G01X8531Y3422D01*
G01X8530Y3416D01*
G01X8530Y3411D01*
G01X8530Y3405D01*
G01X8530Y3400D01*
G01X8530Y3271D01*
G01X8522Y3264D01*
G01X8507Y3246D01*
G01X8493Y3226D01*
G01X8481Y3205D01*
G01X8472Y3182D01*
G01X8465Y3159D01*
G01X8460Y3136D01*
G01X8458Y3112D01*
G01X8458Y3087D01*
G01X8460Y3063D01*
G01X8465Y3040D01*
G01X8472Y3017D01*
G01X8481Y2994D01*
G01X8493Y2973D01*
G01X8507Y2953D01*
G01X8522Y2935D01*
G01X8539Y2918D01*
G01X8558Y2903D01*
G01X8578Y2890D01*
G01X8600Y2879D01*
G01X8622Y2870D01*
G01X8646Y2864D01*
G01X8669Y2859D01*
G01X8693Y2858D01*
G01X8718Y2858D01*
G01X8742Y2861D01*
G01X8765Y2867D01*
G01X8788Y2874D01*
G01X8810Y2884D01*
G01X8831Y2896D01*
G01X8850Y2910D01*
G01X8868Y2926D01*
G01X8885Y2944D01*
G01X8899Y2963D01*
G01X8912Y2984D01*
G01X8923Y3005D01*
G01X8931Y3028D01*
G01X8937Y3052D01*
G01X8940Y3075D01*
G01X8942Y3100D01*
G01X8940Y3124D01*
G01X8937Y3147D01*
G01X8931Y3171D01*
G01X8923Y3194D01*
G01X8912Y3215D01*
G01X8899Y3236D01*
G01X8885Y3255D01*
G01X8869Y3272D01*
G01X8869Y3329D01*
G01X10520Y4979D01*
G01X10524Y4983D01*
G01X10527Y4987D01*
G01X10531Y4992D01*
G01X10534Y4996D01*
G01X10538Y5000D01*
G01X10541Y5005D01*
G01X10544Y5010D01*
G01X10547Y5015D01*
G01X10549Y5019D01*
G01X10552Y5024D01*
G01X10554Y5029D01*
G01X10557Y5034D01*
G01X10559Y5040D01*
G01X10560Y5045D01*
G01X10562Y5050D01*
G01X10564Y5055D01*
G01X10565Y5061D01*
G01X10566Y5066D01*
G01X10567Y5072D01*
G01X10568Y5077D01*
G01X10569Y5083D01*
G01X10569Y5088D01*
G01X10569Y5094D01*
G01X10569Y5100D01*
G01X10569Y6189D01*
G01X10630Y6129D01*
G01X10630Y5700D01*
G01X10630Y5694D01*
G01X10630Y5688D01*
G01X10630Y5683D01*
G01X10631Y5677D01*
G01X10632Y5672D01*
G01X10633Y5666D01*
G01X10634Y5661D01*
G01X10635Y5655D01*
G01X10637Y5650D01*
G01X10639Y5645D01*
G01X10640Y5640D01*
G01X10642Y5634D01*
G01X10645Y5629D01*
G01X10647Y5624D01*
G01X10650Y5619D01*
G01X10652Y5615D01*
G01X10655Y5610D01*
G01X10658Y5605D01*
G01X10661Y5600D01*
G01X10665Y5596D01*
G01X10668Y5592D01*
G01X10672Y5587D01*
G01X10675Y5583D01*
G01X10679Y5579D01*
G01X10830Y5429D01*
G01X10830Y4800D01*
G01X10830Y4794D01*
G01X10830Y4788D01*
G01X10830Y4783D01*
G01X10831Y4777D01*
G01X10832Y4772D01*
G01X10833Y4766D01*
G01X10834Y4761D01*
G01X10835Y4755D01*
G01X10837Y4750D01*
G01X10839Y4745D01*
G01X10840Y4740D01*
G01X10842Y4734D01*
G01X10845Y4729D01*
G01X10847Y4724D01*
G01X10850Y4719D01*
G01X10852Y4715D01*
G01X10855Y4710D01*
G01X10858Y4705D01*
G01X10861Y4700D01*
G01X10865Y4696D01*
G01X10868Y4692D01*
G01X10872Y4687D01*
G01X10875Y4683D01*
G01X10879Y4679D01*
G01X11012Y4546D01*
G01X11010Y4524D01*
G01X11010Y4475D01*
G01X11015Y4426D01*
G01X11025Y4379D01*
G01X11039Y4332D01*
G01X11058Y4287D01*
G01X11081Y4244D01*
G01X11109Y4204D01*
G01X11140Y4166D01*
G01X11175Y4132D01*
G01X11213Y4102D01*
G01X11255Y4075D01*
G01X11298Y4053D01*
G01X11343Y4035D01*
G01X11390Y4022D01*
G01X11439Y4013D01*
G01X11487Y4010D01*
G01X11536Y4011D01*
G01X11585Y4017D01*
G01X11632Y4028D01*
G01X11679Y4043D01*
G01X11723Y4063D01*
G01X11765Y4088D01*
G01X11805Y4116D01*
G01X11842Y4149D01*
G01X11875Y4185D01*
G01X11900Y4217D01*
G01X11900Y100D01*
G01X6782Y100D01*
G01X6805Y116D01*
G01X6842Y149D01*
G01X6875Y185D01*
G01X6904Y223D01*
G01X6930Y265D01*
G01X6951Y309D01*
G01X6968Y355D01*
G01X6980Y402D01*
G01X6987Y451D01*
G01X6990Y500D01*
G01X6987Y548D01*
G01X6980Y597D01*
G01X6968Y644D01*
G01X6951Y690D01*
G01X6930Y734D01*
G01X6904Y776D01*
G01X6875Y814D01*
G01X6842Y850D01*
G01X6805Y883D01*
G01X6765Y911D01*
G01X6723Y936D01*
G01X6679Y956D01*
G01X6632Y971D01*
G01X6585Y982D01*
G01X6536Y988D01*
G01X6487Y989D01*
G01X6439Y986D01*
G01X6390Y977D01*
G01X6343Y964D01*
G01X6298Y946D01*
G01X6255Y924D01*
G01X6213Y897D01*
G01X6175Y867D01*
G01X6140Y833D01*
G01X6109Y795D01*
G01X6081Y755D01*
G01X6058Y712D01*
G01X6039Y667D01*
G01X6025Y620D01*
G01X6015Y573D01*
G01X6010Y524D01*
G01X6010Y475D01*
G01X6015Y426D01*
G01X6025Y379D01*
G01X6039Y332D01*
G01X6058Y287D01*
G01X6081Y244D01*
G01X6109Y204D01*
G01X6140Y166D01*
G01X6175Y132D01*
G01X6213Y102D01*
G01X6217Y100D01*
G01X5782Y100D01*
G01X5805Y116D01*
G01X5842Y149D01*
G01X5875Y185D01*
G01X5904Y223D01*
G01X5930Y265D01*
G01X5951Y309D01*
G01X5968Y355D01*
G01X5980Y402D01*
G01X5987Y451D01*
G01X5990Y500D01*
G01X5987Y548D01*
G01X5980Y597D01*
G01X5968Y644D01*
G01X5951Y690D01*
G01X5930Y734D01*
G01X5904Y776D01*
G01X5875Y814D01*
G01X5842Y850D01*
G01X5805Y883D01*
G01X5765Y911D01*
G01X5723Y936D01*
G01X5679Y956D01*
G01X5632Y971D01*
G01X5585Y982D01*
G01X5536Y988D01*
G01X5487Y989D01*
G01X5439Y986D01*
G01X5390Y977D01*
G01X5343Y964D01*
G01X5298Y946D01*
G01X5255Y924D01*
G01X5213Y897D01*
G01X5175Y867D01*
G01X5140Y833D01*
G01X5109Y795D01*
G01X5081Y755D01*
G01X5058Y712D01*
G01X5039Y667D01*
G01X5025Y620D01*
G01X5015Y573D01*
G01X5010Y524D01*
G01X5010Y475D01*
G01X5015Y426D01*
G01X5025Y379D01*
G01X5039Y332D01*
G01X5058Y287D01*
G01X5081Y244D01*
G01X5109Y204D01*
G01X5140Y166D01*
G01X5175Y132D01*
G01X5213Y102D01*
G01X5217Y100D01*
G01X4782Y100D01*
G01X4805Y116D01*
G01X4842Y149D01*
G01X4875Y185D01*
G01X4904Y223D01*
G01X4930Y265D01*
G01X4951Y309D01*
G01X4968Y355D01*
G01X4980Y402D01*
G01X4987Y451D01*
G01X4990Y500D01*
G01X4987Y548D01*
G01X4980Y597D01*
G01X4968Y644D01*
G01X4951Y690D01*
G01X4930Y734D01*
G01X4904Y776D01*
G01X4875Y814D01*
G01X4842Y850D01*
G01X4805Y883D01*
G01X4765Y911D01*
G01X4723Y936D01*
G01X4679Y956D01*
G01X4632Y971D01*
G01X4585Y982D01*
G01X4536Y988D01*
G01X4487Y989D01*
G01X4439Y986D01*
G01X4390Y977D01*
G01X4343Y964D01*
G01X4298Y946D01*
G01X4255Y924D01*
G01X4213Y897D01*
G01X4175Y867D01*
G01X4140Y833D01*
G01X4109Y795D01*
G01X4081Y755D01*
G01X4058Y712D01*
G01X4039Y667D01*
G01X4025Y620D01*
G01X4015Y573D01*
G01X4010Y524D01*
G01X4010Y475D01*
G01X4015Y426D01*
G01X4025Y379D01*
G01X4039Y332D01*
G01X4058Y287D01*
G01X4081Y244D01*
G01X4109Y204D01*
G01X4140Y166D01*
G01X4175Y132D01*
G01X4213Y102D01*
G01X4217Y100D01*
G01X3782Y100D01*
G01X3805Y116D01*
G01X3842Y149D01*
G01X3875Y185D01*
G01X3904Y223D01*
G01X3930Y265D01*
G01X3951Y309D01*
G01X3968Y355D01*
G01X3980Y402D01*
G01X3987Y451D01*
G01X3990Y500D01*
G01X3987Y548D01*
G01X3980Y597D01*
G01X3968Y644D01*
G01X3951Y690D01*
G01X3930Y734D01*
G01X3904Y776D01*
G01X3875Y814D01*
G01X3842Y850D01*
G01X3805Y883D01*
G01X3765Y911D01*
G01X3723Y936D01*
G01X3679Y956D01*
G01X3632Y971D01*
G01X3585Y982D01*
G01X3536Y988D01*
G01X3487Y989D01*
G01X3439Y986D01*
G01X3390Y977D01*
G01X3343Y964D01*
G01X3298Y946D01*
G01X3255Y924D01*
G01X3213Y897D01*
G01X3175Y867D01*
G01X3140Y833D01*
G01X3109Y795D01*
G01X3081Y755D01*
G01X3058Y712D01*
G01X3039Y667D01*
G01X3025Y620D01*
G01X3015Y573D01*
G01X3010Y524D01*
G01X3010Y475D01*
G01X3015Y426D01*
G01X3025Y379D01*
G01X3039Y332D01*
G01X3058Y287D01*
G01X3081Y244D01*
G01X3109Y204D01*
G01X3140Y166D01*
G01X3175Y132D01*
G01X3213Y102D01*
G01X3217Y100D01*
G01X2782Y100D01*
G01X2805Y116D01*
G01X2842Y149D01*
G01X2875Y185D01*
G01X2904Y223D01*
G01X2930Y265D01*
G01X2951Y309D01*
G01X2968Y355D01*
G01X2980Y402D01*
G01X2987Y451D01*
G01X2990Y500D01*
G01X2987Y548D01*
G01X2980Y597D01*
G01X2968Y644D01*
G01X2951Y690D01*
G01X2930Y734D01*
G01X2904Y776D01*
G01X2875Y814D01*
G01X2842Y850D01*
G01X2805Y883D01*
G01X2765Y911D01*
G01X2723Y936D01*
G01X2679Y956D01*
G01X2632Y971D01*
G01X2585Y982D01*
G01X2536Y988D01*
G01X2487Y989D01*
G01X2439Y986D01*
G01X2390Y977D01*
G01X2343Y964D01*
G01X2298Y946D01*
G01X2255Y924D01*
G01X2213Y897D01*
G01X2175Y867D01*
G01X2140Y833D01*
G01X2109Y795D01*
G01X2081Y755D01*
G01X2058Y712D01*
G01X2039Y667D01*
G01X2025Y620D01*
G01X2015Y573D01*
G01X2010Y524D01*
G01X2010Y475D01*
G01X2015Y426D01*
G01X2025Y379D01*
G01X2039Y332D01*
G01X2058Y287D01*
G01X2081Y244D01*
G01X2109Y204D01*
G01X2140Y166D01*
G01X2175Y132D01*
G01X2213Y102D01*
G01X2217Y100D01*
G01X100Y100D01*
G37*

%LPC*%
G36*
G01X5793Y1158D02*
G01X5818Y1158D01*
G01X5842Y1161D01*
G01X5865Y1167D01*
G01X5888Y1174D01*
G01X5910Y1184D01*
G01X5931Y1196D01*
G01X5950Y1210D01*
G01X5968Y1226D01*
G01X5985Y1244D01*
G01X5999Y1263D01*
G01X6012Y1284D01*
G01X6023Y1305D01*
G01X6031Y1328D01*
G01X6037Y1352D01*
G01X6040Y1375D01*
G01X6042Y1400D01*
G01X6041Y1401D01*
G01X6070Y1430D01*
G01X7328Y1430D01*
G01X7339Y1418D01*
G01X7358Y1403D01*
G01X7378Y1390D01*
G01X7400Y1379D01*
G01X7422Y1370D01*
G01X7446Y1364D01*
G01X7469Y1359D01*
G01X7493Y1358D01*
G01X7518Y1358D01*
G01X7542Y1361D01*
G01X7565Y1367D01*
G01X7588Y1374D01*
G01X7610Y1384D01*
G01X7631Y1396D01*
G01X7650Y1410D01*
G01X7668Y1426D01*
G01X7685Y1444D01*
G01X7699Y1463D01*
G01X7712Y1484D01*
G01X7723Y1505D01*
G01X7731Y1528D01*
G01X7737Y1552D01*
G01X7740Y1575D01*
G01X7742Y1600D01*
G01X7740Y1624D01*
G01X7737Y1647D01*
G01X7731Y1671D01*
G01X7723Y1694D01*
G01X7712Y1715D01*
G01X7699Y1736D01*
G01X7685Y1755D01*
G01X7668Y1773D01*
G01X7650Y1789D01*
G01X7631Y1803D01*
G01X7610Y1815D01*
G01X7588Y1825D01*
G01X7565Y1832D01*
G01X7542Y1838D01*
G01X7518Y1841D01*
G01X7493Y1841D01*
G01X7469Y1840D01*
G01X7446Y1835D01*
G01X7422Y1829D01*
G01X7400Y1820D01*
G01X7378Y1809D01*
G01X7358Y1796D01*
G01X7339Y1781D01*
G01X7328Y1769D01*
G01X6000Y1769D01*
G01X5994Y1769D01*
G01X5988Y1769D01*
G01X5983Y1769D01*
G01X5977Y1768D01*
G01X5972Y1767D01*
G01X5966Y1766D01*
G01X5961Y1765D01*
G01X5955Y1764D01*
G01X5950Y1762D01*
G01X5945Y1760D01*
G01X5940Y1759D01*
G01X5934Y1757D01*
G01X5929Y1754D01*
G01X5924Y1752D01*
G01X5919Y1749D01*
G01X5915Y1747D01*
G01X5910Y1744D01*
G01X5905Y1741D01*
G01X5900Y1738D01*
G01X5896Y1734D01*
G01X5892Y1731D01*
G01X5887Y1727D01*
G01X5883Y1724D01*
G01X5879Y1720D01*
G01X5801Y1641D01*
G01X5793Y1641D01*
G01X5769Y1640D01*
G01X5746Y1635D01*
G01X5722Y1629D01*
G01X5700Y1620D01*
G01X5678Y1609D01*
G01X5658Y1596D01*
G01X5639Y1581D01*
G01X5622Y1564D01*
G01X5607Y1546D01*
G01X5593Y1526D01*
G01X5581Y1505D01*
G01X5572Y1482D01*
G01X5565Y1459D01*
G01X5560Y1436D01*
G01X5558Y1412D01*
G01X5558Y1387D01*
G01X5560Y1363D01*
G01X5565Y1340D01*
G01X5572Y1317D01*
G01X5581Y1294D01*
G01X5593Y1273D01*
G01X5607Y1253D01*
G01X5622Y1235D01*
G01X5639Y1218D01*
G01X5658Y1203D01*
G01X5678Y1190D01*
G01X5700Y1179D01*
G01X5722Y1170D01*
G01X5746Y1164D01*
G01X5769Y1159D01*
G01X5793Y1158D01*
G37*
G36*
G01X5193Y1258D02*
G01X5218Y1258D01*
G01X5242Y1261D01*
G01X5265Y1267D01*
G01X5288Y1274D01*
G01X5310Y1284D01*
G01X5331Y1296D01*
G01X5350Y1310D01*
G01X5368Y1326D01*
G01X5385Y1344D01*
G01X5399Y1363D01*
G01X5412Y1384D01*
G01X5423Y1405D01*
G01X5431Y1428D01*
G01X5437Y1452D01*
G01X5440Y1475D01*
G01X5442Y1500D01*
G01X5441Y1501D01*
G01X6070Y2130D01*
G01X7378Y2130D01*
G01X7389Y2118D01*
G01X7408Y2103D01*
G01X7428Y2090D01*
G01X7450Y2079D01*
G01X7472Y2070D01*
G01X7496Y2064D01*
G01X7519Y2059D01*
G01X7543Y2058D01*
G01X7568Y2058D01*
G01X7592Y2061D01*
G01X7615Y2067D01*
G01X7638Y2074D01*
G01X7660Y2084D01*
G01X7681Y2096D01*
G01X7700Y2110D01*
G01X7718Y2126D01*
G01X7735Y2144D01*
G01X7749Y2163D01*
G01X7762Y2184D01*
G01X7773Y2205D01*
G01X7781Y2228D01*
G01X7787Y2252D01*
G01X7790Y2275D01*
G01X7792Y2300D01*
G01X7790Y2324D01*
G01X7787Y2347D01*
G01X7781Y2371D01*
G01X7773Y2394D01*
G01X7762Y2415D01*
G01X7749Y2436D01*
G01X7735Y2455D01*
G01X7718Y2473D01*
G01X7700Y2489D01*
G01X7681Y2503D01*
G01X7660Y2515D01*
G01X7638Y2525D01*
G01X7615Y2532D01*
G01X7592Y2538D01*
G01X7568Y2541D01*
G01X7543Y2541D01*
G01X7519Y2540D01*
G01X7496Y2535D01*
G01X7472Y2529D01*
G01X7450Y2520D01*
G01X7428Y2509D01*
G01X7408Y2496D01*
G01X7389Y2481D01*
G01X7378Y2469D01*
G01X6000Y2469D01*
G01X5994Y2469D01*
G01X5988Y2469D01*
G01X5983Y2469D01*
G01X5977Y2468D01*
G01X5972Y2467D01*
G01X5966Y2466D01*
G01X5961Y2465D01*
G01X5955Y2464D01*
G01X5950Y2462D01*
G01X5945Y2460D01*
G01X5940Y2459D01*
G01X5934Y2457D01*
G01X5929Y2454D01*
G01X5924Y2452D01*
G01X5919Y2449D01*
G01X5915Y2447D01*
G01X5910Y2444D01*
G01X5905Y2441D01*
G01X5900Y2438D01*
G01X5896Y2434D01*
G01X5892Y2431D01*
G01X5887Y2427D01*
G01X5883Y2424D01*
G01X5879Y2420D01*
G01X5201Y1741D01*
G01X5193Y1741D01*
G01X5169Y1740D01*
G01X5146Y1735D01*
G01X5122Y1729D01*
G01X5100Y1720D01*
G01X5078Y1709D01*
G01X5058Y1696D01*
G01X5039Y1681D01*
G01X5022Y1664D01*
G01X5007Y1646D01*
G01X4993Y1626D01*
G01X4981Y1605D01*
G01X4972Y1582D01*
G01X4965Y1559D01*
G01X4960Y1536D01*
G01X4958Y1512D01*
G01X4958Y1487D01*
G01X4960Y1463D01*
G01X4965Y1440D01*
G01X4972Y1417D01*
G01X4981Y1394D01*
G01X4993Y1373D01*
G01X5007Y1353D01*
G01X5022Y1335D01*
G01X5039Y1318D01*
G01X5058Y1303D01*
G01X5078Y1290D01*
G01X5100Y1279D01*
G01X5122Y1270D01*
G01X5146Y1264D01*
G01X5169Y1259D01*
G01X5193Y1258D01*
G37*
G36*
G01X2487Y2010D02*
G01X2536Y2011D01*
G01X2585Y2017D01*
G01X2632Y2028D01*
G01X2679Y2043D01*
G01X2723Y2063D01*
G01X2765Y2088D01*
G01X2805Y2116D01*
G01X2842Y2149D01*
G01X2875Y2185D01*
G01X2904Y2223D01*
G01X2930Y2265D01*
G01X2951Y2309D01*
G01X2968Y2355D01*
G01X2980Y2402D01*
G01X2987Y2451D01*
G01X2990Y2500D01*
G01X2987Y2548D01*
G01X2980Y2597D01*
G01X2968Y2644D01*
G01X2951Y2690D01*
G01X2930Y2734D01*
G01X2904Y2776D01*
G01X2875Y2814D01*
G01X2842Y2850D01*
G01X2805Y2883D01*
G01X2765Y2911D01*
G01X2723Y2936D01*
G01X2679Y2956D01*
G01X2632Y2971D01*
G01X2585Y2982D01*
G01X2536Y2988D01*
G01X2487Y2989D01*
G01X2439Y2986D01*
G01X2390Y2977D01*
G01X2343Y2964D01*
G01X2298Y2946D01*
G01X2255Y2924D01*
G01X2213Y2897D01*
G01X2175Y2867D01*
G01X2140Y2833D01*
G01X2109Y2795D01*
G01X2081Y2755D01*
G01X2058Y2712D01*
G01X2039Y2667D01*
G01X2025Y2620D01*
G01X2015Y2573D01*
G01X2010Y2524D01*
G01X2010Y2475D01*
G01X2015Y2426D01*
G01X2025Y2379D01*
G01X2039Y2332D01*
G01X2058Y2287D01*
G01X2081Y2244D01*
G01X2109Y2204D01*
G01X2140Y2166D01*
G01X2175Y2132D01*
G01X2213Y2102D01*
G01X2255Y2075D01*
G01X2298Y2053D01*
G01X2343Y2035D01*
G01X2390Y2022D01*
G01X2439Y2013D01*
G01X2487Y2010D01*
G37*
G36*
G01X1487Y2010D02*
G01X1536Y2011D01*
G01X1585Y2017D01*
G01X1632Y2028D01*
G01X1679Y2043D01*
G01X1723Y2063D01*
G01X1765Y2088D01*
G01X1805Y2116D01*
G01X1842Y2149D01*
G01X1875Y2185D01*
G01X1904Y2223D01*
G01X1930Y2265D01*
G01X1951Y2309D01*
G01X1968Y2355D01*
G01X1980Y2402D01*
G01X1987Y2451D01*
G01X1990Y2500D01*
G01X1987Y2548D01*
G01X1980Y2597D01*
G01X1968Y2644D01*
G01X1951Y2690D01*
G01X1930Y2734D01*
G01X1904Y2776D01*
G01X1875Y2814D01*
G01X1842Y2850D01*
G01X1805Y2883D01*
G01X1765Y2911D01*
G01X1723Y2936D01*
G01X1679Y2956D01*
G01X1632Y2971D01*
G01X1585Y2982D01*
G01X1536Y2988D01*
G01X1487Y2989D01*
G01X1439Y2986D01*
G01X1390Y2977D01*
G01X1343Y2964D01*
G01X1298Y2946D01*
G01X1255Y2924D01*
G01X1213Y2897D01*
G01X1175Y2867D01*
G01X1140Y2833D01*
G01X1109Y2795D01*
G01X1081Y2755D01*
G01X1058Y2712D01*
G01X1039Y2667D01*
G01X1025Y2620D01*
G01X1015Y2573D01*
G01X1010Y2524D01*
G01X1010Y2475D01*
G01X1015Y2426D01*
G01X1025Y2379D01*
G01X1039Y2332D01*
G01X1058Y2287D01*
G01X1081Y2244D01*
G01X1109Y2204D01*
G01X1140Y2166D01*
G01X1175Y2132D01*
G01X1213Y2102D01*
G01X1255Y2075D01*
G01X1298Y2053D01*
G01X1343Y2035D01*
G01X1390Y2022D01*
G01X1439Y2013D01*
G01X1487Y2010D01*
G37*
G36*
G01X1487Y3010D02*
G01X1536Y3011D01*
G01X1585Y3017D01*
G01X1632Y3028D01*
G01X1679Y3043D01*
G01X1723Y3063D01*
G01X1765Y3088D01*
G01X1805Y3116D01*
G01X1842Y3149D01*
G01X1875Y3185D01*
G01X1904Y3223D01*
G01X1930Y3265D01*
G01X1951Y3309D01*
G01X1968Y3355D01*
G01X1980Y3402D01*
G01X1987Y3451D01*
G01X1990Y3500D01*
G01X1987Y3548D01*
G01X1980Y3597D01*
G01X1968Y3644D01*
G01X1951Y3690D01*
G01X1930Y3734D01*
G01X1904Y3776D01*
G01X1875Y3814D01*
G01X1842Y3850D01*
G01X1805Y3883D01*
G01X1765Y3911D01*
G01X1723Y3936D01*
G01X1679Y3956D01*
G01X1632Y3971D01*
G01X1585Y3982D01*
G01X1536Y3988D01*
G01X1487Y3989D01*
G01X1439Y3986D01*
G01X1390Y3977D01*
G01X1343Y3964D01*
G01X1298Y3946D01*
G01X1255Y3924D01*
G01X1213Y3897D01*
G01X1175Y3867D01*
G01X1140Y3833D01*
G01X1109Y3795D01*
G01X1081Y3755D01*
G01X1058Y3712D01*
G01X1039Y3667D01*
G01X1025Y3620D01*
G01X1015Y3573D01*
G01X1010Y3524D01*
G01X1010Y3475D01*
G01X1015Y3426D01*
G01X1025Y3379D01*
G01X1039Y3332D01*
G01X1058Y3287D01*
G01X1081Y3244D01*
G01X1109Y3204D01*
G01X1140Y3166D01*
G01X1175Y3132D01*
G01X1213Y3102D01*
G01X1255Y3075D01*
G01X1298Y3053D01*
G01X1343Y3035D01*
G01X1390Y3022D01*
G01X1439Y3013D01*
G01X1487Y3010D01*
G37*
G36*
G01X2493Y4558D02*
G01X2518Y4558D01*
G01X2542Y4561D01*
G01X2565Y4567D01*
G01X2588Y4574D01*
G01X2610Y4584D01*
G01X2631Y4596D01*
G01X2650Y4610D01*
G01X2668Y4626D01*
G01X2674Y4633D01*
G01X2689Y4618D01*
G01X2708Y4603D01*
G01X2728Y4590D01*
G01X2750Y4579D01*
G01X2772Y4570D01*
G01X2796Y4564D01*
G01X2819Y4559D01*
G01X2843Y4558D01*
G01X2868Y4558D01*
G01X2892Y4561D01*
G01X2915Y4567D01*
G01X2938Y4574D01*
G01X2960Y4584D01*
G01X2981Y4596D01*
G01X3000Y4610D01*
G01X3018Y4626D01*
G01X3024Y4633D01*
G01X3039Y4618D01*
G01X3058Y4603D01*
G01X3078Y4590D01*
G01X3100Y4579D01*
G01X3122Y4570D01*
G01X3146Y4564D01*
G01X3169Y4559D01*
G01X3193Y4558D01*
G01X3218Y4558D01*
G01X3242Y4561D01*
G01X3265Y4567D01*
G01X3288Y4574D01*
G01X3310Y4584D01*
G01X3331Y4596D01*
G01X3350Y4610D01*
G01X3368Y4626D01*
G01X3374Y4633D01*
G01X3389Y4618D01*
G01X3408Y4603D01*
G01X3428Y4590D01*
G01X3450Y4579D01*
G01X3472Y4570D01*
G01X3496Y4564D01*
G01X3519Y4559D01*
G01X3543Y4558D01*
G01X3568Y4558D01*
G01X3592Y4561D01*
G01X3615Y4567D01*
G01X3638Y4574D01*
G01X3660Y4584D01*
G01X3681Y4596D01*
G01X3700Y4610D01*
G01X3718Y4626D01*
G01X3724Y4633D01*
G01X3739Y4618D01*
G01X3758Y4603D01*
G01X3778Y4590D01*
G01X3800Y4579D01*
G01X3822Y4570D01*
G01X3846Y4564D01*
G01X3869Y4559D01*
G01X3893Y4558D01*
G01X3918Y4558D01*
G01X3942Y4561D01*
G01X3965Y4567D01*
G01X3988Y4574D01*
G01X4010Y4584D01*
G01X4031Y4596D01*
G01X4050Y4610D01*
G01X4068Y4626D01*
G01X4085Y4644D01*
G01X4099Y4663D01*
G01X4112Y4684D01*
G01X4123Y4705D01*
G01X4131Y4728D01*
G01X4137Y4752D01*
G01X4140Y4775D01*
G01X4142Y4800D01*
G01X4140Y4824D01*
G01X4137Y4847D01*
G01X4131Y4871D01*
G01X4123Y4894D01*
G01X4112Y4915D01*
G01X4099Y4936D01*
G01X4085Y4955D01*
G01X4069Y4972D01*
G01X4069Y5777D01*
G01X4085Y5794D01*
G01X4099Y5813D01*
G01X4112Y5834D01*
G01X4123Y5855D01*
G01X4131Y5878D01*
G01X4137Y5902D01*
G01X4140Y5925D01*
G01X4142Y5950D01*
G01X4140Y5974D01*
G01X4137Y5997D01*
G01X4131Y6021D01*
G01X4123Y6044D01*
G01X4112Y6065D01*
G01X4099Y6086D01*
G01X4085Y6105D01*
G01X4068Y6123D01*
G01X4050Y6139D01*
G01X4031Y6153D01*
G01X4010Y6165D01*
G01X3988Y6175D01*
G01X3965Y6182D01*
G01X3942Y6188D01*
G01X3918Y6191D01*
G01X3893Y6191D01*
G01X3869Y6190D01*
G01X3846Y6185D01*
G01X3822Y6179D01*
G01X3800Y6170D01*
G01X3778Y6159D01*
G01X3758Y6146D01*
G01X3739Y6131D01*
G01X3724Y6116D01*
G01X3718Y6123D01*
G01X3700Y6139D01*
G01X3681Y6153D01*
G01X3660Y6165D01*
G01X3638Y6175D01*
G01X3615Y6182D01*
G01X3592Y6188D01*
G01X3568Y6191D01*
G01X3543Y6191D01*
G01X3519Y6190D01*
G01X3496Y6185D01*
G01X3472Y6179D01*
G01X3450Y6170D01*
G01X3428Y6159D01*
G01X3408Y6146D01*
G01X3389Y6131D01*
G01X3374Y6116D01*
G01X3368Y6123D01*
G01X3350Y6139D01*
G01X3331Y6153D01*
G01X3310Y6165D01*
G01X3288Y6175D01*
G01X3265Y6182D01*
G01X3242Y6188D01*
G01X3218Y6191D01*
G01X3193Y6191D01*
G01X3169Y6190D01*
G01X3146Y6185D01*
G01X3122Y6179D01*
G01X3100Y6170D01*
G01X3078Y6159D01*
G01X3058Y6146D01*
G01X3039Y6131D01*
G01X3024Y6116D01*
G01X3018Y6123D01*
G01X3000Y6139D01*
G01X2981Y6153D01*
G01X2960Y6165D01*
G01X2938Y6175D01*
G01X2915Y6182D01*
G01X2892Y6188D01*
G01X2868Y6191D01*
G01X2843Y6191D01*
G01X2819Y6190D01*
G01X2796Y6185D01*
G01X2772Y6179D01*
G01X2750Y6170D01*
G01X2728Y6159D01*
G01X2708Y6146D01*
G01X2689Y6131D01*
G01X2674Y6116D01*
G01X2668Y6123D01*
G01X2650Y6139D01*
G01X2631Y6153D01*
G01X2610Y6165D01*
G01X2588Y6175D01*
G01X2565Y6182D01*
G01X2542Y6188D01*
G01X2518Y6191D01*
G01X2493Y6191D01*
G01X2469Y6190D01*
G01X2446Y6185D01*
G01X2422Y6179D01*
G01X2400Y6170D01*
G01X2378Y6159D01*
G01X2358Y6146D01*
G01X2339Y6131D01*
G01X2322Y6114D01*
G01X2307Y6096D01*
G01X2293Y6076D01*
G01X2281Y6055D01*
G01X2272Y6032D01*
G01X2265Y6009D01*
G01X2260Y5986D01*
G01X2258Y5962D01*
G01X2258Y5937D01*
G01X2260Y5913D01*
G01X2265Y5890D01*
G01X2272Y5867D01*
G01X2281Y5844D01*
G01X2293Y5823D01*
G01X2307Y5803D01*
G01X2322Y5785D01*
G01X2330Y5778D01*
G01X2330Y4971D01*
G01X2322Y4964D01*
G01X2307Y4946D01*
G01X2293Y4926D01*
G01X2281Y4905D01*
G01X2272Y4882D01*
G01X2265Y4859D01*
G01X2260Y4836D01*
G01X2258Y4812D01*
G01X2258Y4787D01*
G01X2260Y4763D01*
G01X2265Y4740D01*
G01X2272Y4717D01*
G01X2281Y4694D01*
G01X2293Y4673D01*
G01X2307Y4653D01*
G01X2322Y4635D01*
G01X2339Y4618D01*
G01X2358Y4603D01*
G01X2378Y4590D01*
G01X2400Y4579D01*
G01X2422Y4570D01*
G01X2446Y4564D01*
G01X2469Y4559D01*
G01X2493Y4558D01*
G37*
G36*
G01X2493Y6958D02*
G01X2518Y6958D01*
G01X2542Y6961D01*
G01X2565Y6967D01*
G01X2588Y6974D01*
G01X2610Y6984D01*
G01X2631Y6996D01*
G01X2650Y7010D01*
G01X2668Y7026D01*
G01X2674Y7033D01*
G01X2689Y7018D01*
G01X2708Y7003D01*
G01X2728Y6990D01*
G01X2750Y6979D01*
G01X2772Y6970D01*
G01X2796Y6964D01*
G01X2819Y6959D01*
G01X2843Y6958D01*
G01X2868Y6958D01*
G01X2892Y6961D01*
G01X2915Y6967D01*
G01X2938Y6974D01*
G01X2960Y6984D01*
G01X2981Y6996D01*
G01X3000Y7010D01*
G01X3018Y7026D01*
G01X3035Y7044D01*
G01X3049Y7063D01*
G01X3062Y7084D01*
G01X3073Y7105D01*
G01X3081Y7128D01*
G01X3087Y7152D01*
G01X3090Y7175D01*
G01X3092Y7200D01*
G01X3090Y7224D01*
G01X3087Y7247D01*
G01X3081Y7271D01*
G01X3073Y7294D01*
G01X3062Y7315D01*
G01X3049Y7336D01*
G01X3035Y7355D01*
G01X3019Y7372D01*
G01X3019Y7927D01*
G01X3035Y7944D01*
G01X3049Y7963D01*
G01X3062Y7984D01*
G01X3073Y8005D01*
G01X3081Y8028D01*
G01X3087Y8052D01*
G01X3090Y8075D01*
G01X3092Y8100D01*
G01X3090Y8124D01*
G01X3087Y8147D01*
G01X3081Y8171D01*
G01X3073Y8194D01*
G01X3062Y8215D01*
G01X3049Y8236D01*
G01X3035Y8255D01*
G01X3018Y8273D01*
G01X3000Y8289D01*
G01X2981Y8303D01*
G01X2960Y8315D01*
G01X2938Y8325D01*
G01X2915Y8332D01*
G01X2892Y8338D01*
G01X2868Y8341D01*
G01X2843Y8341D01*
G01X2819Y8340D01*
G01X2796Y8335D01*
G01X2772Y8329D01*
G01X2750Y8320D01*
G01X2728Y8309D01*
G01X2708Y8296D01*
G01X2689Y8281D01*
G01X2672Y8264D01*
G01X2657Y8246D01*
G01X2643Y8226D01*
G01X2631Y8205D01*
G01X2622Y8182D01*
G01X2615Y8159D01*
G01X2610Y8136D01*
G01X2608Y8112D01*
G01X2608Y8087D01*
G01X2610Y8063D01*
G01X2615Y8040D01*
G01X2622Y8017D01*
G01X2627Y8005D01*
G01X2610Y8015D01*
G01X2588Y8025D01*
G01X2565Y8032D01*
G01X2542Y8038D01*
G01X2518Y8041D01*
G01X2493Y8041D01*
G01X2469Y8040D01*
G01X2446Y8035D01*
G01X2422Y8029D01*
G01X2400Y8020D01*
G01X2378Y8009D01*
G01X2358Y7996D01*
G01X2339Y7981D01*
G01X2322Y7964D01*
G01X2307Y7946D01*
G01X2293Y7926D01*
G01X2281Y7905D01*
G01X2272Y7882D01*
G01X2265Y7859D01*
G01X2260Y7836D01*
G01X2258Y7812D01*
G01X2258Y7787D01*
G01X2260Y7763D01*
G01X2265Y7740D01*
G01X2272Y7717D01*
G01X2281Y7694D01*
G01X2293Y7673D01*
G01X2307Y7653D01*
G01X2322Y7635D01*
G01X2330Y7628D01*
G01X2330Y7371D01*
G01X2322Y7364D01*
G01X2307Y7346D01*
G01X2293Y7326D01*
G01X2281Y7305D01*
G01X2272Y7282D01*
G01X2265Y7259D01*
G01X2260Y7236D01*
G01X2258Y7212D01*
G01X2258Y7187D01*
G01X2260Y7163D01*
G01X2265Y7140D01*
G01X2272Y7117D01*
G01X2281Y7094D01*
G01X2293Y7073D01*
G01X2307Y7053D01*
G01X2322Y7035D01*
G01X2339Y7018D01*
G01X2358Y7003D01*
G01X2378Y6990D01*
G01X2400Y6979D01*
G01X2422Y6970D01*
G01X2446Y6964D01*
G01X2469Y6959D01*
G01X2493Y6958D01*
G37*

%LPD*%
G36*
G01X4369Y8710D02*
G01X4369Y8749D01*
G01X4372Y8750D01*
G01X4376Y8753D01*
G01X4379Y8756D01*
G01X4383Y8759D01*
G01X4386Y8762D01*
G01X4389Y8765D01*
G01X4392Y8768D01*
G01X4395Y8771D01*
G01X4398Y8775D01*
G01X4401Y8778D01*
G01X4404Y8782D01*
G01X4406Y8786D01*
G01X4408Y8790D01*
G01X4411Y8793D01*
G01X4413Y8797D01*
G01X4414Y8802D01*
G01X4416Y8806D01*
G01X4418Y8810D01*
G01X4419Y8814D01*
G01X4420Y8818D01*
G01X4421Y8823D01*
G01X4422Y8827D01*
G01X4423Y8832D01*
G01X4424Y8836D01*
G01X4424Y8841D01*
G01X4424Y8845D01*
G01X4425Y8850D01*
G01X4425Y9350D01*
G01X4424Y9354D01*
G01X4424Y9358D01*
G01X4424Y9363D01*
G01X4423Y9367D01*
G01X4422Y9372D01*
G01X4421Y9376D01*
G01X4420Y9381D01*
G01X4419Y9385D01*
G01X4418Y9389D01*
G01X4416Y9393D01*
G01X4414Y9397D01*
G01X4413Y9402D01*
G01X4411Y9406D01*
G01X4408Y9409D01*
G01X4406Y9413D01*
G01X4404Y9417D01*
G01X4401Y9421D01*
G01X4398Y9424D01*
G01X4395Y9428D01*
G01X4392Y9431D01*
G01X4389Y9434D01*
G01X4386Y9437D01*
G01X4383Y9440D01*
G01X4379Y9443D01*
G01X4376Y9446D01*
G01X4372Y9449D01*
G01X4368Y9451D01*
G01X4365Y9453D01*
G01X4361Y9456D01*
G01X4357Y9458D01*
G01X4352Y9459D01*
G01X4350Y9461D01*
G01X4350Y9838D01*
G01X4352Y9840D01*
G01X4357Y9841D01*
G01X4361Y9843D01*
G01X4365Y9846D01*
G01X4368Y9848D01*
G01X4372Y9850D01*
G01X4376Y9853D01*
G01X4379Y9856D01*
G01X4383Y9859D01*
G01X4386Y9862D01*
G01X4389Y9865D01*
G01X4392Y9868D01*
G01X4395Y9871D01*
G01X4398Y9875D01*
G01X4401Y9878D01*
G01X4404Y9882D01*
G01X4406Y9886D01*
G01X4408Y9890D01*
G01X4411Y9893D01*
G01X4413Y9897D01*
G01X4414Y9902D01*
G01X4416Y9906D01*
G01X4418Y9910D01*
G01X4419Y9914D01*
G01X4420Y9918D01*
G01X4421Y9923D01*
G01X4422Y9927D01*
G01X4423Y9932D01*
G01X4424Y9936D01*
G01X4424Y9941D01*
G01X4424Y9945D01*
G01X4425Y9950D01*
G01X4425Y10450D01*
G01X4424Y10454D01*
G01X4424Y10458D01*
G01X4424Y10463D01*
G01X4423Y10467D01*
G01X4422Y10472D01*
G01X4421Y10476D01*
G01X4420Y10481D01*
G01X4419Y10485D01*
G01X4418Y10489D01*
G01X4416Y10493D01*
G01X4414Y10497D01*
G01X4413Y10502D01*
G01X4411Y10506D01*
G01X4408Y10509D01*
G01X4406Y10513D01*
G01X4404Y10517D01*
G01X4401Y10521D01*
G01X4398Y10524D01*
G01X4395Y10528D01*
G01X4392Y10531D01*
G01X4389Y10534D01*
G01X4386Y10537D01*
G01X4383Y10540D01*
G01X4379Y10543D01*
G01X4376Y10546D01*
G01X4372Y10549D01*
G01X4368Y10551D01*
G01X4365Y10553D01*
G01X4361Y10556D01*
G01X4357Y10558D01*
G01X4352Y10559D01*
G01X4350Y10561D01*
G01X4350Y10938D01*
G01X4352Y10940D01*
G01X4357Y10941D01*
G01X4361Y10943D01*
G01X4365Y10946D01*
G01X4368Y10948D01*
G01X4372Y10950D01*
G01X4376Y10953D01*
G01X4379Y10956D01*
G01X4383Y10959D01*
G01X4386Y10962D01*
G01X4389Y10965D01*
G01X4392Y10968D01*
G01X4395Y10971D01*
G01X4398Y10975D01*
G01X4401Y10978D01*
G01X4404Y10982D01*
G01X4406Y10986D01*
G01X4408Y10990D01*
G01X4411Y10993D01*
G01X4413Y10997D01*
G01X4414Y11002D01*
G01X4416Y11006D01*
G01X4418Y11010D01*
G01X4419Y11014D01*
G01X4420Y11018D01*
G01X4421Y11023D01*
G01X4422Y11027D01*
G01X4423Y11032D01*
G01X4424Y11036D01*
G01X4424Y11041D01*
G01X4424Y11045D01*
G01X4425Y11050D01*
G01X4425Y11550D01*
G01X4424Y11554D01*
G01X4424Y11558D01*
G01X4424Y11563D01*
G01X4423Y11567D01*
G01X4422Y11572D01*
G01X4421Y11576D01*
G01X4420Y11581D01*
G01X4419Y11585D01*
G01X4418Y11589D01*
G01X4416Y11593D01*
G01X4414Y11597D01*
G01X4413Y11602D01*
G01X4411Y11606D01*
G01X4408Y11609D01*
G01X4406Y11613D01*
G01X4404Y11617D01*
G01X4401Y11621D01*
G01X4398Y11624D01*
G01X4395Y11628D01*
G01X4392Y11631D01*
G01X4389Y11634D01*
G01X4386Y11637D01*
G01X4383Y11640D01*
G01X4379Y11643D01*
G01X4376Y11646D01*
G01X4372Y11649D01*
G01X4368Y11651D01*
G01X4365Y11653D01*
G01X4361Y11656D01*
G01X4357Y11658D01*
G01X4352Y11659D01*
G01X4350Y11661D01*
G01X4350Y12038D01*
G01X4352Y12040D01*
G01X4357Y12041D01*
G01X4361Y12043D01*
G01X4365Y12046D01*
G01X4368Y12048D01*
G01X4372Y12050D01*
G01X4376Y12053D01*
G01X4379Y12056D01*
G01X4383Y12059D01*
G01X4386Y12062D01*
G01X4389Y12065D01*
G01X4392Y12068D01*
G01X4395Y12071D01*
G01X4398Y12075D01*
G01X4401Y12078D01*
G01X4404Y12082D01*
G01X4406Y12086D01*
G01X4408Y12090D01*
G01X4411Y12093D01*
G01X4413Y12097D01*
G01X4414Y12102D01*
G01X4416Y12106D01*
G01X4418Y12110D01*
G01X4419Y12114D01*
G01X4420Y12118D01*
G01X4421Y12123D01*
G01X4422Y12127D01*
G01X4423Y12132D01*
G01X4424Y12136D01*
G01X4424Y12141D01*
G01X4424Y12145D01*
G01X4425Y12150D01*
G01X4425Y12650D01*
G01X4424Y12654D01*
G01X4424Y12658D01*
G01X4424Y12663D01*
G01X4423Y12667D01*
G01X4422Y12672D01*
G01X4421Y12676D01*
G01X4420Y12681D01*
G01X4419Y12685D01*
G01X4418Y12689D01*
G01X4416Y12693D01*
G01X4414Y12697D01*
G01X4413Y12702D01*
G01X4411Y12706D01*
G01X4408Y12709D01*
G01X4406Y12713D01*
G01X4404Y12717D01*
G01X4401Y12721D01*
G01X4398Y12724D01*
G01X4395Y12728D01*
G01X4392Y12731D01*
G01X4389Y12734D01*
G01X4386Y12737D01*
G01X4383Y12740D01*
G01X4379Y12743D01*
G01X4376Y12746D01*
G01X4372Y12749D01*
G01X4368Y12751D01*
G01X4365Y12753D01*
G01X4361Y12756D01*
G01X4357Y12758D01*
G01X4352Y12759D01*
G01X4350Y12761D01*
G01X4350Y13663D01*
G01X4402Y13663D01*
G01X4407Y13663D01*
G01X4411Y13663D01*
G01X4416Y13664D01*
G01X4420Y13664D01*
G01X4425Y13665D01*
G01X4429Y13666D01*
G01X4433Y13667D01*
G01X4438Y13668D01*
G01X4442Y13670D01*
G01X4446Y13671D01*
G01X4450Y13673D01*
G01X4454Y13675D01*
G01X4458Y13677D01*
G01X4462Y13679D01*
G01X4466Y13681D01*
G01X4470Y13684D01*
G01X4474Y13687D01*
G01X4477Y13689D01*
G01X4481Y13692D01*
G01X4484Y13695D01*
G01X4487Y13698D01*
G01X4490Y13701D01*
G01X4493Y13705D01*
G01X4496Y13708D01*
G01X4499Y13712D01*
G01X4502Y13715D01*
G01X4504Y13719D01*
G01X4506Y13723D01*
G01X4508Y13727D01*
G01X4511Y13731D01*
G01X4512Y13735D01*
G01X4514Y13739D01*
G01X4516Y13743D01*
G01X4517Y13748D01*
G01X4518Y13752D01*
G01X4519Y13756D01*
G01X4520Y13761D01*
G01X4520Y13762D01*
G01X4521Y13761D01*
G01X4522Y13756D01*
G01X4523Y13752D01*
G01X4524Y13748D01*
G01X4525Y13743D01*
G01X4527Y13739D01*
G01X4529Y13735D01*
G01X4530Y13731D01*
G01X4532Y13727D01*
G01X4535Y13723D01*
G01X4537Y13719D01*
G01X4539Y13715D01*
G01X4542Y13712D01*
G01X4545Y13708D01*
G01X4548Y13705D01*
G01X4551Y13701D01*
G01X4554Y13698D01*
G01X4557Y13695D01*
G01X4560Y13692D01*
G01X4564Y13689D01*
G01X4567Y13687D01*
G01X4571Y13684D01*
G01X4575Y13681D01*
G01X4578Y13679D01*
G01X4582Y13677D01*
G01X4586Y13675D01*
G01X4591Y13673D01*
G01X4595Y13671D01*
G01X4599Y13670D01*
G01X4603Y13668D01*
G01X4607Y13667D01*
G01X4612Y13666D01*
G01X4616Y13665D01*
G01X4621Y13664D01*
G01X4625Y13664D01*
G01X4630Y13663D01*
G01X4634Y13663D01*
G01X4638Y13663D01*
G01X5032Y13663D01*
G01X5037Y13663D01*
G01X5041Y13663D01*
G01X5046Y13664D01*
G01X5050Y13664D01*
G01X5055Y13665D01*
G01X5059Y13666D01*
G01X5063Y13667D01*
G01X5068Y13668D01*
G01X5072Y13670D01*
G01X5076Y13671D01*
G01X5080Y13673D01*
G01X5084Y13675D01*
G01X5088Y13677D01*
G01X5092Y13679D01*
G01X5096Y13681D01*
G01X5100Y13684D01*
G01X5103Y13687D01*
G01X5107Y13689D01*
G01X5110Y13692D01*
G01X5114Y13695D01*
G01X5117Y13698D01*
G01X5120Y13701D01*
G01X5123Y13705D01*
G01X5126Y13708D01*
G01X5129Y13712D01*
G01X5131Y13715D01*
G01X5134Y13719D01*
G01X5136Y13723D01*
G01X5138Y13727D01*
G01X5140Y13731D01*
G01X5142Y13735D01*
G01X5144Y13739D01*
G01X5145Y13743D01*
G01X5147Y13748D01*
G01X5148Y13752D01*
G01X5149Y13756D01*
G01X5150Y13761D01*
G01X5151Y13765D01*
G01X5151Y13770D01*
G01X5152Y13774D01*
G01X5152Y13779D01*
G01X5152Y13783D01*
G01X5152Y14216D01*
G01X5152Y14221D01*
G01X5152Y14225D01*
G01X5151Y14230D01*
G01X5151Y14234D01*
G01X5150Y14238D01*
G01X5149Y14243D01*
G01X5148Y14247D01*
G01X5147Y14251D01*
G01X5145Y14256D01*
G01X5144Y14260D01*
G01X5142Y14264D01*
G01X5140Y14268D01*
G01X5138Y14272D01*
G01X5136Y14276D01*
G01X5134Y14280D01*
G01X5357Y14280D01*
G01X5355Y14276D01*
G01X5353Y14272D01*
G01X5351Y14268D01*
G01X5349Y14264D01*
G01X5347Y14260D01*
G01X5345Y14256D01*
G01X5344Y14251D01*
G01X5343Y14247D01*
G01X5342Y14243D01*
G01X5341Y14238D01*
G01X5340Y14234D01*
G01X5339Y14230D01*
G01X5339Y14225D01*
G01X5339Y14221D01*
G01X5339Y14216D01*
G01X5339Y13783D01*
G01X5339Y13779D01*
G01X5339Y13774D01*
G01X5339Y13770D01*
G01X5340Y13765D01*
G01X5341Y13761D01*
G01X5342Y13756D01*
G01X5343Y13752D01*
G01X5344Y13748D01*
G01X5345Y13743D01*
G01X5347Y13739D01*
G01X5349Y13735D01*
G01X5351Y13731D01*
G01X5353Y13727D01*
G01X5355Y13723D01*
G01X5357Y13719D01*
G01X5360Y13715D01*
G01X5362Y13712D01*
G01X5365Y13708D01*
G01X5368Y13705D01*
G01X5371Y13701D01*
G01X5374Y13698D01*
G01X5377Y13695D01*
G01X5380Y13692D01*
G01X5384Y13689D01*
G01X5387Y13687D01*
G01X5391Y13684D01*
G01X5395Y13681D01*
G01X5399Y13679D01*
G01X5403Y13677D01*
G01X5407Y13675D01*
G01X5411Y13673D01*
G01X5415Y13671D01*
G01X5419Y13670D01*
G01X5423Y13668D01*
G01X5428Y13667D01*
G01X5432Y13666D01*
G01X5436Y13665D01*
G01X5441Y13664D01*
G01X5445Y13664D01*
G01X5450Y13663D01*
G01X5454Y13663D01*
G01X5459Y13663D01*
G01X5475Y13663D01*
G01X5475Y12938D01*
G01X5473Y12944D01*
G01X5462Y12965D01*
G01X5449Y12986D01*
G01X5435Y13005D01*
G01X5418Y13023D01*
G01X5400Y13039D01*
G01X5381Y13053D01*
G01X5360Y13065D01*
G01X5338Y13075D01*
G01X5315Y13082D01*
G01X5292Y13088D01*
G01X5268Y13091D01*
G01X5243Y13091D01*
G01X5219Y13090D01*
G01X5196Y13085D01*
G01X5172Y13079D01*
G01X5150Y13070D01*
G01X5128Y13059D01*
G01X5108Y13046D01*
G01X5089Y13031D01*
G01X5072Y13014D01*
G01X5057Y12996D01*
G01X5043Y12976D01*
G01X5031Y12955D01*
G01X5022Y12932D01*
G01X5015Y12909D01*
G01X5010Y12886D01*
G01X5008Y12862D01*
G01X5008Y12837D01*
G01X5010Y12813D01*
G01X5015Y12790D01*
G01X5022Y12767D01*
G01X5031Y12744D01*
G01X5038Y12732D01*
G01X5038Y12731D01*
G01X5036Y12728D01*
G01X5033Y12724D01*
G01X5031Y12720D01*
G01X5030Y12715D01*
G01X5028Y12711D01*
G01X5026Y12707D01*
G01X5025Y12703D01*
G01X5024Y12699D01*
G01X5023Y12694D01*
G01X5022Y12690D01*
G01X5021Y12685D01*
G01X5020Y12681D01*
G01X5020Y12676D01*
G01X5020Y12672D01*
G01X5019Y12667D01*
G01X5019Y12167D01*
G01X5020Y12163D01*
G01X5020Y12159D01*
G01X5020Y12154D01*
G01X5021Y12150D01*
G01X5022Y12145D01*
G01X5023Y12141D01*
G01X5024Y12136D01*
G01X5025Y12132D01*
G01X5026Y12128D01*
G01X5028Y12124D01*
G01X5030Y12120D01*
G01X5031Y12115D01*
G01X5033Y12111D01*
G01X5036Y12107D01*
G01X5038Y12104D01*
G01X5040Y12100D01*
G01X5043Y12096D01*
G01X5046Y12093D01*
G01X5049Y12089D01*
G01X5052Y12086D01*
G01X5055Y12083D01*
G01X5058Y12080D01*
G01X5061Y12077D01*
G01X5065Y12074D01*
G01X5068Y12071D01*
G01X5072Y12068D01*
G01X5076Y12066D01*
G01X5080Y12064D01*
G01X5083Y12061D01*
G01X5087Y12059D01*
G01X5092Y12058D01*
G01X5096Y12056D01*
G01X5100Y12054D01*
G01X5104Y12053D01*
G01X5108Y12052D01*
G01X5113Y12051D01*
G01X5117Y12050D01*
G01X5122Y12049D01*
G01X5126Y12048D01*
G01X5131Y12048D01*
G01X5135Y12048D01*
G01X5140Y12048D01*
G01X5390Y12048D01*
G01X5394Y12048D01*
G01X5398Y12048D01*
G01X5403Y12048D01*
G01X5407Y12049D01*
G01X5412Y12050D01*
G01X5416Y12051D01*
G01X5421Y12052D01*
G01X5425Y12053D01*
G01X5429Y12054D01*
G01X5433Y12056D01*
G01X5437Y12058D01*
G01X5442Y12059D01*
G01X5446Y12061D01*
G01X5450Y12064D01*
G01X5453Y12066D01*
G01X5455Y12067D01*
G01X5456Y12066D01*
G01X5459Y12064D01*
G01X5463Y12061D01*
G01X5467Y12059D01*
G01X5472Y12058D01*
G01X5475Y12056D01*
G01X5475Y11838D01*
G01X5473Y11844D01*
G01X5462Y11865D01*
G01X5449Y11886D01*
G01X5435Y11905D01*
G01X5418Y11923D01*
G01X5400Y11939D01*
G01X5381Y11953D01*
G01X5360Y11965D01*
G01X5338Y11975D01*
G01X5315Y11982D01*
G01X5292Y11988D01*
G01X5268Y11991D01*
G01X5243Y11991D01*
G01X5219Y11990D01*
G01X5196Y11985D01*
G01X5172Y11979D01*
G01X5150Y11970D01*
G01X5128Y11959D01*
G01X5108Y11946D01*
G01X5089Y11931D01*
G01X5072Y11914D01*
G01X5057Y11896D01*
G01X5043Y11876D01*
G01X5031Y11855D01*
G01X5022Y11832D01*
G01X5015Y11809D01*
G01X5010Y11786D01*
G01X5008Y11762D01*
G01X5008Y11737D01*
G01X5010Y11713D01*
G01X5015Y11690D01*
G01X5022Y11667D01*
G01X5031Y11644D01*
G01X5038Y11633D01*
G01X5037Y11631D01*
G01X5034Y11628D01*
G01X5031Y11624D01*
G01X5028Y11621D01*
G01X5025Y11617D01*
G01X5023Y11613D01*
G01X5021Y11609D01*
G01X5018Y11606D01*
G01X5016Y11602D01*
G01X5015Y11597D01*
G01X5013Y11593D01*
G01X5011Y11589D01*
G01X5010Y11585D01*
G01X5009Y11581D01*
G01X5008Y11576D01*
G01X5007Y11572D01*
G01X5006Y11567D01*
G01X5005Y11563D01*
G01X5005Y11558D01*
G01X5005Y11554D01*
G01X5005Y11550D01*
G01X5005Y11050D01*
G01X5005Y11045D01*
G01X5005Y11041D01*
G01X5005Y11036D01*
G01X5006Y11032D01*
G01X5007Y11027D01*
G01X5008Y11023D01*
G01X5009Y11018D01*
G01X5010Y11014D01*
G01X5011Y11010D01*
G01X5013Y11006D01*
G01X5015Y11002D01*
G01X5016Y10997D01*
G01X5018Y10993D01*
G01X5021Y10990D01*
G01X5023Y10986D01*
G01X5025Y10982D01*
G01X5028Y10978D01*
G01X5031Y10975D01*
G01X5034Y10971D01*
G01X5037Y10968D01*
G01X5040Y10965D01*
G01X5043Y10962D01*
G01X5046Y10959D01*
G01X5050Y10956D01*
G01X5053Y10953D01*
G01X5057Y10950D01*
G01X5061Y10948D01*
G01X5065Y10946D01*
G01X5068Y10943D01*
G01X5072Y10941D01*
G01X5077Y10940D01*
G01X5081Y10938D01*
G01X5085Y10936D01*
G01X5089Y10935D01*
G01X5093Y10934D01*
G01X5098Y10933D01*
G01X5102Y10932D01*
G01X5107Y10931D01*
G01X5111Y10930D01*
G01X5116Y10930D01*
G01X5120Y10930D01*
G01X5125Y10930D01*
G01X5375Y10930D01*
G01X5379Y10930D01*
G01X5383Y10930D01*
G01X5388Y10930D01*
G01X5392Y10931D01*
G01X5397Y10932D01*
G01X5401Y10933D01*
G01X5406Y10934D01*
G01X5410Y10935D01*
G01X5414Y10936D01*
G01X5418Y10938D01*
G01X5422Y10940D01*
G01X5427Y10941D01*
G01X5431Y10943D01*
G01X5434Y10946D01*
G01X5438Y10948D01*
G01X5440Y10949D01*
G01X5441Y10948D01*
G01X5444Y10946D01*
G01X5448Y10943D01*
G01X5452Y10941D01*
G01X5457Y10940D01*
G01X5459Y10938D01*
G01X5459Y10769D01*
G01X5449Y10786D01*
G01X5435Y10805D01*
G01X5418Y10823D01*
G01X5400Y10839D01*
G01X5381Y10853D01*
G01X5360Y10865D01*
G01X5338Y10875D01*
G01X5315Y10882D01*
G01X5292Y10888D01*
G01X5268Y10891D01*
G01X5243Y10891D01*
G01X5219Y10890D01*
G01X5196Y10885D01*
G01X5172Y10879D01*
G01X5150Y10870D01*
G01X5128Y10859D01*
G01X5108Y10846D01*
G01X5089Y10831D01*
G01X5072Y10814D01*
G01X5057Y10796D01*
G01X5043Y10776D01*
G01X5031Y10755D01*
G01X5022Y10732D01*
G01X5015Y10709D01*
G01X5010Y10686D01*
G01X5008Y10662D01*
G01X5008Y10637D01*
G01X5010Y10613D01*
G01X5015Y10590D01*
G01X5022Y10567D01*
G01X5031Y10544D01*
G01X5038Y10533D01*
G01X5037Y10531D01*
G01X5034Y10528D01*
G01X5031Y10524D01*
G01X5028Y10521D01*
G01X5025Y10517D01*
G01X5023Y10513D01*
G01X5021Y10509D01*
G01X5018Y10506D01*
G01X5016Y10502D01*
G01X5015Y10497D01*
G01X5013Y10493D01*
G01X5011Y10489D01*
G01X5010Y10485D01*
G01X5009Y10481D01*
G01X5008Y10476D01*
G01X5007Y10472D01*
G01X5006Y10467D01*
G01X5005Y10463D01*
G01X5005Y10458D01*
G01X5005Y10454D01*
G01X5005Y10450D01*
G01X5005Y9950D01*
G01X5005Y9945D01*
G01X5005Y9941D01*
G01X5005Y9936D01*
G01X5006Y9932D01*
G01X5007Y9927D01*
G01X5008Y9923D01*
G01X5009Y9918D01*
G01X5010Y9914D01*
G01X5011Y9910D01*
G01X5013Y9906D01*
G01X5015Y9902D01*
G01X5016Y9897D01*
G01X5018Y9893D01*
G01X5021Y9890D01*
G01X5023Y9886D01*
G01X5025Y9882D01*
G01X5028Y9878D01*
G01X5031Y9875D01*
G01X5034Y9871D01*
G01X5037Y9868D01*
G01X5040Y9865D01*
G01X5043Y9862D01*
G01X5046Y9859D01*
G01X5050Y9856D01*
G01X5053Y9853D01*
G01X5057Y9850D01*
G01X5061Y9848D01*
G01X5065Y9846D01*
G01X5068Y9843D01*
G01X5072Y9841D01*
G01X5077Y9840D01*
G01X5081Y9838D01*
G01X5085Y9836D01*
G01X5089Y9835D01*
G01X5093Y9834D01*
G01X5098Y9833D01*
G01X5102Y9832D01*
G01X5107Y9831D01*
G01X5111Y9830D01*
G01X5116Y9830D01*
G01X5120Y9830D01*
G01X5125Y9830D01*
G01X5375Y9830D01*
G01X5379Y9830D01*
G01X5383Y9830D01*
G01X5388Y9830D01*
G01X5392Y9831D01*
G01X5397Y9832D01*
G01X5401Y9833D01*
G01X5406Y9834D01*
G01X5410Y9835D01*
G01X5414Y9836D01*
G01X5418Y9838D01*
G01X5422Y9840D01*
G01X5427Y9841D01*
G01X5431Y9843D01*
G01X5434Y9846D01*
G01X5438Y9848D01*
G01X5440Y9849D01*
G01X5441Y9848D01*
G01X5444Y9846D01*
G01X5448Y9843D01*
G01X5452Y9841D01*
G01X5457Y9840D01*
G01X5459Y9838D01*
G01X5459Y9669D01*
G01X5449Y9686D01*
G01X5435Y9705D01*
G01X5418Y9723D01*
G01X5400Y9739D01*
G01X5381Y9753D01*
G01X5360Y9765D01*
G01X5338Y9775D01*
G01X5315Y9782D01*
G01X5292Y9788D01*
G01X5268Y9791D01*
G01X5243Y9791D01*
G01X5219Y9790D01*
G01X5196Y9785D01*
G01X5172Y9779D01*
G01X5150Y9770D01*
G01X5128Y9759D01*
G01X5108Y9746D01*
G01X5089Y9731D01*
G01X5072Y9714D01*
G01X5057Y9696D01*
G01X5043Y9676D01*
G01X5031Y9655D01*
G01X5022Y9632D01*
G01X5015Y9609D01*
G01X5010Y9586D01*
G01X5008Y9562D01*
G01X5008Y9537D01*
G01X5010Y9513D01*
G01X5015Y9490D01*
G01X5022Y9467D01*
G01X5031Y9444D01*
G01X5038Y9433D01*
G01X5037Y9431D01*
G01X5034Y9428D01*
G01X5031Y9424D01*
G01X5028Y9421D01*
G01X5025Y9417D01*
G01X5023Y9413D01*
G01X5021Y9409D01*
G01X5018Y9406D01*
G01X5016Y9402D01*
G01X5015Y9397D01*
G01X5013Y9393D01*
G01X5011Y9389D01*
G01X5010Y9385D01*
G01X5009Y9381D01*
G01X5008Y9376D01*
G01X5007Y9372D01*
G01X5006Y9367D01*
G01X5005Y9363D01*
G01X5005Y9358D01*
G01X5005Y9354D01*
G01X5005Y9350D01*
G01X5005Y8850D01*
G01X5005Y8845D01*
G01X5005Y8841D01*
G01X5005Y8836D01*
G01X5006Y8832D01*
G01X5007Y8827D01*
G01X5008Y8823D01*
G01X5009Y8818D01*
G01X5010Y8814D01*
G01X5011Y8810D01*
G01X5013Y8806D01*
G01X5015Y8802D01*
G01X5016Y8797D01*
G01X5018Y8793D01*
G01X5021Y8790D01*
G01X5023Y8786D01*
G01X5025Y8782D01*
G01X5028Y8778D01*
G01X5031Y8775D01*
G01X5034Y8771D01*
G01X5035Y8769D01*
G01X4500Y8769D01*
G01X4494Y8769D01*
G01X4488Y8769D01*
G01X4483Y8769D01*
G01X4477Y8768D01*
G01X4472Y8767D01*
G01X4466Y8766D01*
G01X4461Y8765D01*
G01X4455Y8764D01*
G01X4450Y8762D01*
G01X4445Y8760D01*
G01X4440Y8759D01*
G01X4434Y8757D01*
G01X4429Y8754D01*
G01X4424Y8752D01*
G01X4419Y8749D01*
G01X4415Y8747D01*
G01X4410Y8744D01*
G01X4405Y8741D01*
G01X4400Y8738D01*
G01X4396Y8734D01*
G01X4392Y8731D01*
G01X4387Y8727D01*
G01X4383Y8724D01*
G01X4379Y8720D01*
G01X4369Y8710D01*
G37*

%LPC*%

%LPD*%
G54D10*
G01X8000Y10650D02*
G01X8500Y10650D01*
G01X8500Y10300D01*
G01X8600Y10200D01*
G01X8000Y9550D02*
G01X8500Y9550D01*
G01X8500Y9050D01*
G01X11500Y5500D02*
G01X11300Y5500D01*
G01X11000Y5800D01*
G01X11000Y6300D01*
G01X10800Y6500D01*
G01X10800Y7300D01*
G01X11500Y4500D02*
G01X11300Y4500D01*
G01X11000Y4800D01*
G01X11000Y5500D01*
G01X10800Y5700D01*
G01X10800Y6200D01*
G01X10600Y6400D01*
G01X10600Y7200D01*
G01X8000Y11750D02*
G01X8400Y11750D01*
G01X8600Y11550D01*
G01X8600Y11250D01*
G01X8700Y3100D02*
G01X8700Y3400D01*
G01X10400Y5100D01*
G01X10400Y7400D01*
G01X10100Y7700D01*
G01X7950Y12850D02*
G01X8400Y12850D01*
G01X8600Y12650D01*
G01X8600Y12350D01*
G01X2850Y8100D02*
G01X2850Y7200D01*
G01X7550Y2300D02*
G01X6000Y2300D01*
G01X5200Y1500D01*
G01X2500Y7800D02*
G01X2500Y7200D01*
G01X2850Y5950D02*
G01X2850Y4800D01*
G01X2500Y5950D02*
G01X2500Y4800D01*
G01X3200Y5950D02*
G01X3200Y4800D01*
G54D12*
G01X7130Y9100D02*
G01X7130Y10200D01*
G01X7130Y10200D01*
G01X7130Y10200D02*
G01X7130Y11300D01*
G01X7130Y11300D01*
G01X7113Y12417D02*
G01X7113Y11317D01*
G01X7130Y11300D01*
G54D10*
G01X4180Y12400D02*
G01X4180Y12400D01*
G01X4180Y11300D01*
G01X4180Y10200D02*
G01X4180Y10200D01*
G01X4180Y11300D01*
G01X4180Y9100D02*
G01X4180Y10200D01*
G01X5644Y12417D02*
G01X5644Y11315D01*
G01X5630Y11300D01*
G01X5630Y11300D02*
G01X5630Y10200D01*
G01X5630Y10200D01*
G01X5630Y10200D02*
G01X5630Y9100D01*
G01X5630Y9100D01*
G01X5800Y1400D02*
G01X6000Y1600D01*
G01X7500Y1600D01*
G01X3900Y4800D02*
G01X3900Y5950D01*
G01X3550Y4800D02*
G01X3550Y5950D01*
G01X3800Y9550D02*
G01X3800Y9100D01*
G01X3800Y10650D02*
G01X3800Y10200D01*
G01X3800Y11750D02*
G01X3800Y11300D01*
G01X3800Y12850D02*
G01X3800Y12400D01*
G01X5250Y12850D02*
G01X5250Y12432D01*
G01X5265Y12417D01*
G01X5250Y11750D02*
G01X5250Y11300D01*
G01X5250Y10650D02*
G01X5250Y10200D01*
G01X5250Y9550D02*
G01X5250Y9100D01*
G01X6750Y9550D02*
G01X6750Y9100D01*
G01X6750Y10650D02*
G01X6750Y10200D01*
G01X6750Y11750D02*
G01X6750Y11300D01*
G01X6750Y12850D02*
G01X6750Y12434D01*
G01X6732Y12417D01*
G01X4180Y12400D02*
G01X4180Y13973D01*
G01X4205Y14000D01*
G01X5644Y12417D02*
G01X5644Y13988D01*
G01X5655Y14000D01*
G54D12*
G01X4836Y14000D02*
G01X4836Y14386D01*
G01X4950Y14500D01*
G01X6150Y14500D01*
G01X6250Y14400D01*
G01X6250Y14036D01*
G01X6286Y14000D01*
G54D10*
G01X1900Y8400D02*
G01X1900Y7900D01*
G01X1500Y7500D01*
G01X500Y7500D01*
G01X3900Y7200D02*
G01X4200Y7500D01*
G01X4200Y9080D01*
G01X4180Y9100D01*
G01X3550Y6900D02*
G01X4000Y6900D01*
G01X4400Y7300D01*
G01X4400Y8500D01*
G01X4500Y8600D01*
G01X5550Y8600D01*
G01X5650Y8700D01*
G01X5650Y9080D01*
G01X5630Y9100D01*
G01X11500Y7500D02*
G01X11000Y8000D01*
G01X11000Y8500D01*
G01X11500Y6500D02*
G01X11000Y7000D01*
G01X11000Y7700D01*
G01X10800Y7900D01*
G01X10800Y8500D01*
G01X10800Y7300D02*
G01X10800Y7600D01*
G01X10600Y7800D01*
G01X10600Y8500D01*
G01X10600Y7200D02*
G01X10600Y7500D01*
G01X10400Y7700D01*
G01X10400Y8500D01*
G01X10400Y8500D02*
G01X10400Y8900D01*
G01X10200Y9100D01*
G01X8600Y9100D01*
G01X10600Y8500D02*
G01X10600Y9000D01*
G01X10300Y9300D01*
G01X9200Y9300D01*
G01X8900Y9600D01*
G01X8900Y10100D01*
G01X8800Y10200D01*
G01X8600Y10200D01*
G01X10800Y8500D02*
G01X10800Y9100D01*
G01X10400Y9500D01*
G01X9300Y9500D01*
G01X9100Y9700D01*
G01X9100Y10200D01*
G01X8900Y10400D01*
G01X8900Y11200D01*
G01X8800Y11300D01*
G01X8600Y11300D01*
G01X11000Y8500D02*
G01X11000Y9200D01*
G01X10500Y9700D01*
G01X9400Y9700D01*
G01X9300Y9800D01*
G01X9300Y10300D01*
G01X9100Y10500D01*
G01X9100Y11300D01*
G01X8900Y11500D01*
G01X8900Y12300D01*
G01X8800Y12400D01*
G01X8600Y12400D01*
G54D12*
G01X8500Y14500D02*
G01X6150Y14500D01*
G01X7113Y12417D02*
G01X7113Y14482D01*
G01X7094Y14500D01*
G01X7130Y9100D02*
G01X7130Y8769D01*
G01X7600Y8300D01*
G01X9500Y8300D01*
G01X9700Y8100D01*
G01X9700Y7700D01*
G54D10*
G01X10100Y7700D02*
G01X10100Y7850D01*
G54D29*
G01X4206Y14000D03*
G01X4835Y14000D03*
G01X5656Y14000D03*
G01X6285Y14000D03*
G54D20*
G01X8219Y12400D03*
G01X8600Y12400D03*
G01X8219Y11300D03*
G01X8600Y11300D03*
G01X8219Y10200D03*
G01X8600Y10200D03*
G01X8219Y9100D03*
G01X8600Y9100D03*
G01X7113Y12417D03*
G01X6732Y12417D03*
G01X7130Y11300D03*
G01X6750Y11300D03*
G01X7130Y10200D03*
G01X6750Y10200D03*
G01X7130Y9100D03*
G01X6750Y9100D03*
G01X5630Y11300D03*
G01X5250Y11300D03*
G01X5630Y10200D03*
G01X5250Y10200D03*
G01X5630Y9100D03*
G01X5250Y9100D03*
G01X4180Y12400D03*
G01X3800Y12400D03*
G01X4180Y11300D03*
G01X3800Y11300D03*
G01X4180Y10200D03*
G01X3800Y10200D03*
G01X4180Y9100D03*
G01X3800Y9100D03*
G01X5644Y12417D03*
G01X5265Y12417D03*
G54D30*
G01X500Y14500D03*
G54D25*
G01X11500Y6500D03*
G01X11500Y5500D03*
G01X11500Y4500D03*
G01X500Y6500D03*
G01X3500Y500D03*
G01X4500Y500D03*
G01X5500Y500D03*
G01X6500Y500D03*
G01X7500Y500D03*
G01X1500Y2500D03*
G01X2500Y2500D03*
G01X500Y3500D03*
G01X1500Y3500D03*
G01X2500Y3500D03*
G01X11500Y7500D03*
G01X500Y2500D03*
G01X500Y5500D03*
G54D26*
G01X500Y13700D03*
G54D25*
G01X500Y7500D03*
G01X2500Y500D03*
G54D27*
G01X11000Y12000D03*
G54D28*
G01X11000Y1000D03*
G01X1000Y1000D03*
G54D15*
G01X8000Y10650D03*
G01X8000Y9550D03*
G01X6750Y9550D03*
G01X5250Y9550D03*
G01X3800Y9550D03*
G01X3800Y10650D03*
G01X5250Y10650D03*
G01X6750Y10650D03*
G01X8000Y11750D03*
G01X6750Y11750D03*
G01X5250Y11750D03*
G01X3800Y11750D03*
G01X9700Y7700D03*
G01X8700Y3100D03*
G01X7500Y1600D03*
G01X7550Y2300D03*
G01X7950Y12850D03*
G01X6750Y12850D03*
G01X5250Y12850D03*
G01X3800Y12850D03*
G01X1900Y8400D03*
G01X2850Y8100D03*
G01X2850Y7200D03*
G01X5800Y1400D03*
G01X5200Y1500D03*
G01X2500Y7800D03*
G01X2500Y7200D03*
G01X2850Y5950D03*
G01X2500Y5950D03*
G01X3200Y5950D03*
G01X2850Y4800D03*
G01X2500Y4800D03*
G01X3200Y4800D03*
G01X8500Y14500D03*
G01X7600Y5600D03*
G01X7000Y5600D03*
G01X6400Y5600D03*
G01X7600Y5000D03*
G01X7000Y5000D03*
G01X7600Y4000D03*
G01X7600Y3500D03*
G01X7000Y3500D03*
G01X7000Y4000D03*
G01X6400Y4000D03*
G01X6400Y3500D03*
G01X5800Y3500D03*
G01X5800Y4000D03*
G01X5800Y4600D03*
G01X4650Y10100D03*
G01X4650Y11200D03*
G01X4650Y12300D03*
G01X6150Y12300D03*
G01X6150Y11200D03*
G01X6150Y10100D03*
G01X7650Y10100D03*
G01X7650Y11200D03*
G01X7650Y12300D03*
G01X7650Y13500D03*
G01X6150Y13500D03*
G01X4650Y13500D03*
G01X9200Y5600D03*
G01X9200Y5200D03*
G01X3900Y4800D03*
G01X3900Y5950D03*
G01X3900Y7200D03*
G01X3550Y4800D03*
G01X3550Y5950D03*
G01X3550Y6900D03*
G01X900Y4800D03*
G01X1400Y4800D03*
G01X900Y4300D03*
G01X600Y10100D03*
G01X600Y11200D03*
G01X11500Y10100D03*
G01X11500Y11200D03*
G01X3250Y10100D03*
G01X3250Y11200D03*
G01X3250Y12300D03*
G01X3250Y13500D03*
G01X8800Y7900D03*
G01X9200Y7900D03*
G01X4300Y6700D03*
G01X4700Y6700D03*
G01X1000Y1650D03*
G01X450Y1350D03*
G01X450Y650D03*
G01X1000Y350D03*
G01X1550Y650D03*
G01X1550Y1350D03*
G01X11000Y1650D03*
G01X10450Y1350D03*
G01X10450Y650D03*
G01X11000Y350D03*
G01X11550Y650D03*
G01X11550Y1350D03*
G01X4400Y1800D03*
G01X3900Y1800D03*
G01X9400Y2000D03*
G01X10100Y7850D03*
G01X8350Y2450D03*
M00*
M02*
