G04 ---------------------------- Layer name :TOP SILK LAYER*
G04 EasyEDA v5.5.15, Tue, 26 Jun 2018 10:07:45 GMT*
G04 6b00658ecf034e76a6cd097d3bdf46c6*
G04 Gerber Generator version 0.2*
G04 Scale: 100 percent, Rotated: No, Reflected: No *
G04 Dimensions in inches *
G04 leading zeros omitted , absolute positions ,2 integer and 4 decimal *
%FSLAX24Y24*%
%MOIN*%
G90*
G70D02*

%ADD10C,0.010000*%
%ADD31C,0.004000*%
%ADD32C,0.007874*%
%ADD33C,0.008000*%
%ADD34C,0.007992*%
%ADD35C,0.011811*%
%ADD36C,0.015748*%
%ADD37C,0.007000*%
%ADD38C,0.006000*%

%LPD*%
G54D10*
G01X7100Y7600D02*
G01X7100Y7100D01*
G01X6500Y7100D01*
G01X6500Y7600D01*
G01X7100Y7800D02*
G01X7100Y8300D01*
G01X6500Y8300D01*
G01X6500Y7800D01*
G01X6000Y7800D02*
G01X5767Y7475D01*
G01X6232Y7475D01*
G01X6000Y7800D01*
G54D31*
G01X10630Y8680D02*
G01X10630Y8430D01*
G01X10969Y8430D01*
G01X10969Y8640D01*
G01X10969Y8680D01*
G01X10969Y8830D02*
G01X10969Y9069D01*
G01X10630Y9069D01*
G01X10630Y8859D01*
G01X10630Y8830D01*
G01X11130Y14230D02*
G01X11130Y13980D01*
G01X11469Y13980D01*
G01X11469Y14190D01*
G01X11469Y14230D01*
G01X11469Y14380D02*
G01X11469Y14619D01*
G01X11130Y14619D01*
G01X11130Y14409D01*
G01X11130Y14380D01*
G54D10*
G01X9710Y2748D02*
G01X9710Y2119D01*
G01X9710Y2119D02*
G01X10101Y2119D01*
G01X9710Y2748D02*
G01X9710Y3378D01*
G01X9710Y3378D02*
G01X10101Y3378D01*
G01X10101Y3378D02*
G01X10490Y3378D01*
G01X10490Y3378D02*
G01X10490Y2748D01*
G01X10101Y2119D02*
G01X10490Y2119D01*
G01X10490Y2119D02*
G01X10490Y2748D01*
G54D32*
G01X9714Y927D02*
G01X9714Y494D01*
G01X9084Y494D01*
G01X9084Y927D01*
G01X9714Y1242D02*
G01X9714Y1675D01*
G01X9321Y1675D01*
G01X9084Y1675D01*
G01X9084Y1242D01*
G01X10614Y4127D02*
G01X10614Y3694D01*
G01X9985Y3694D01*
G01X9985Y4127D01*
G01X10614Y4442D02*
G01X10614Y4875D01*
G01X10221Y4875D01*
G01X9985Y4875D01*
G01X9985Y4442D01*
G54D33*
G01X1000Y13200D02*
G01X0Y13200D01*
G01X0Y14200D01*
G01X1000Y14200D01*
G01X1000Y13450D01*
G54D34*
G01X1000Y13200D02*
G01X1000Y13450D01*
G54D32*
G01X11714Y2627D02*
G01X11714Y2194D01*
G01X11085Y2194D01*
G01X11085Y2627D01*
G01X11714Y2942D02*
G01X11714Y3375D01*
G01X11321Y3375D01*
G01X11085Y3375D01*
G01X11085Y2942D01*
G54D31*
G01X4230Y4530D02*
G01X4230Y4280D01*
G01X4569Y4280D01*
G01X4569Y4490D01*
G01X4569Y4530D01*
G01X4569Y4680D02*
G01X4569Y4919D01*
G01X4230Y4919D01*
G01X4230Y4709D01*
G01X4230Y4680D01*
G01X3669Y2369D02*
G01X3669Y2619D01*
G01X3330Y2619D01*
G01X3330Y2409D01*
G01X3330Y2369D01*
G01X3330Y2219D02*
G01X3330Y1980D01*
G01X3669Y1980D01*
G01X3669Y2190D01*
G01X3669Y2219D01*
G01X9269Y4669D02*
G01X9269Y4919D01*
G01X8930Y4919D01*
G01X8930Y4709D01*
G01X8930Y4669D01*
G01X8930Y4519D02*
G01X8930Y4280D01*
G01X9269Y4280D01*
G01X9269Y4490D01*
G01X9269Y4519D01*
G01X4230Y5480D02*
G01X4230Y5230D01*
G01X4569Y5230D01*
G01X4569Y5440D01*
G01X4569Y5480D01*
G01X4569Y5630D02*
G01X4569Y5869D01*
G01X4230Y5869D01*
G01X4230Y5659D01*
G01X4230Y5630D01*
G01X10530Y14230D02*
G01X10530Y13980D01*
G01X10869Y13980D01*
G01X10869Y14190D01*
G01X10869Y14230D01*
G01X10869Y14380D02*
G01X10869Y14619D01*
G01X10530Y14619D01*
G01X10530Y14409D01*
G01X10530Y14380D01*
G54D32*
G01X7284Y7872D02*
G01X7284Y8305D01*
G01X7915Y8305D01*
G01X7915Y7872D01*
G01X7284Y7557D02*
G01X7284Y7124D01*
G01X7678Y7124D01*
G01X7915Y7124D01*
G01X7915Y7557D01*
G54D10*
G01X8030Y1509D02*
G01X8650Y1509D01*
G01X7909Y1600D02*
G01X7909Y2200D01*
G01X8769Y1600D02*
G01X8769Y2200D01*
G01X8650Y2290D02*
G01X8030Y2290D01*
G01X9455Y6784D02*
G01X9455Y6525D01*
G01X9455Y6784D01*
G01X9455Y6525D01*
G01X9134Y6525D01*
G01X9134Y7674D02*
G01X9455Y7674D01*
G01X9455Y7415D01*
G54D32*
G01X8845Y7218D02*
G01X8845Y6981D01*
G54D10*
G01X10600Y6600D02*
G01X10600Y5600D01*
G01X10500Y6700D02*
G01X9900Y6700D01*
G01X10500Y5500D02*
G01X9900Y5500D01*
G01X9800Y5600D02*
G01X9800Y6600D01*
G01X1203Y5700D02*
G01X1203Y5000D01*
G01X2203Y5000D01*
G01X2203Y5700D01*
G01X2203Y6300D02*
G01X2203Y7000D01*
G01X1203Y7000D01*
G01X1203Y6300D01*
G01X9882Y8550D02*
G01X2123Y8550D01*
G01X2123Y8550D02*
G01X2123Y14850D01*
G01X2123Y14850D02*
G01X9882Y14850D01*
G01X9882Y14850D02*
G01X9882Y8550D01*
G01X7973Y12090D02*
G01X7973Y14059D01*
G01X7973Y14059D02*
G01X6003Y14059D01*
G01X6003Y14059D02*
G01X6003Y12090D01*
G01X6003Y12090D02*
G01X7973Y12090D01*
G01X7973Y8940D02*
G01X7973Y10130D01*
G01X7973Y10130D02*
G01X4032Y10130D01*
G01X4032Y10130D02*
G01X4032Y8940D01*
G01X4032Y8940D02*
G01X7973Y8940D01*
G01X5588Y3438D02*
G01X7911Y3438D01*
G01X7911Y5761D01*
G01X5588Y5761D01*
G01X5588Y3438D01*
G54D37*
G01X5099Y7476D02*
G01X5528Y7476D01*
G01X5099Y7476D02*
G01X5099Y7619D01*
G01X5119Y7681D01*
G01X5160Y7721D01*
G01X5201Y7742D01*
G01X5262Y7762D01*
G01X5364Y7762D01*
G01X5426Y7742D01*
G01X5467Y7721D01*
G01X5508Y7681D01*
G01X5528Y7619D01*
G01X5528Y7476D01*
G01X5180Y7897D02*
G01X5160Y7938D01*
G01X5099Y8000D01*
G01X5528Y8000D01*
G01X10780Y9472D02*
G01X10748Y9456D01*
G01X10716Y9424D01*
G01X10700Y9392D01*
G01X10700Y9328D01*
G01X10716Y9297D01*
G01X10748Y9265D01*
G01X10780Y9249D01*
G01X10827Y9233D01*
G01X10907Y9233D01*
G01X10955Y9249D01*
G01X10986Y9265D01*
G01X11018Y9297D01*
G01X11034Y9328D01*
G01X11034Y9392D01*
G01X11018Y9424D01*
G01X10986Y9456D01*
G01X10955Y9472D01*
G01X10700Y9656D02*
G01X10716Y9608D01*
G01X10748Y9593D01*
G01X10780Y9593D01*
G01X10811Y9608D01*
G01X10827Y9640D01*
G01X10843Y9704D01*
G01X10859Y9752D01*
G01X10891Y9783D01*
G01X10923Y9799D01*
G01X10971Y9799D01*
G01X11002Y9783D01*
G01X11018Y9768D01*
G01X11034Y9720D01*
G01X11034Y9656D01*
G01X11018Y9608D01*
G01X11002Y9593D01*
G01X10971Y9577D01*
G01X10923Y9577D01*
G01X10891Y9593D01*
G01X10859Y9624D01*
G01X10843Y9672D01*
G01X10827Y9736D01*
G01X10811Y9768D01*
G01X10780Y9783D01*
G01X10748Y9783D01*
G01X10716Y9768D01*
G01X10700Y9720D01*
G01X10700Y9656D01*
G01X11234Y13411D02*
G01X11202Y13394D01*
G01X11169Y13363D01*
G01X11153Y13330D01*
G01X11153Y13267D01*
G01X11169Y13236D01*
G01X11202Y13203D01*
G01X11234Y13188D01*
G01X11281Y13171D01*
G01X11360Y13171D01*
G01X11409Y13188D01*
G01X11439Y13203D01*
G01X11472Y13236D01*
G01X11488Y13267D01*
G01X11488Y13330D01*
G01X11472Y13363D01*
G01X11439Y13394D01*
G01X11409Y13411D01*
G01X11153Y13738D02*
G01X11488Y13578D01*
G01X11153Y13515D02*
G01X11153Y13738D01*
G01X9848Y3000D02*
G01X9848Y2761D01*
G01X9864Y2714D01*
G01X9897Y2682D01*
G01X9943Y2666D01*
G01X9976Y2666D01*
G01X10023Y2682D01*
G01X10056Y2714D01*
G01X10072Y2761D01*
G01X10072Y3000D01*
G01X10193Y2920D02*
G01X10193Y2936D01*
G01X10209Y2968D01*
G01X10223Y2984D01*
G01X10256Y3000D01*
G01X10319Y3000D01*
G01X10352Y2984D01*
G01X10368Y2968D01*
G01X10384Y2936D01*
G01X10384Y2904D01*
G01X10368Y2873D01*
G01X10335Y2825D01*
G01X10177Y2666D01*
G01X10398Y2666D01*
G01X8400Y575D02*
G01X8829Y575D01*
G01X8400Y575D02*
G01X8400Y759D01*
G01X8420Y820D01*
G01X8440Y841D01*
G01X8481Y861D01*
G01X8522Y861D01*
G01X8563Y841D01*
G01X8584Y820D01*
G01X8604Y759D01*
G01X8604Y575D01*
G01X8604Y718D02*
G01X8829Y861D01*
G01X8481Y996D02*
G01X8461Y1037D01*
G01X8400Y1099D01*
G01X8829Y1099D01*
G01X9600Y4749D02*
G01X9934Y4749D01*
G01X9600Y4749D02*
G01X9600Y4892D01*
G01X9616Y4940D01*
G01X9632Y4956D01*
G01X9664Y4972D01*
G01X9695Y4972D01*
G01X9727Y4956D01*
G01X9743Y4940D01*
G01X9759Y4892D01*
G01X9759Y4749D01*
G01X9759Y4860D02*
G01X9934Y4972D01*
G01X9680Y5093D02*
G01X9664Y5093D01*
G01X9632Y5109D01*
G01X9616Y5124D01*
G01X9600Y5156D01*
G01X9600Y5220D01*
G01X9616Y5252D01*
G01X9632Y5268D01*
G01X9664Y5284D01*
G01X9695Y5284D01*
G01X9727Y5268D01*
G01X9775Y5236D01*
G01X9934Y5077D01*
G01X9934Y5299D01*
G01X263Y14800D02*
G01X100Y14371D01*
G01X263Y14800D02*
G01X426Y14371D01*
G01X161Y14513D02*
G01X365Y14513D01*
G01X561Y14800D02*
G01X561Y14371D01*
G01X561Y14800D02*
G01X848Y14371D01*
G01X848Y14800D02*
G01X848Y14371D01*
G01X1126Y14800D02*
G01X1126Y14371D01*
G01X984Y14800D02*
G01X1269Y14800D01*
G01X11399Y1534D02*
G01X11733Y1534D01*
G01X11399Y1534D02*
G01X11399Y1676D01*
G01X11415Y1725D01*
G01X11431Y1740D01*
G01X11463Y1757D01*
G01X11495Y1757D01*
G01X11526Y1740D01*
G01X11542Y1725D01*
G01X11558Y1676D01*
G01X11558Y1534D01*
G01X11558Y1644D02*
G01X11733Y1757D01*
G01X11399Y2021D02*
G01X11622Y1861D01*
G01X11622Y2100D01*
G01X11399Y2021D02*
G01X11733Y2021D01*
G01X4280Y3915D02*
G01X4248Y3899D01*
G01X4215Y3867D01*
G01X4200Y3835D01*
G01X4200Y3771D01*
G01X4215Y3740D01*
G01X4248Y3708D01*
G01X4280Y3692D01*
G01X4326Y3676D01*
G01X4407Y3676D01*
G01X4455Y3692D01*
G01X4486Y3708D01*
G01X4517Y3740D01*
G01X4534Y3771D01*
G01X4534Y3835D01*
G01X4517Y3867D01*
G01X4486Y3899D01*
G01X4455Y3915D01*
G01X4263Y4020D02*
G01X4248Y4051D01*
G01X4200Y4099D01*
G01X4534Y4099D01*
G01X3879Y2373D02*
G01X3847Y2357D01*
G01X3816Y2325D01*
G01X3800Y2293D01*
G01X3800Y2229D01*
G01X3816Y2198D01*
G01X3847Y2166D01*
G01X3879Y2150D01*
G01X3927Y2134D01*
G01X4007Y2134D01*
G01X4054Y2150D01*
G01X4086Y2166D01*
G01X4118Y2198D01*
G01X4134Y2229D01*
G01X4134Y2293D01*
G01X4118Y2325D01*
G01X4086Y2357D01*
G01X4054Y2373D01*
G01X3800Y2509D02*
G01X3800Y2684D01*
G01X3927Y2589D01*
G01X3927Y2637D01*
G01X3943Y2669D01*
G01X3959Y2684D01*
G01X4007Y2700D01*
G01X4038Y2700D01*
G01X4086Y2684D01*
G01X4118Y2653D01*
G01X4134Y2605D01*
G01X4134Y2557D01*
G01X4118Y2509D01*
G01X4102Y2494D01*
G01X4070Y2478D01*
G01X9080Y3856D02*
G01X9048Y3840D01*
G01X9016Y3808D01*
G01X9000Y3776D01*
G01X9000Y3712D01*
G01X9016Y3681D01*
G01X9048Y3649D01*
G01X9080Y3633D01*
G01X9127Y3617D01*
G01X9207Y3617D01*
G01X9255Y3633D01*
G01X9286Y3649D01*
G01X9318Y3681D01*
G01X9334Y3712D01*
G01X9334Y3776D01*
G01X9318Y3808D01*
G01X9286Y3840D01*
G01X9255Y3856D01*
G01X9000Y4120D02*
G01X9223Y3961D01*
G01X9223Y4199D01*
G01X9000Y4120D02*
G01X9334Y4120D01*
G01X4279Y6273D02*
G01X4248Y6257D01*
G01X4216Y6225D01*
G01X4200Y6193D01*
G01X4200Y6129D01*
G01X4216Y6098D01*
G01X4248Y6066D01*
G01X4279Y6050D01*
G01X4327Y6034D01*
G01X4407Y6034D01*
G01X4454Y6050D01*
G01X4486Y6066D01*
G01X4518Y6098D01*
G01X4534Y6129D01*
G01X4534Y6193D01*
G01X4518Y6225D01*
G01X4486Y6257D01*
G01X4454Y6273D01*
G01X4279Y6393D02*
G01X4264Y6393D01*
G01X4232Y6409D01*
G01X4216Y6425D01*
G01X4200Y6457D01*
G01X4200Y6521D01*
G01X4216Y6553D01*
G01X4232Y6568D01*
G01X4264Y6584D01*
G01X4295Y6584D01*
G01X4327Y6568D01*
G01X4375Y6537D01*
G01X4534Y6378D01*
G01X4534Y6600D01*
G01X10634Y13375D02*
G01X10602Y13359D01*
G01X10569Y13326D01*
G01X10553Y13294D01*
G01X10553Y13230D01*
G01X10569Y13200D01*
G01X10602Y13167D01*
G01X10634Y13151D01*
G01X10681Y13136D01*
G01X10760Y13136D01*
G01X10809Y13151D01*
G01X10839Y13167D01*
G01X10872Y13200D01*
G01X10888Y13230D01*
G01X10888Y13294D01*
G01X10872Y13326D01*
G01X10839Y13359D01*
G01X10809Y13375D01*
G01X10553Y13671D02*
G01X10553Y13511D01*
G01X10697Y13496D01*
G01X10681Y13511D01*
G01X10664Y13559D01*
G01X10664Y13607D01*
G01X10681Y13655D01*
G01X10713Y13686D01*
G01X10760Y13701D01*
G01X10793Y13701D01*
G01X10839Y13686D01*
G01X10872Y13655D01*
G01X10888Y13607D01*
G01X10888Y13559D01*
G01X10872Y13511D01*
G01X10856Y13496D01*
G01X10825Y13480D01*
G01X8100Y7750D02*
G01X8434Y7750D01*
G01X8100Y7750D02*
G01X8100Y7892D01*
G01X8116Y7940D01*
G01X8132Y7957D01*
G01X8164Y7973D01*
G01X8196Y7973D01*
G01X8227Y7957D01*
G01X8243Y7940D01*
G01X8259Y7892D01*
G01X8259Y7750D01*
G01X8259Y7861D02*
G01X8434Y7973D01*
G01X8100Y8109D02*
G01X8100Y8284D01*
G01X8227Y8188D01*
G01X8227Y8236D01*
G01X8243Y8269D01*
G01X8259Y8284D01*
G01X8307Y8300D01*
G01X8339Y8300D01*
G01X8386Y8284D01*
G01X8418Y8253D01*
G01X8434Y8205D01*
G01X8434Y8157D01*
G01X8418Y8109D01*
G01X8402Y8094D01*
G01X8371Y8078D01*
G01X8059Y2800D02*
G01X8059Y2545D01*
G01X8043Y2498D01*
G01X8027Y2482D01*
G01X7995Y2466D01*
G01X7964Y2466D01*
G01X7932Y2482D01*
G01X7916Y2498D01*
G01X7900Y2545D01*
G01X7900Y2577D01*
G01X8164Y2800D02*
G01X8164Y2466D01*
G01X8164Y2800D02*
G01X8307Y2800D01*
G01X8355Y2784D01*
G01X8371Y2768D01*
G01X8387Y2736D01*
G01X8387Y2689D01*
G01X8371Y2657D01*
G01X8355Y2641D01*
G01X8307Y2625D01*
G01X8164Y2625D01*
G01X8492Y2736D02*
G01X8524Y2752D01*
G01X8571Y2800D01*
G01X8571Y2466D01*
G01X8899Y2800D02*
G01X8740Y2466D01*
G01X8676Y2800D02*
G01X8899Y2800D01*
G01X9399Y8300D02*
G01X9399Y8061D01*
G01X9415Y8014D01*
G01X9447Y7982D01*
G01X9494Y7966D01*
G01X9526Y7966D01*
G01X9574Y7982D01*
G01X9606Y8014D01*
G01X9622Y8061D01*
G01X9622Y8300D01*
G01X9886Y8300D02*
G01X9727Y8077D01*
G01X9965Y8077D01*
G01X9886Y8300D02*
G01X9886Y7966D01*
G01X9299Y5559D02*
G01X9554Y5559D01*
G01X9601Y5543D01*
G01X9617Y5527D01*
G01X9633Y5495D01*
G01X9633Y5464D01*
G01X9617Y5432D01*
G01X9601Y5416D01*
G01X9554Y5400D01*
G01X9522Y5400D01*
G01X9299Y5664D02*
G01X9633Y5664D01*
G01X9299Y5664D02*
G01X9299Y5807D01*
G01X9315Y5855D01*
G01X9331Y5871D01*
G01X9363Y5887D01*
G01X9410Y5887D01*
G01X9442Y5871D01*
G01X9458Y5855D01*
G01X9474Y5807D01*
G01X9474Y5664D01*
G01X9363Y5992D02*
G01X9347Y6024D01*
G01X9299Y6071D01*
G01X9633Y6071D01*
G01X9299Y6256D02*
G01X9315Y6208D01*
G01X9347Y6192D01*
G01X9379Y6192D01*
G01X9410Y6208D01*
G01X9426Y6240D01*
G01X9442Y6304D01*
G01X9458Y6351D01*
G01X9490Y6383D01*
G01X9522Y6399D01*
G01X9570Y6399D01*
G01X9601Y6383D01*
G01X9617Y6367D01*
G01X9633Y6320D01*
G01X9633Y6256D01*
G01X9617Y6208D01*
G01X9601Y6192D01*
G01X9570Y6176D01*
G01X9522Y6176D01*
G01X9490Y6192D01*
G01X9458Y6224D01*
G01X9442Y6272D01*
G01X9426Y6335D01*
G01X9410Y6367D01*
G01X9379Y6383D01*
G01X9347Y6383D01*
G01X9315Y6367D01*
G01X9299Y6320D01*
G01X9299Y6256D01*
G01X2401Y6499D02*
G01X2360Y6478D01*
G01X2319Y6437D01*
G01X2299Y6397D01*
G01X2299Y6315D01*
G01X2319Y6274D01*
G01X2360Y6233D01*
G01X2401Y6212D01*
G01X2462Y6192D01*
G01X2564Y6192D01*
G01X2626Y6212D01*
G01X2667Y6233D01*
G01X2708Y6274D01*
G01X2728Y6315D01*
G01X2728Y6397D01*
G01X2708Y6437D01*
G01X2667Y6478D01*
G01X2626Y6499D01*
G01X2360Y6879D02*
G01X2319Y6859D01*
G01X2299Y6797D01*
G01X2299Y6757D01*
G01X2319Y6695D01*
G01X2380Y6654D01*
G01X2483Y6634D01*
G01X2585Y6634D01*
G01X2667Y6654D01*
G01X2708Y6695D01*
G01X2728Y6757D01*
G01X2728Y6777D01*
G01X2708Y6838D01*
G01X2667Y6879D01*
G01X2605Y6900D01*
G01X2585Y6900D01*
G01X2524Y6879D01*
G01X2483Y6838D01*
G01X2462Y6777D01*
G01X2462Y6757D01*
G01X2483Y6695D01*
G01X2524Y6654D01*
G01X2585Y6634D01*
G01X3299Y14499D02*
G01X3299Y14193D01*
G01X3319Y14131D01*
G01X3360Y14090D01*
G01X3422Y14070D01*
G01X3463Y14070D01*
G01X3524Y14090D01*
G01X3565Y14131D01*
G01X3585Y14193D01*
G01X3585Y14499D01*
G01X3761Y14499D02*
G01X3986Y14499D01*
G01X3864Y14336D01*
G01X3925Y14336D01*
G01X3966Y14315D01*
G01X3986Y14295D01*
G01X4007Y14234D01*
G01X4007Y14193D01*
G01X3986Y14131D01*
G01X3945Y14090D01*
G01X3884Y14070D01*
G01X3823Y14070D01*
G01X3761Y14090D01*
G01X3741Y14111D01*
G01X3720Y14152D01*
G54D38*
G01X8753Y9090D02*
G01X8726Y9076D01*
G01X8684Y9036D01*
G01X8684Y9323D01*
G54D37*
G01X6200Y4800D02*
G01X6200Y4494D01*
G01X6219Y4432D01*
G01X6261Y4391D01*
G01X6323Y4371D01*
G01X6363Y4371D01*
G01X6425Y4391D01*
G01X6465Y4432D01*
G01X6486Y4494D01*
G01X6486Y4800D01*
G01X6621Y4719D02*
G01X6661Y4739D01*
G01X6723Y4800D01*
G01X6723Y4371D01*
G54D33*
G01X3000Y3399D02*
G01X3000Y3065D01*
G01X3344Y3319D02*
G01X3328Y3351D01*
G01X3296Y3383D01*
G01X3263Y3399D01*
G01X3200Y3399D01*
G01X3169Y3383D01*
G01X3136Y3351D01*
G01X3121Y3319D01*
G01X3105Y3272D01*
G01X3105Y3192D01*
G01X3121Y3144D01*
G01X3136Y3113D01*
G01X3169Y3081D01*
G01X3200Y3065D01*
G01X3263Y3065D01*
G01X3296Y3081D01*
G01X3328Y3113D01*
G01X3344Y3144D01*
G01X3671Y3351D02*
G01X3640Y3383D01*
G01X3592Y3399D01*
G01X3528Y3399D01*
G01X3480Y3383D01*
G01X3448Y3351D01*
G01X3448Y3319D01*
G01X3465Y3288D01*
G01X3480Y3272D01*
G01X3511Y3256D01*
G01X3607Y3224D01*
G01X3640Y3208D01*
G01X3655Y3192D01*
G01X3671Y3160D01*
G01X3671Y3113D01*
G01X3640Y3081D01*
G01X3592Y3065D01*
G01X3528Y3065D01*
G01X3480Y3081D01*
G01X3448Y3113D01*
G01X3776Y3399D02*
G01X3776Y3065D01*
G01X3776Y3399D02*
G01X3919Y3399D01*
G01X3967Y3383D01*
G01X3982Y3367D01*
G01X3998Y3335D01*
G01X3998Y3288D01*
G01X3982Y3256D01*
G01X3967Y3240D01*
G01X3919Y3224D01*
G01X3776Y3224D01*
G01X2100Y1290D02*
G01X2100Y957D01*
G01X2100Y1290D02*
G01X2211Y1290D01*
G01X2259Y1275D01*
G01X2290Y1242D01*
G01X2307Y1211D01*
G01X2323Y1163D01*
G01X2323Y1084D01*
G01X2307Y1036D01*
G01X2290Y1005D01*
G01X2259Y973D01*
G01X2211Y957D01*
G01X2100Y957D01*
G01X2538Y1290D02*
G01X2538Y957D01*
G01X2428Y1290D02*
G01X2650Y1290D01*
G01X2755Y1290D02*
G01X2755Y957D01*
G01X2755Y1290D02*
G01X2898Y1290D01*
G01X2946Y1275D01*
G01X2961Y1259D01*
G01X2978Y1226D01*
G01X2978Y1194D01*
G01X2961Y1163D01*
G01X2946Y1148D01*
G01X2898Y1132D01*
G01X2755Y1132D01*
G01X2867Y1132D02*
G01X2978Y957D01*
G01X3311Y1291D02*
G01X3311Y957D01*
G01X3200Y1291D02*
G01X3423Y1291D01*
G01X3528Y1291D02*
G01X3750Y957D01*
G01X3750Y1291D02*
G01X3528Y957D01*
G01X4200Y1291D02*
G01X4200Y957D01*
G01X4200Y1291D02*
G01X4342Y1291D01*
G01X4390Y1275D01*
G01X4407Y1259D01*
G01X4423Y1227D01*
G01X4423Y1195D01*
G01X4407Y1164D01*
G01X4390Y1148D01*
G01X4342Y1132D01*
G01X4200Y1132D01*
G01X4311Y1132D02*
G01X4423Y957D01*
G01X4528Y1291D02*
G01X4750Y957D01*
G01X4750Y1291D02*
G01X4528Y957D01*
G01X5100Y1291D02*
G01X5226Y957D01*
G01X5355Y1291D02*
G01X5226Y957D01*
G01X5650Y1132D02*
G01X5619Y1164D01*
G01X5586Y1180D01*
G01X5538Y1180D01*
G01X5507Y1164D01*
G01X5475Y1132D01*
G01X5459Y1084D01*
G01X5459Y1052D01*
G01X5475Y1005D01*
G01X5507Y973D01*
G01X5538Y957D01*
G01X5586Y957D01*
G01X5619Y973D01*
G01X5650Y1005D01*
G01X5946Y1132D02*
G01X5915Y1164D01*
G01X5882Y1180D01*
G01X5834Y1180D01*
G01X5803Y1164D01*
G01X5771Y1132D01*
G01X5755Y1084D01*
G01X5755Y1052D01*
G01X5771Y1005D01*
G01X5803Y973D01*
G01X5834Y957D01*
G01X5882Y957D01*
G01X5915Y973D01*
G01X5946Y1005D01*
G01X6200Y1291D02*
G01X6200Y957D01*
G01X6200Y1291D02*
G01X6423Y957D01*
G01X6423Y1291D02*
G01X6423Y957D01*
G01X6765Y1211D02*
G01X6750Y1243D01*
G01X6719Y1275D01*
G01X6686Y1291D01*
G01X6623Y1291D01*
G01X6590Y1275D01*
G01X6559Y1243D01*
G01X6544Y1211D01*
G01X6528Y1164D01*
G01X6528Y1084D01*
G01X6544Y1036D01*
G01X6559Y1004D01*
G01X6590Y973D01*
G01X6623Y957D01*
G01X6686Y957D01*
G01X6719Y973D01*
G01X6750Y1004D01*
G01X6765Y1036D01*
G01X7338Y1211D02*
G01X7323Y1242D01*
G01X7290Y1275D01*
G01X7259Y1290D01*
G01X7194Y1290D01*
G01X7163Y1275D01*
G01X7132Y1242D01*
G01X7115Y1211D01*
G01X7100Y1163D01*
G01X7100Y1084D01*
G01X7115Y1036D01*
G01X7132Y1005D01*
G01X7163Y973D01*
G01X7194Y957D01*
G01X7259Y957D01*
G01X7290Y973D01*
G01X7323Y1005D01*
G01X7338Y1036D01*
G01X7338Y1084D01*
G01X7259Y1084D02*
G01X7338Y1084D01*
G01X7444Y1290D02*
G01X7444Y957D01*
G01X7444Y1290D02*
G01X7665Y957D01*
G01X7665Y1290D02*
G01X7665Y957D01*
G01X7771Y1290D02*
G01X7771Y957D01*
G01X7771Y1290D02*
G01X7882Y1290D01*
G01X7930Y1275D01*
G01X7961Y1242D01*
G01X7978Y1211D01*
G01X7994Y1163D01*
G01X7994Y1084D01*
G01X7978Y1036D01*
G01X7961Y1005D01*
G01X7930Y973D01*
G01X7882Y957D01*
G01X7771Y957D01*
G54D10*
G75*
G01X8025Y2294D02*
G3X7907Y2195I-10J-108D01*
G01*
G75*
G01X8773Y2195D02*
G3X8655Y2294I-108J-10D01*
G01*
G75*
G01X8773Y1605D02*
G2X8655Y1506I-108J10D01*
G01*
G75*
G01X8025Y1506D02*
G2X7907Y1605I-10J108D01*
G01*
G75*
G01X9800Y6600D02*
G2X9900Y6700I100J0D01*
G01*
G75*
G01X9900Y5500D02*
G2X9800Y5600I0J100D01*
G01*
G75*
G01X10500Y5500D02*
G3X10600Y5600I0J100D01*
G01*
G75*
G01X10600Y6600D02*
G3X10500Y6700I-100J0D01*
G01*
G54D35*
G75*
G01X8384Y3143D02*
G3X8384Y3144I59J1D01*
G01*
G54D36*
G75*
G01X7537Y3734D02*
G3X7537Y3735I79J1D01*
G01*
G54D10*
G75*
G01X10401Y2359D02*
G03X10401Y2359I-100J0D01*
G01*
G36*
G01X5700Y7825D02*
G01X6300Y7825D01*
G01X6300Y7900D01*
G01X5700Y7900D01*
G01X5700Y7825D01*
G01X5700Y7825D01*
G01X5700Y7825D01*
G37*
G36*
G01X5950Y7875D02*
G01X5950Y8275D01*
G01X6050Y8275D01*
G01X6050Y7875D01*
G01X6050Y7875D01*
G01X5950Y7875D01*
G37*
G36*
G01X5950Y7500D02*
G01X6050Y7500D01*
G01X6050Y7125D01*
G01X5950Y7125D01*
G01X5950Y7125D01*
G01X5950Y7500D01*
G37*
M00*
M02*
