;PTH Drill file created by EasyEDA 
M48
INCH,LZ
;Holesize 1 = 0.012 INCH
T01C0.012
;Holesize 2 = 0.035 INCH
T02C0.035
;Holesize 3 = 0.040 INCH
T03C0.040
;Holesize 4 = 0.090 INCH
T04C0.090
%
G05
G90
T01
X008000Y010650
X008000Y009550
X006750Y009550
X005250Y009550
X003800Y009550
X003800Y010650
X005250Y010650
X006750Y010650
X008000Y011750
X006750Y011750
X005250Y011750
X003800Y011750
X009700Y007700
X008700Y003100
X007500Y001600
X007550Y002300
X007950Y012850
X006750Y012850
X005250Y012850
X003800Y012850
X001900Y008400
X002850Y008100
X002850Y007200
X005800Y001400
X005200Y001500
X002500Y007800
X002500Y007200
X002850Y005950
X002500Y005950
X003200Y005950
X002850Y004800
X002500Y004800
X003200Y004800
X008500Y014500
X007600Y005600
X007000Y005600
X006400Y005600
X007600Y005000
X007000Y005000
X007600Y004000
X007600Y003500
X007000Y003500
X007000Y004000
X006400Y004000
X006400Y003500
X005800Y003500
X005800Y004000
X005800Y004600
X004650Y010100
X004650Y011200
X004650Y012300
X006150Y012300
X006150Y011200
X006150Y010100
X007650Y010100
X007650Y011200
X007650Y012300
X007650Y013500
X006150Y013500
X004650Y013500
X009200Y005600
X009200Y005200
X003900Y004800
X003900Y005950
X003900Y007200
X003550Y004800
X003550Y005950
X003550Y006900
X000900Y004800
X001400Y004800
X000900Y004300
X000600Y010100
X000600Y011200
X011500Y010100
X011500Y011200
X003250Y010100
X003250Y011200
X003250Y012300
X003250Y013500
X008800Y007900
X009200Y007900
X004300Y006700
X004700Y006700
X001000Y001650
X000450Y001350
X000450Y000650
X001000Y000350
X001550Y000650
X001550Y001350
X011000Y001650
X010450Y001350
X010450Y000650
X011000Y000350
X011550Y000650
X011550Y001350
X004400Y001800
X003900Y001800
X009400Y002000
X010100Y007850
X008350Y002450
T02
X000500Y013700
T03
X011500Y006500
X011500Y005500
X011500Y004500
X000500Y006500
X003500Y000500
X004500Y000500
X005500Y000500
X006500Y000500
X007500Y000500
X001500Y002500
X002500Y002500
X000500Y003500
X001500Y003500
X002500Y003500
X011500Y007500
X000500Y002500
X000500Y005500
X000500Y007500
X002500Y000500
T04
X011000Y012000
X011000Y001000
X001000Y001000
M30
